<svg width="14" height="14" viewBox="0 0 14 14" fill="none" xmlns="http://www.w3.org/2000/svg">
<path d="M10.9634 9.68173H3.03711V6.7536C3.03711 6.11452 3.55519 5.59644 4.19427 5.59644H9.8063C10.4454 5.59644 10.9635 6.11452 10.9635 6.7536V9.68173H10.9634Z" fill="#FFF3A7"/>
<path d="M9.80566 5.59644H8.71191C9.35099 5.59644 9.86907 6.11452 9.86907 6.7536V9.68173H10.9628V6.7536C10.9628 6.11452 10.4447 5.59644 9.80566 5.59644Z" fill="#FCE65B"/>
<path d="M12.3157 12.8662H1.68408V10.4128C1.68408 9.7737 2.20216 9.25562 2.84124 9.25562H11.1586C11.7977 9.25562 12.3157 9.7737 12.3157 10.4128L12.3157 12.8662Z" fill="#FFF3A7"/>
<path d="M11.1587 9.25562H10.0649C10.704 9.25562 11.2221 9.7737 11.2221 10.4128V12.8662H12.3159V10.4128C12.3159 9.7737 11.7978 9.25562 11.1587 9.25562Z" fill="#FCE65B"/>
<path d="M11.1586 9.25562H2.84124C2.20216 9.25562 1.68408 9.7737 1.68408 10.4128V10.4203C2.57002 10.4203 2.57002 11.8608 3.45596 11.8608C4.34187 11.8608 4.34187 10.4203 5.22778 10.4203C6.11374 10.4203 6.11374 11.8608 6.99968 11.8608C7.88564 11.8608 7.88565 10.4203 8.77164 10.4203C9.65766 10.4203 9.65766 11.8608 10.5437 11.8608C11.4297 11.8608 11.4297 10.4203 12.3157 10.4203V10.4128C12.3157 9.7737 11.7976 9.25562 11.1586 9.25562Z" fill="#F54C5A"/>
<path d="M11.1587 9.25562H10.0649C10.704 9.25562 11.2221 9.7737 11.2221 10.4128V10.4203V11.4581C11.5373 11.0319 11.7385 10.4203 12.3159 10.4203V10.4128C12.3159 9.7737 11.7978 9.25562 11.1587 9.25562Z" fill="#EB3443"/>
<path d="M4.36186 7.86917C5.02129 7.86917 5.02129 6.79688 5.68073 6.79688C6.34021 6.79688 6.34021 7.86917 6.99966 7.86917C7.65914 7.86917 7.65914 6.79688 8.31861 6.79688C8.97812 6.79688 8.97812 7.86917 9.63765 7.86917C10.2972 7.86917 10.2972 6.79688 10.9567 6.79688H10.963V6.7536C10.963 6.11452 10.4449 5.59644 9.80581 5.59644H4.19378C3.5547 5.59644 3.03662 6.11452 3.03662 6.7536V6.79688H3.04291C3.70239 6.79688 3.70239 7.86917 4.36186 7.86917Z" fill="#F54C5A"/>
<path d="M9.80566 5.59644H8.71191C9.35099 5.59644 9.86907 6.11452 9.86907 6.7536V7.81697C10.3086 7.60226 10.3849 6.79688 10.9565 6.79688H10.9628V6.7536C10.9628 6.11452 10.4447 5.59644 9.80566 5.59644Z" fill="#EB3443"/>
<path d="M7.55757 1.42354C7.55757 1.731 7.30792 1.98026 6.99998 1.98026C6.69203 1.98026 6.44238 1.73102 6.44238 1.42354C6.44238 1.11606 6.99998 0.205078 6.99998 0.205078C6.99998 0.205078 7.55757 1.11609 7.55757 1.42354Z" fill="#FFDB63"/>
<path d="M6.25098 3.09253H7.74898V5.59667H6.25098V3.09253Z" fill="#8FE0FF"/>
<path d="M6.2627 3.9353H7.73693V4.75428H6.2627V3.9353Z" fill="#BDEDFF"/>
<path d="M12.8663 13.7961H1.13373C0.62084 13.7961 0.205078 13.3803 0.205078 12.8674H13.7949C13.7949 13.3803 13.3792 13.7961 12.8663 13.7961Z" fill="#BDEDFF"/>
<path d="M3.45297 11.1038C3.71689 11.1038 3.71733 10.6936 3.45297 10.6936C3.18907 10.6936 3.18864 11.1038 3.45297 11.1038Z" fill="#060606"/>
<path d="M7.00034 11.1038C7.26426 11.1038 7.2647 10.6936 7.00034 10.6936C6.73645 10.6936 6.73598 11.1038 7.00034 11.1038Z" fill="#060606"/>
<path d="M10.5472 11.1038C10.8111 11.1038 10.8116 10.6936 10.5472 10.6936C10.2833 10.6936 10.2829 11.1038 10.5472 11.1038Z" fill="#060606"/>
<path d="M4.36217 7.23682C4.62609 7.23682 4.62653 6.82666 4.36217 6.82666C4.09825 6.82666 4.09781 7.23682 4.36217 7.23682Z" fill="#060606"/>
<path d="M7.00034 7.23682C7.26426 7.23682 7.2647 6.82666 7.00034 6.82666C6.73645 6.82666 6.73598 7.23682 7.00034 7.23682Z" fill="#060606"/>
<path d="M9.63805 7.23682C9.90197 7.23682 9.90241 6.82666 9.63805 6.82666C9.37413 6.82666 9.37369 7.23682 9.63805 7.23682Z" fill="#060606"/>
<path d="M9.67037 2.26788C9.77419 2.26788 9.87594 2.16332 9.87548 2.0619L9.87403 1.73779C9.87288 1.4803 9.46267 1.46933 9.46387 1.7396L9.46532 2.0637C9.46584 2.17666 9.55752 2.26788 9.67037 2.26788Z" fill="#060606"/>
<path d="M8.81097 2.51639C8.99926 2.70265 9.28806 2.4115 9.09947 2.22485L8.86891 1.99669C8.68043 1.81021 8.39195 2.10172 8.58041 2.28823L8.81097 2.51639Z" fill="#060606"/>
<path d="M8.34244 3.29857H8.34337L8.66796 3.29712C8.92696 3.29597 8.9195 2.88696 8.66616 2.88696L8.34156 2.88841C8.0769 2.88959 8.07791 3.29857 8.34244 3.29857Z" fill="#060606"/>
<path d="M8.82919 3.66151L8.60068 3.89169C8.41392 4.07976 8.70478 4.369 8.89175 4.18066L9.12026 3.95048C9.3071 3.76235 9.01598 3.47328 8.82919 3.66151Z" fill="#060606"/>
<path d="M10.2673 3.64233C10.1877 3.72283 10.1883 3.85266 10.2688 3.93234L10.4994 4.16049C10.6877 4.34676 10.9765 4.0556 10.7879 3.86895C10.6882 3.73658 10.4383 3.4696 10.2673 3.64233Z" fill="#060606"/>
<path d="M10.4961 3.06558C10.4966 3.16725 10.5985 3.26976 10.7021 3.26976L11.0267 3.26831C11.2857 3.26716 11.2782 2.85815 11.0249 2.85815L10.7003 2.8596C10.587 2.86012 10.4956 2.95235 10.4961 3.06558Z" fill="#060606"/>
<path d="M10.3934 2.5557C10.4461 2.5557 10.4988 2.53549 10.5389 2.49511L10.7674 2.26493C10.9542 2.07675 10.6631 1.78775 10.4763 1.97596L10.2478 2.20614C10.1268 2.32812 10.2216 2.5557 10.3934 2.5557Z" fill="#060606"/>
<path d="M4.30172 0.822812C4.40554 0.822812 4.50729 0.71825 4.50682 0.616832L4.50537 0.292726C4.50423 0.0352303 4.09401 0.0242654 4.09522 0.294531L4.09667 0.618636C4.09719 0.731593 4.18887 0.822812 4.30172 0.822812Z" fill="#060606"/>
<path d="M3.4428 1.06962C3.63109 1.25589 3.9199 0.96473 3.73131 0.778081L3.50074 0.549925C3.31229 0.363413 3.02379 0.654952 3.21224 0.841464L3.4428 1.06962Z" fill="#060606"/>
<path d="M2.97378 1.8535H2.97471L3.29931 1.85205C3.55831 1.8509 3.55085 1.44189 3.29751 1.44189L2.97291 1.44334C2.70825 1.44455 2.70926 1.8535 2.97378 1.8535Z" fill="#060606"/>
<path d="M3.46099 2.21668L3.2325 2.44686C3.04577 2.63496 3.3366 2.92417 3.52358 2.73583L3.75206 2.50565C3.93887 2.31747 3.64777 2.02848 3.46099 2.21668Z" fill="#060606"/>
<path d="M4.89867 2.19709C4.81899 2.27759 4.81967 2.40744 4.9002 2.48709L5.13076 2.71522C5.319 2.90157 5.60789 2.61031 5.41927 2.42368L5.18871 2.19556C5.10818 2.11585 4.97835 2.11656 4.89867 2.19709Z" fill="#060606"/>
<path d="M5.12744 1.62027C5.12796 1.73323 5.21965 1.82445 5.33249 1.82445H5.33342L5.65802 1.823C5.91702 1.82185 5.90956 1.41284 5.65622 1.41284L5.33162 1.41429C5.21836 1.41478 5.12695 1.50701 5.12744 1.62027Z" fill="#060606"/>
<path d="M5.02524 1.11041C5.07796 1.11041 5.13068 1.0902 5.17076 1.04981L5.39927 0.819635C5.58611 0.631482 5.29496 0.342404 5.1082 0.530666L4.87969 0.760846C4.75858 0.882826 4.85352 1.11041 5.02524 1.11041Z" fill="#060606"/>
<path d="M13.7949 12.6612H12.5209V10.4128C12.5209 9.66492 11.915 9.05606 11.1682 9.05086V6.7538C11.1682 6.03066 10.6017 5.43758 9.8893 5.39437V2.95446C9.8893 2.84118 9.79751 2.74939 9.68423 2.74939C9.57094 2.74939 9.47915 2.84118 9.47915 2.95446V5.39159H7.95411V3.09252C7.95411 2.97924 7.86231 2.88745 7.74903 2.88745H7.20177V2.15808C8.01823 1.93405 7.72849 1.11565 7.46047 0.603859C7.31954 0.334688 7.18077 0.10757 7.17492 0.0980273C7.05832 -0.0326758 6.9417 -0.0326758 6.82511 0.0980273C6.81926 0.10757 6.68049 0.334688 6.53956 0.603859C6.27211 1.11453 5.97849 1.92508 6.79164 2.15619V2.88745H6.25103C6.13774 2.88745 6.04595 2.97924 6.04595 3.09252V5.39159H4.52091V1.50921C4.52091 1.24406 4.11075 1.24406 4.11075 1.50921V5.39437C3.39828 5.43761 2.83183 6.03066 2.83183 6.7538V9.05086C2.0851 9.05606 1.47916 9.66492 1.47916 10.4128V12.6612H0.205078C0.091793 12.6612 0 12.753 0 12.8663C0 13.4914 0.508594 14 1.13373 14H12.8663C13.4914 14 14 13.4914 14 12.8663C14 12.753 13.9082 12.6612 13.7949 12.6612ZM6.64746 1.42357C6.64746 1.1608 6.87977 0.829637 7.00033 0.612145C7.11665 0.821297 7.39766 1.22437 7.3389 1.48531C7.25151 1.87346 6.64746 1.87124 6.64746 1.42357ZM6.45605 4.14017H7.54392V4.54899H6.45605V4.14017ZM7.54395 3.2976V3.73002H6.45608V3.2976H7.54395ZM6.45605 4.95914H7.54392V5.39156H6.45605V4.95914ZM4.19398 5.80174H9.80602C10.2858 5.80174 10.6837 6.15861 10.7486 6.6208C10.4401 6.71007 10.2667 6.99158 10.1227 7.2258C9.95545 7.49766 9.84257 7.66429 9.63785 7.66429C9.4331 7.66429 9.32023 7.49766 9.15302 7.22578C8.97933 6.94343 8.76321 6.592 8.31882 6.592C7.87445 6.592 7.65833 6.94343 7.48464 7.2258C7.31743 7.49766 7.20459 7.66429 6.99986 7.66429C6.79517 7.66429 6.68229 7.49766 6.51509 7.2258C6.34143 6.94343 6.1253 6.592 5.68094 6.592C5.49467 6.592 5.3267 6.65689 5.18164 6.78489C4.98282 6.96032 5.25416 7.26789 5.453 7.09245C5.52377 7.03002 5.59407 7.00216 5.68094 7.00216C5.88563 7.00216 5.99851 7.16879 6.16571 7.44064C6.33938 7.72302 6.5555 8.07445 6.99986 8.07445C7.44423 8.07445 7.66035 7.72302 7.83404 7.44064C8.00125 7.16879 8.11409 7.00216 8.31882 7.00216C8.52354 7.00216 8.63641 7.16879 8.80362 7.44064C8.97731 7.72302 9.19346 8.07445 9.63785 8.07445C10.0822 8.07445 10.2984 7.72302 10.4721 7.44064C10.5767 7.27046 10.6601 7.14153 10.7581 7.06888V9.05062H3.24193V7.06891C3.33987 7.14156 3.42325 7.27048 3.52792 7.44067C3.70158 7.72305 3.9177 8.07447 4.36207 8.07447C4.57964 8.07447 4.76484 7.99012 4.9283 7.81654C5.11011 7.62352 4.81149 7.34229 4.62971 7.53534C4.54459 7.62576 4.46452 7.66432 4.36207 7.66432C4.15737 7.66432 4.0445 7.49768 3.87729 7.22583C3.73327 6.99163 3.55986 6.71013 3.25142 6.62082C3.3163 6.15858 3.71416 5.80174 4.19398 5.80174ZM2.84134 9.46077H3.03682H10.9631H11.1586C11.6248 9.46077 12.0134 9.79757 12.0948 10.2405C11.6829 10.3382 11.4573 10.7044 11.2551 11.0332C11.0168 11.4206 10.85 11.6558 10.5437 11.6558C10.3394 11.6558 10.1896 11.614 9.8324 11.0332C9.59659 10.6498 9.32933 10.2153 8.77168 10.2153C8.21406 10.2153 7.9468 10.6498 7.71102 11.0332C7.47275 11.4206 7.30598 11.6559 6.99973 11.6559C6.79541 11.6559 6.64563 11.614 6.28846 11.0332C6.05268 10.6498 5.78545 10.2153 5.22782 10.2153C4.6702 10.2153 4.403 10.6498 4.16721 11.0332C3.92897 11.4206 3.7622 11.6559 3.456 11.6559C3.25169 11.6559 3.1019 11.614 2.74474 11.0332C2.5425 10.7044 2.31695 10.3382 1.90509 10.2406C1.98652 9.79757 2.37521 9.46077 2.84134 9.46077ZM12.8663 13.5898H1.13373C0.805957 13.5898 0.528363 13.3708 0.439742 13.0714H10.0213C10.2864 13.0714 10.2864 12.6612 10.0213 12.6612H1.88926V10.6619C2.01827 10.7203 2.16289 10.87 2.39545 11.2481C2.63123 11.6315 2.89846 12.066 3.45609 12.066C4.01368 12.066 4.28088 11.6315 4.51667 11.2481C4.75491 10.8607 4.92168 10.6254 5.22791 10.6254C5.43222 10.6254 5.58201 10.6673 5.93917 11.2481C6.17496 11.6315 6.44219 12.066 6.99981 12.066C7.55743 12.066 7.82469 11.6315 8.06047 11.2481C8.29875 10.8607 8.46552 10.6254 8.77177 10.6254C8.9761 10.6254 9.12592 10.6673 9.48311 11.2481C9.71893 11.6315 9.98618 12.066 10.5438 12.066C11.1015 12.066 11.3687 11.6314 11.6045 11.2481C11.7838 10.9566 11.9226 10.7514 12.1108 10.6675V12.6612H11.06C10.7948 12.6612 10.7948 13.0714 11.06 13.0714H13.5603C13.4716 13.3708 13.194 13.5898 12.8663 13.5898Z" fill="#060606"/>
</svg>
