<svg width="648" height="281" viewBox="0 0 648 281" fill="none" xmlns="http://www.w3.org/2000/svg">
<g clip-path="url(#clip0_733_4948)">
<path d="M648 -1H0V290H648V-1Z" fill="url(#paint0_linear_733_4948)"/>
<path d="M-17.25 50.9003C-64.5612 50.8216 -111.711 45.387 -157.8 34.7003L-157.35 33.2003C14.7 72.9503 189 38.7503 333.3 -62.9497L334.2 -61.7497C228.9 12.5003 107.55 50.9003 -17.25 50.9003Z" fill="#999999"/>
<path fill-rule="evenodd" clip-rule="evenodd" d="M8.54999 43.7002L10.8 90.0502L27.45 78.9502L46.35 87.6502C44.85 72.2002 43.2 56.7502 41.7 41.4502C28.5 42.6502 21.9 43.1002 8.54999 43.7002Z" fill="#00D6AD"/>
<path d="M202.95 2.00039L219.75 45.2004C224.7 38.9004 227.1 35.6004 231.9 29.1504C240.15 30.0504 244.2 30.3504 252.6 30.9504L233.4 -11.3496C221.4 -5.64961 215.25 -2.94961 202.95 2.00039Z" fill="#FF2B34"/>
<path d="M248.7 -18.7L268.95 23C273.45 16.1 275.55 12.8 279.75 5.9C288 6.05 292.2 6.05 300.6 5.75L278.1 -34.75C266.55 -28 260.55 -24.7 248.7 -18.7Z" fill="#FFB938"/>
<path d="M58.35 39.5004C60.3 54.9504 62.4 70.2504 64.35 85.5504C70.65 80.7504 73.8 78.2004 79.95 73.1004C87.6 76.1004 91.5 77.4504 99.45 80.1504C96.75 64.8504 93.9 49.7004 91.05 34.4004C78 36.8004 71.55 37.8504 58.35 39.5004Z" fill="#FF2B34"/>
<path d="M107.55 31.2503C110.7 46.2503 114 61.4003 117.15 76.5503C123.15 71.1503 126 68.4503 131.7 62.9003C139.65 65.1503 143.55 66.2003 151.8 68.1503L139.65 23.3003C126.9 26.9003 120.45 28.4003 107.55 31.2503Z" fill="#FFB938"/>
<path fill-rule="evenodd" clip-rule="evenodd" d="M155.7 18.65C160.2 33.5 164.7 48.35 169.05 63.05C174.6 57.2 177.15 54.2 182.4 48.2C190.5 49.7 194.55 50.45 202.8 51.65L187.2 8C174.75 12.65 168.45 14.75 155.7 18.65Z" fill="#00D6AD"/>
<g style="mix-blend-mode:multiply" opacity="0.5">
<path fill-rule="evenodd" clip-rule="evenodd" d="M8.54999 43.7002L10.8 90.0502L27.45 78.9502L46.35 87.6502C44.85 72.2002 43.2 56.7502 41.7 41.4502C28.5 42.6502 21.9 43.1002 8.54999 43.7002Z" fill="url(#paint1_linear_733_4948)"/>
<path d="M202.95 2.00039L219.75 45.2004C224.7 38.9004 227.1 35.6004 231.9 29.1504C240.15 30.0504 244.2 30.3504 252.6 30.9504L233.4 -11.3496C221.4 -5.64961 215.25 -2.94961 202.95 2.00039Z" fill="url(#paint2_linear_733_4948)"/>
<path d="M248.7 -18.7L268.95 23C273.45 16.1 275.55 12.8 279.75 5.9C288 6.05 292.2 6.05 300.6 5.75L278.1 -34.75C266.55 -28 260.55 -24.7 248.7 -18.7Z" fill="url(#paint3_linear_733_4948)"/>
<path d="M58.35 39.5004C60.3 54.9504 62.4 70.2504 64.35 85.5504C70.65 80.7504 73.8 78.2004 79.95 73.1004C87.6 76.1004 91.5 77.4504 99.45 80.1504C96.75 64.8504 93.9 49.7004 91.05 34.4004C78 36.8004 71.55 37.8504 58.35 39.5004Z" fill="url(#paint4_linear_733_4948)"/>
<path d="M107.55 31.2503C110.7 46.2503 114 61.4003 117.15 76.5503C123.15 71.1503 126 68.4503 131.7 62.9003C139.65 65.1503 143.55 66.2003 151.8 68.1503L139.65 23.3003C126.9 26.9003 120.45 28.4003 107.55 31.2503Z" fill="url(#paint5_linear_733_4948)"/>
<path fill-rule="evenodd" clip-rule="evenodd" d="M155.7 18.65C160.2 33.5 164.7 48.35 169.05 63.05C174.6 57.2 177.15 54.2 182.4 48.2C190.5 49.7 194.55 50.45 202.8 51.65L187.2 8C174.75 12.65 168.45 14.75 155.7 18.65Z" fill="url(#paint6_linear_733_4948)"/>
</g>
<g style="mix-blend-mode:color-burn">
<path fill-rule="evenodd" clip-rule="evenodd" d="M8.54999 43.7002L10.8 90.0502L27.45 78.9502L46.35 87.6502C44.85 72.2002 43.2 56.7502 41.7 41.4502C28.5 42.6502 21.9 43.1002 8.54999 43.7002Z" fill="url(#paint7_linear_733_4948)"/>
<path d="M202.95 2.00039L219.75 45.2004C224.7 38.9004 227.1 35.6004 231.9 29.1504C240.15 30.0504 244.2 30.3504 252.6 30.9504L233.4 -11.3496C221.4 -5.64961 215.25 -2.94961 202.95 2.00039Z" fill="url(#paint8_linear_733_4948)"/>
<path d="M248.7 -18.7L268.95 23C273.45 16.1 275.55 12.8 279.75 5.9C288 6.05 292.2 6.05 300.6 5.75L278.1 -34.75C266.55 -28 260.55 -24.7 248.7 -18.7Z" fill="url(#paint9_linear_733_4948)"/>
<path d="M58.35 39.5004C60.3 54.9504 62.4 70.2504 64.35 85.5504C70.65 80.7504 73.8 78.2004 79.95 73.1004C87.6 76.1004 91.5 77.4504 99.45 80.1504C96.75 64.8504 93.9 49.7004 91.05 34.4004C78 36.8004 71.55 37.8504 58.35 39.5004Z" fill="url(#paint10_linear_733_4948)"/>
<path d="M107.55 31.2503C110.7 46.2503 114 61.4003 117.15 76.5503C123.15 71.1503 126 68.4503 131.7 62.9003C139.65 65.1503 143.55 66.2003 151.8 68.1503L139.65 23.3003C126.9 26.9003 120.45 28.4003 107.55 31.2503Z" fill="url(#paint11_linear_733_4948)"/>
<path fill-rule="evenodd" clip-rule="evenodd" d="M155.7 18.65C160.2 33.5 164.7 48.35 169.05 63.05C174.6 57.2 177.15 54.2 182.4 48.2C190.5 49.7 194.55 50.45 202.8 51.65L187.2 8C174.75 12.65 168.45 14.75 155.7 18.65Z" fill="url(#paint12_linear_733_4948)"/>
</g>
<path d="M710.25 85.5502C556.65 85.5502 411.6 29.0002 296.55 -76.7498L297.6 -77.7998C427.5 41.7502 595.95 98.1502 771.75 81.0502V82.5502C751.2 84.5002 730.65 85.5502 710.25 85.5502Z" fill="#999999"/>
<path d="M351.75 -40.2998L324.45 -2.9498C332.4 -1.8998 336.45 -1.4498 344.25 -0.849804C348 6.8002 349.8 10.5502 353.85 18.0502L379.05 -20.7998C367.95 -28.2998 362.4 -32.1998 351.75 -40.2998Z" fill="#FF2B34"/>
<path d="M393.15 -11.6499C385.2 1.5501 377.1 14.7501 369 27.9501C377.1 28.2501 381 28.2501 388.95 28.2501C393.15 35.4501 395.4 39.0501 399.9 46.1001C407.25 32.6001 414.45 18.9501 421.8 5.3001C410.25 -1.1499 404.55 -4.4499 393.15 -11.6499Z" fill="#FFB938"/>
<path fill-rule="evenodd" clip-rule="evenodd" d="M436.65 13.25C429.75 27.05 422.85 40.85 415.8 54.65L435.6 53.3C440.4 60.05 442.8 63.35 447.9 70.1C454.2 56 460.35 41.75 466.65 27.65C454.5 22.25 448.5 19.4 436.65 13.25Z" fill="#00D6AD"/>
<path d="M626.25 73.1001L619.5 118.85C627 115.85 630.75 114.2 637.95 111.05L655.05 122.75C656.55 107.3 657.9 92.0001 659.4 76.5501C646.05 75.5001 639.45 74.7501 626.25 73.1001Z" fill="#FF2B34"/>
<path d="M482.1 34.25L464.55 77.15C472.5 76.1 476.4 75.5 484.2 74.15C489.45 80.45 492.15 83.6 497.7 89.9L513 45.95C500.4 41.6 494.25 39.35 482.1 34.25Z" fill="#FF2B34"/>
<path d="M528.9 51.2002L514.95 95.4502C522.75 93.8002 526.5 92.7502 534.3 90.8002C540 96.6502 543 99.5002 549.15 105.2C552.9 90.2002 556.8 75.3502 560.7 60.3502C547.8 57.0502 541.5 55.2502 528.9 51.2002Z" fill="#FFB938"/>
<path fill-rule="evenodd" clip-rule="evenodd" d="M577.05 64.25L566.7 109.4C574.35 107 578.1 105.8 585.6 103.1C591.9 108.35 595.05 111.05 601.65 116.3C604.35 101 606.9 85.7 609.6 70.55C596.55 68.3 589.95 67.1 577.05 64.25Z" fill="#00D6AD"/>
<g style="mix-blend-mode:multiply" opacity="0.5">
<path d="M351.75 -40.2998L324.45 -2.9498C332.4 -1.8998 336.45 -1.4498 344.25 -0.849804C348 6.8002 349.8 10.5502 353.85 18.0502L379.05 -20.7998C367.95 -28.2998 362.4 -32.1998 351.75 -40.2998Z" fill="url(#paint13_linear_733_4948)"/>
<path d="M393.15 -11.6499C385.2 1.5501 377.1 14.7501 369 27.9501C377.1 28.2501 381 28.2501 388.95 28.2501C393.15 35.4501 395.4 39.0501 399.9 46.1001C407.25 32.6001 414.45 18.9501 421.8 5.3001C410.25 -1.1499 404.55 -4.4499 393.15 -11.6499Z" fill="url(#paint14_linear_733_4948)"/>
<path fill-rule="evenodd" clip-rule="evenodd" d="M436.65 13.2505C429.75 27.0505 422.85 40.8505 415.8 54.6505L435.6 53.3005C440.4 60.0505 442.8 63.3505 447.9 70.1005C454.2 56.0005 460.35 41.7505 466.65 27.6505C454.5 22.2505 448.5 19.4005 436.65 13.2505Z" fill="url(#paint15_linear_733_4948)"/>
<path d="M626.25 73.1001L619.5 118.85C627 115.85 630.75 114.2 637.95 111.05L655.05 122.75C656.55 107.3 657.9 92.0001 659.4 76.5501C646.05 75.5001 639.45 74.7501 626.25 73.1001Z" fill="url(#paint16_linear_733_4948)"/>
<path d="M482.1 34.2505L464.55 77.1505C472.5 76.1005 476.4 75.5005 484.2 74.1505C489.45 80.4505 492.15 83.6005 497.7 89.9005L513 45.9505C500.4 41.6005 494.25 39.3505 482.1 34.2505Z" fill="url(#paint17_linear_733_4948)"/>
<path d="M528.9 51.2002L514.95 95.4502C522.75 93.8002 526.5 92.7502 534.3 90.8002C540 96.6502 543 99.5002 549.15 105.2C552.9 90.2002 556.8 75.3502 560.7 60.3502C547.8 57.0502 541.5 55.2502 528.9 51.2002Z" fill="url(#paint18_linear_733_4948)"/>
<path fill-rule="evenodd" clip-rule="evenodd" d="M577.05 64.2505L566.7 109.4C574.35 107 578.1 105.8 585.6 103.1C591.9 108.35 595.05 111.05 601.65 116.3C604.35 101 606.9 85.7005 609.6 70.5505C596.55 68.3005 589.95 67.1005 577.05 64.2505Z" fill="url(#paint19_linear_733_4948)"/>
</g>
<g style="mix-blend-mode:color-burn">
<path d="M351.75 -40.2998L324.45 -2.9498C332.4 -1.8998 336.45 -1.4498 344.25 -0.849804C348 6.8002 349.8 10.5502 353.85 18.0502L379.05 -20.7998C367.95 -28.2998 362.4 -32.1998 351.75 -40.2998Z" fill="url(#paint20_linear_733_4948)"/>
<path d="M393.15 -11.6499C385.2 1.5501 377.1 14.7501 369 27.9501C377.1 28.2501 381 28.2501 388.95 28.2501C393.15 35.4501 395.4 39.0501 399.9 46.1001C407.25 32.6001 414.45 18.9501 421.8 5.3001C410.25 -1.1499 404.55 -4.4499 393.15 -11.6499Z" fill="url(#paint21_linear_733_4948)"/>
<path fill-rule="evenodd" clip-rule="evenodd" d="M436.65 13.2505C429.75 27.0505 422.85 40.8505 415.8 54.6505L435.6 53.3005C440.4 60.0505 442.8 63.3505 447.9 70.1005C454.2 56.0005 460.35 41.7505 466.65 27.6505C454.5 22.2505 448.5 19.4005 436.65 13.2505Z" fill="url(#paint22_linear_733_4948)"/>
<path d="M626.25 73.1001L619.5 118.85C627 115.85 630.75 114.2 637.95 111.05L655.05 122.75C656.55 107.3 657.9 92.0001 659.4 76.5501C646.05 75.5001 639.45 74.7501 626.25 73.1001Z" fill="url(#paint23_linear_733_4948)"/>
<path d="M482.1 34.2505L464.55 77.1505C472.5 76.1005 476.4 75.5005 484.2 74.1505C489.45 80.4505 492.15 83.6005 497.7 89.9005L513 45.9505C500.4 41.6005 494.25 39.3505 482.1 34.2505Z" fill="url(#paint24_linear_733_4948)"/>
<path d="M528.9 51.2002L514.95 95.4502C522.75 93.8002 526.5 92.7502 534.3 90.8002C540 96.6502 543 99.5002 549.15 105.2C552.9 90.2002 556.8 75.3502 560.7 60.3502C547.8 57.0502 541.5 55.2502 528.9 51.2002Z" fill="url(#paint25_linear_733_4948)"/>
<path fill-rule="evenodd" clip-rule="evenodd" d="M577.05 64.2505L566.7 109.4C574.35 107 578.1 105.8 585.6 103.1C591.9 108.35 595.05 111.05 601.65 116.3C604.35 101 606.9 85.7005 609.6 70.5505C596.55 68.3005 589.95 67.1005 577.05 64.2505Z" fill="url(#paint26_linear_733_4948)"/>
</g>
<path d="M457.05 138.05C457.2 139.25 457.8 139.85 459 140.75C460.326 139.26 461.965 138.082 463.8 137.3C463.364 136.924 463.007 136.466 462.749 135.951C462.492 135.436 462.339 134.875 462.3 134.3C460.314 135.182 458.528 136.458 457.05 138.05Z" fill="#FB242D"/>
<path d="M103.2 1.1001C102.15 1.4001 101.7 2.1501 101.1 3.3501C102.686 4.31788 104.063 5.59283 105.15 7.1001C105.793 6.18064 106.674 5.45444 107.7 5.0001C106.417 3.46868 104.898 2.15208 103.2 1.1001Z" fill="#FB242D"/>
<path d="M5.25 263.75C5.36766 265.553 5.77277 267.325 6.45 269C7.48275 268.632 8.37445 267.95 9 267.05C8.43854 266.045 8.17818 264.899 8.25 263.75C7.78221 263.976 7.26946 264.093 6.75 264.093C6.23054 264.093 5.71779 263.976 5.25 263.75Z" fill="#FB242D"/>
<path d="M244.35 97.5503C243.925 98.551 243.255 99.4282 242.4 100.1C244.452 100.71 246.381 101.674 248.1 102.95C249.059 102.493 249.81 101.689 250.2 100.7C248.399 99.3937 246.432 98.3342 244.35 97.5503Z" fill="#FB242D"/>
<path d="M391.05 70.2503C393.497 70.1023 395.948 70.4597 398.25 71.3003C397.327 66.5072 397.125 61.6032 397.65 56.7503C395.622 55.3924 393.173 54.807 390.75 55.1003C390.267 60.145 390.367 65.2287 391.05 70.2503Z" fill="#FB242D"/>
<path d="M468.3 122C468.628 124.39 469.735 126.604 471.45 128.3C473.181 128.254 474.906 128.508 476.55 129.05C475.8 127.55 476.1 126.35 477.3 124.4C474.193 124.076 471.156 123.266 468.3 122Z" fill="#FB242D"/>
<path d="M577.35 213.35C574.587 213.185 571.884 212.471 569.4 211.25C568.646 212.567 568.381 214.107 568.65 215.6C571.218 216.824 573.944 217.683 576.75 218.15C576 215.9 576.15 214.55 577.35 213.35Z" fill="#FB242D"/>
<path d="M292.5 44.9003C294.821 42.9506 297.531 41.5187 300.45 40.7003C300 39.1786 299.114 37.8225 297.9 36.8003C294.873 37.5988 291.988 38.8639 289.35 40.5503C291.6 41.9003 292.5 42.9503 292.5 44.9003Z" fill="#FB242D"/>
<path d="M5.85001 219.2C6.28722 219.616 6.60227 220.143 6.76094 220.724C6.91961 221.306 6.91583 221.92 6.75001 222.5C8.36675 221.993 9.81739 221.06 10.95 219.8C11.0444 219.275 10.9969 218.733 10.8123 218.232C10.6277 217.731 10.3128 217.289 9.90001 216.95C8.76538 218.035 7.37067 218.81 5.85001 219.2Z" fill="#FB242D"/>
<path d="M-1.05 13.4001C0.661569 11.9079 1.95415 9.99485 2.7 7.8501C1.85152 6.7165 0.629467 5.91951 -0.75 5.6001C-1.44026 7.77223 -2.74228 9.69922 -4.5 11.1501C-3.78736 11.2234 -3.10253 11.4659 -2.50246 11.8572C-1.9024 12.2486 -1.40444 12.7775 -1.05 13.4001Z" fill="#FB242D"/>
<path d="M258 12.2004C256.509 11.6639 254.897 11.5599 253.35 11.9004C252.926 12.7935 252.872 13.8178 253.2 14.7504C254.747 14.4015 256.361 14.5057 257.85 15.0504C257.606 14.6088 257.491 14.1077 257.518 13.604C257.544 13.1003 257.711 12.614 258 12.2004Z" fill="#FB242D"/>
<path d="M476.1 75.8003C476.91 78.3052 476.804 81.0166 475.8 83.4503C480.75 82.8503 485.7 81.6503 487.65 80.4503C487.432 78.0097 486.662 75.6505 485.4 73.5503C483.15 74.9003 480.6 75.3503 476.1 75.8003Z" fill="#FB242D"/>
<path d="M558 36.8002C558.378 39.3699 557.79 41.9886 556.35 44.1502C561.3 44.4502 566.4 44.1502 568.5 43.2502C568.636 40.8531 568.279 38.4536 567.45 36.2002C565.05 37.1002 562.35 37.1002 558 36.8002Z" fill="#FB242D"/>
<path d="M1.95 82.7002C1.79413 83.1518 1.53757 83.5621 1.19973 83.8999C0.861894 84.2378 0.451634 84.4943 0 84.6502C1.64776 86.7523 3.623 88.5756 5.85 90.0502C6.9006 89.4944 7.78161 88.6652 8.4 87.6502C5.88926 86.5327 3.67892 84.8364 1.95 82.7002Z" fill="#FB242D"/>
<path d="M69.3 115.7C71.7 116.3 73.95 117.8 77.1 122.9C79.143 121.17 80.5215 118.784 81 116.15C78.7691 113.04 75.7721 110.56 72.3 108.95C72.0152 111.454 70.9679 113.811 69.3 115.7Z" fill="#FB242D"/>
<path d="M321.6 110.45C320.4 110.15 319.35 109.4 317.85 106.85C316.774 107.701 316.074 108.94 315.9 110.3C317.03 111.805 318.528 112.993 320.25 113.75C320.364 112.541 320.834 111.393 321.6 110.45Z" fill="#FB242D"/>
<path d="M506.1 233.45C505.589 235.687 505.909 238.032 507 240.05C509.048 238.745 511.495 238.213 513.9 238.55C514.402 236.384 514.454 234.137 514.05 231.95C511.511 232.923 508.819 233.431 506.1 233.45Z" fill="#FB242D"/>
<path d="M423.45 119.3C422.857 120.025 422.43 120.87 422.197 121.777C421.964 122.683 421.931 123.63 422.1 124.55C425.399 124.563 428.645 125.387 431.55 126.95C431.583 125.002 432.33 123.134 433.65 121.7C430.423 120.29 426.967 119.477 423.45 119.3Z" fill="#00D6AD"/>
<path d="M147.6 113.9C147 115.55 147.45 116.9 148.5 119C151.387 117.755 154.507 117.141 157.65 117.2C156.92 115.544 156.813 113.679 157.35 111.95C154.001 111.93 150.683 112.593 147.6 113.9Z" fill="#00D6AD"/>
<path d="M433.05 85.4004C432.69 85.8311 432.447 86.3464 432.342 86.8976C432.237 87.4488 432.274 88.0176 432.45 88.5504C433.404 89.0944 434.513 89.3054 435.6 89.1504C436.08 87.8482 436.976 86.7409 438.15 86.0004C436.428 86.0981 434.702 85.895 433.05 85.4004Z" fill="#00D6AD"/>
<path d="M443.25 10.4004C443.274 9.67662 443.123 8.95778 442.809 8.30493C442.496 7.65208 442.03 7.0845 441.45 6.65039C440.062 6.90695 438.768 7.52821 437.7 8.45039C438.095 10.2353 438.044 12.0902 437.55 13.8504C439.205 12.3378 441.142 11.1655 443.25 10.4004Z" fill="#00D6AD"/>
<path d="M356.7 22.7002C352.867 23.0219 349.114 23.9853 345.6 25.5502C346.578 27.7279 348.134 29.5957 350.1 30.9502C352.05 29.4502 354 29.3002 356.85 29.1502C356.384 28.1427 356.131 27.0503 356.105 25.9408C356.079 24.8312 356.282 23.7282 356.7 22.7002Z" fill="#00D6AD"/>
<path d="M534.3 135.65C536.522 133.242 537.938 130.201 538.35 126.95C536.854 125.17 535.686 123.139 534.9 120.95C533.85 123.05 532.5 123.65 529.2 123.95C531.45 127.1 532.65 130.7 534.3 135.65Z" fill="#00D6AD"/>
<path d="M490.65 40.5501C488.885 39.9817 487.252 39.0635 485.85 37.8501C485.249 38.5326 484.835 39.3597 484.65 40.2501C486.051 41.5467 487.614 42.656 489.3 43.5501C489.3 41.9001 489.6 41.1501 490.65 40.5501Z" fill="#00D6AD"/>
<path d="M547.95 92C547.591 93.5012 546.87 94.8918 545.85 96.05C546.466 96.6358 547.256 97.0045 548.1 97.1C549.042 95.8395 549.847 94.4818 550.5 93.05C549.3 93.05 548.55 92.9 547.95 92Z" fill="#00D6AD"/>
<path d="M165 23.9002C164.457 26.8146 164.716 29.8218 165.75 32.6002C167.515 33.0437 169.381 32.8305 171 32.0002C170 29.2663 169.741 26.3165 170.25 23.4502C168.15 24.5002 166.8 24.8002 165 23.9002Z" fill="#00D6AD"/>
<path d="M444.9 60.0504C444.582 61.7099 444.738 63.4253 445.35 65.0004C446.357 65.2148 447.406 65.1099 448.35 64.7004C447.687 63.1907 447.529 61.5071 447.9 59.9004C447.44 60.1399 446.934 60.2773 446.416 60.3032C445.899 60.3291 445.381 60.2429 444.9 60.0504Z" fill="#00D6AD"/>
<path d="M608.7 38.4501C606.581 37.641 604.825 36.0971 603.75 34.1001C601.5 37.8501 599.55 41.7501 599.4 43.7001C601.16 44.8456 603.163 45.5646 605.25 45.8001C605.55 43.5501 606.6 41.6001 608.7 38.4501Z" fill="#00D6AD"/>
<path d="M419.55 31.25C420.778 29.7806 422.472 28.775 424.35 28.4C422.573 25.9914 420.39 23.9103 417.9 22.25C416.535 23.3608 415.412 24.7391 414.6 26.3C416.576 27.5876 418.262 29.2735 419.55 31.25Z" fill="#00D6AD"/>
<path d="M617.85 9.80039C618.081 9.46016 618.395 9.18492 618.763 9.00106C619.131 8.8172 619.539 8.73089 619.95 8.75039C619.173 6.66536 618.113 4.69697 616.8 2.90039C615.799 3.01619 614.857 3.43485 614.1 4.10039C615.784 5.67631 617.069 7.63002 617.85 9.80039Z" fill="#00D6AD"/>
<path d="M606.9 211.55C607.418 213.522 608.579 215.264 610.2 216.5C611.404 214.777 613.067 213.426 615 212.6C614.601 210.766 613.835 209.031 612.75 207.5C611.081 209.217 609.094 210.592 606.9 211.55Z" fill="#00D6AD"/>
<path d="M53.1 230.6C55.0933 229.957 56.7941 228.629 57.9 226.85C55.9521 225.877 54.3729 224.298 53.4 222.35C51.5646 223.034 49.8447 223.996 48.3 225.2C50.2376 226.669 51.8683 228.504 53.1 230.6Z" fill="#00D6AD"/>
<path d="M63.15 262.7C62.2007 261.693 60.9251 261.056 59.55 260.9C58.5746 265.104 56.7915 269.077 54.3 272.6C55.5556 273.01 56.6551 273.796 57.45 274.85C60.1771 271.243 62.1188 267.104 63.15 262.7Z" fill="#00D6AD"/>
<path d="M365.4 210.8C365.73 210.268 365.941 209.671 366.018 209.049C366.096 208.428 366.038 207.797 365.85 207.2C363.915 206.75 362.048 206.044 360.3 205.1C360.196 205.797 359.94 206.463 359.55 207.05C361.736 207.887 363.727 209.163 365.4 210.8Z" fill="#00D6AD"/>
<path d="M489.45 199.85C490.494 200.173 491.594 200.274 492.68 200.145C493.765 200.015 494.811 199.66 495.75 199.1C495.713 195.423 496.065 191.753 496.8 188.15C495.65 188.456 494.43 188.349 493.35 187.85C492.598 192.008 491.286 196.044 489.45 199.85Z" fill="#00D6AD"/>
<path d="M439.5 207.5C439.809 208.128 440.275 208.666 440.853 209.06C441.432 209.455 442.102 209.692 442.8 209.75C443.873 208.909 444.659 207.756 445.05 206.45C443.927 205.203 443.106 203.715 442.65 202.1C442.048 204.126 440.967 205.978 439.5 207.5Z" fill="#FEB937"/>
<path d="M475.8 8.00029C473.5 6.36123 470.901 5.18911 468.15 4.55029C467.728 6.18095 467.78 7.89819 468.3 9.50029C470.025 9.71984 471.645 10.4513 472.95 11.6003C473.131 10.8277 473.481 10.1045 473.973 9.48229C474.466 8.86006 475.09 8.35406 475.8 8.00029Z" fill="#FEB937"/>
<path d="M59.4 249.5C57.7602 249.07 56.0258 249.175 54.45 249.8C53.981 250.952 53.3219 252.017 52.5 252.95C53.0968 252.949 53.6815 253.118 54.186 253.437C54.6906 253.756 55.0942 254.211 55.35 254.75C56.4457 252.818 57.8092 251.05 59.4 249.5Z" fill="#FEB937"/>
<path d="M79.65 165.5C80.3585 164.296 81.3334 163.27 82.5 162.5C82.3476 162.163 82.1194 161.866 81.8331 161.632C81.5469 161.398 81.2105 161.233 80.85 161.15C79.648 161.918 78.5833 162.881 77.7 164C78.9 164.3 79.35 164.6 79.65 165.5Z" fill="#FEB937"/>
<path d="M630.75 275.6C629.626 276.173 628.405 276.529 627.15 276.65C627.244 277.304 627.502 277.923 627.9 278.45C629.128 278.36 630.338 278.108 631.5 277.7C631.19 277.456 630.956 277.129 630.823 276.758C630.691 276.386 630.665 275.985 630.75 275.6Z" fill="#FEB937"/>
<path d="M163.35 208.4C162.909 207.284 162.774 206.069 162.958 204.883C163.143 203.696 163.64 202.58 164.4 201.65C160.95 201.2 158.7 201.8 154.5 203C153.15 204.95 153.15 206.45 154.05 209C157.65 208.1 160.35 207.65 163.35 208.4Z" fill="#FEB937"/>
<path d="M-1.04999 186.95C-0.445994 187.696 -0.0455916 188.585 0.112146 189.531C0.269884 190.478 0.179568 191.449 -0.149988 192.35C2.47144 191.735 4.92803 190.558 7.05001 188.9C7.28056 188.099 7.30519 187.253 7.12164 186.44C6.93809 185.627 6.5523 184.874 6.00001 184.25C3.91243 185.725 1.48865 186.653 -1.04999 186.95Z" fill="#FEB937"/>
<path d="M649.8 228.05C651.742 226.188 654.31 225.118 657 225.05C654.3 220.7 651 216.65 649.05 215.3C646.825 216.54 644.923 218.288 643.5 220.4C645.9 221.9 647.4 224.15 649.8 228.05Z" fill="#FEB937"/>
<path d="M283.05 148.1C282.543 147.622 282.145 147.038 281.886 146.391C281.627 145.743 281.513 145.047 281.55 144.35C278.094 145.356 274.808 146.873 271.8 148.85C271.883 150.482 272.459 152.051 273.45 153.35C276.083 150.72 279.415 148.898 283.05 148.1Z" fill="#FEB937"/>
<path d="M535.5 207.2C535.801 206.625 536.226 206.125 536.745 205.735C537.264 205.346 537.864 205.078 538.5 204.95C536.71 201.854 534.43 199.068 531.75 196.7C530.229 197.229 528.88 198.162 527.85 199.4C531.006 201.327 533.635 204.007 535.5 207.2Z" fill="#FEB937"/>
<path d="M505.8 142.85C507.107 143.462 508.241 144.39 509.1 145.55C509.7 145.1 510 144.8 510.6 144.8C509.746 143.373 508.495 142.227 507 141.5C506.487 141.835 506.073 142.301 505.8 142.85Z" fill="#FEB937"/>
<path d="M100.35 84.2004C102.103 83.2896 104.088 82.9239 106.05 83.1504C105.893 82.388 105.999 81.5951 106.35 80.9004C104.172 80.5681 101.944 80.8272 99.9 81.6504C99.8136 82.5256 99.9692 83.4077 100.35 84.2004Z" fill="#FEB937"/>
<path d="M216 142.55C213.75 143.3 211.2 143.15 206.1 140.6C205.325 143.1 205.377 145.783 206.25 148.25C209.681 149.598 213.407 150.012 217.05 149.45C215.85 147.2 215.85 145.7 216 142.55Z" fill="#FEB937"/>
<path d="M24.3 151.1C26.5217 151.903 28.9455 151.956 31.2 151.25C30.2138 148.981 30.0029 146.451 30.6 144.05C28.4883 143.263 26.2537 142.857 24 142.85C24.7018 145.545 24.8042 148.361 24.3 151.1Z" fill="#FEB937"/>
<path d="M388.95 1.25C388.497 1.66735 388.141 2.17933 387.907 2.74964C387.674 3.31994 387.569 3.93459 387.6 4.55C391.408 5.26149 395.063 6.63205 398.4 8.6C398.576 7.43557 399.161 6.3719 400.05 5.6C396.696 3.3877 392.914 1.90561 388.95 1.25Z" fill="#FEB937"/>
<path d="M633.6 197C634.829 196.699 635.932 196.016 636.75 195.05C633.928 192.122 631.643 188.72 630 185C629.133 185.817 628.031 186.342 626.85 186.5C628.283 190.463 630.59 194.051 633.6 197Z" fill="#FEB937"/>
<path d="M288 8.75C287.223 9.45596 286.597 10.3114 286.159 11.265C285.721 12.2187 285.48 13.2509 285.45 14.3C288.535 16.0023 291.405 18.0669 294 20.45C294.409 19.3981 295.08 18.4685 295.95 17.75C292.836 15.1946 290.151 12.156 288 8.75Z" fill="#FEB937"/>
<path d="M492 18.2004C491.4 19.4004 491.7 20.4504 492.45 22.1004C494.748 21.2425 497.203 20.8845 499.65 21.0504C499.193 19.7391 499.193 18.3117 499.65 17.0004C497.041 16.7993 494.422 17.2102 492 18.2004Z" fill="#FB242D"/>
<path d="M87.45 208.4C87.7964 209.331 88.4976 210.086 89.4 210.5C90.3793 209.047 91.6578 207.819 93.15 206.9C92.25 206.45 91.95 205.85 91.35 204.5C89.8347 205.565 88.5152 206.885 87.45 208.4Z" fill="#FB242D"/>
<path d="M266.1 76.1001C266.458 76.7514 266.977 77.3002 267.607 77.6941C268.237 78.088 268.958 78.3138 269.7 78.3501C270.834 77.5016 271.631 76.2796 271.95 74.9001C270.693 73.5516 269.814 71.8962 269.4 70.1001C268.753 72.3179 267.627 74.3663 266.1 76.1001Z" fill="#FB242D"/>
<path d="M461.55 95.1502C462.12 95.2288 462.701 95.1749 463.248 94.9928C463.794 94.8107 464.291 94.5053 464.7 94.1002C464.653 92.9723 464.289 91.8805 463.65 90.9502C462.258 91.0533 460.863 90.795 459.6 90.2002C460.492 91.7445 461.149 93.4127 461.55 95.1502Z" fill="#FB242D"/>
<path d="M579.3 11.6001C577.356 14.3146 575.931 17.3662 575.1 20.6001C577.084 21.0225 579.14 20.9711 581.1 20.4501C581.311 18.3976 582.149 16.4599 583.5 14.9001C582.601 14.6913 581.759 14.2875 581.033 13.7172C580.307 13.147 579.716 12.4242 579.3 11.6001Z" fill="#FB242D"/>
<path d="M592.65 249.2C593.968 249.345 595.243 249.753 596.4 250.4C596.393 247.715 596.746 245.041 597.45 242.45C596.533 241.529 595.299 240.992 594 240.95C593.18 243.627 592.726 246.402 592.65 249.2Z" fill="#FB242D"/>
<path d="M640.95 47.75C639.036 49.8227 637.829 52.4483 637.5 55.25C638.831 56.8156 639.895 58.5892 640.65 60.5C641.4 58.7 642.75 58.1 645.45 57.8C643.426 54.7101 641.907 51.3176 640.95 47.75Z" fill="#FB242D"/>
<path d="M357.6 119.6C360.24 120.793 362.631 122.473 364.65 124.55C365.782 123.511 366.567 122.15 366.9 120.65C364.866 118.492 362.544 116.624 360 115.1C359.7 117.5 359.25 118.7 357.6 119.6Z" fill="#FB242D"/>
<path d="M504 57.8004C504.487 57.7722 504.972 57.8843 505.398 58.1236C505.823 58.3629 506.171 58.7193 506.4 59.1504C507.031 57.943 507.39 56.6117 507.45 55.2504C507.195 54.8982 506.855 54.6168 506.461 54.4331C506.068 54.2493 505.633 54.1692 505.2 54.2004C505.144 55.489 504.729 56.7362 504 57.8004Z" fill="#FB242D"/>
<path d="M437.25 71.6C435.891 70.8101 434.291 70.5435 432.75 70.85C433.203 72.4371 433.097 74.1317 432.45 75.65C433.71 76.4779 435.15 76.9922 436.65 77.15C436.486 75.2786 436.69 73.3931 437.25 71.6Z" fill="#FB242D"/>
<path d="M205.95 70.55C206.696 71.9172 207.85 73.0181 209.25 73.7C211.82 69.5825 215.125 65.9725 219 63.05C217.792 62.2806 216.89 61.1134 216.45 59.75C212.231 62.5728 208.653 66.2527 205.95 70.55Z" fill="#FB242D"/>
<path d="M221.85 -6.39981C220.848 -7.18967 219.676 -7.73623 218.426 -7.99651C217.177 -8.25679 215.884 -8.22369 214.65 -7.89981C213.415 -3.86068 211.703 0.0167198 209.55 3.65019C210.899 3.85446 212.182 4.36783 213.3 5.15019C215.492 0.854276 218.381 -3.0486 221.85 -6.39981Z" fill="#FB242D"/>
<path d="M110.85 40.1003C111.424 39.6509 111.895 39.0837 112.232 38.4368C112.568 37.7899 112.762 37.0784 112.8 36.3503C110.827 34.9556 109.016 33.3457 107.4 31.5503C107.15 32.3208 106.613 32.9655 105.9 33.3503C107.878 35.3401 109.547 37.6154 110.85 40.1003Z" fill="#FB242D"/>
<path d="M613.5 118.55C613.8 120.65 615 121.85 617.4 123.35C619.753 120.357 622.72 117.902 626.1 116.15C624.3 114.95 623.55 113.6 622.65 110.75C619.107 112.709 615.995 115.362 613.5 118.55Z" fill="#00D6AD"/>
<path d="M36.45 150.5C36.4217 151.183 36.5731 151.86 36.889 152.466C37.2049 153.071 37.6742 153.583 38.25 153.95C39.5075 153.7 40.6588 153.072 41.55 152.15C41.1722 150.522 41.1722 148.829 41.55 147.2C40.1485 148.704 38.3964 149.838 36.45 150.5Z" fill="#00D6AD"/>
<path d="M648.15 254.9C649.076 253.023 649.635 250.987 649.8 248.9C648.519 248.754 647.222 248.961 646.05 249.5C646.171 250.815 645.854 252.133 645.15 253.25C645.74 253.29 646.315 253.458 646.833 253.743C647.351 254.028 647.801 254.423 648.15 254.9Z" fill="#00D6AD"/>
<path d="M484.2 160.55C487.823 162.385 491.726 163.602 495.75 164.15C496.004 161.686 495.589 159.199 494.55 156.95C492.038 157.005 489.572 156.271 487.5 154.85C487.469 156 487.15 157.124 486.574 158.119C485.998 159.115 485.182 159.95 484.2 160.55Z" fill="#00D6AD"/>
<path d="M195.6 197.45C197.111 199.195 198.236 201.24 198.9 203.45C201.911 200.107 205.398 197.226 209.25 194.9C209.255 193.78 209.031 192.669 208.593 191.638C208.154 190.606 207.51 189.675 206.7 188.9C202.66 191.279 198.931 194.151 195.6 197.45Z" fill="#00D6AD"/>
<path d="M151.2 61.55C151.41 60.32 151.869 59.1459 152.55 58.1C150.105 57.9385 147.688 57.4853 145.35 56.75C144.429 57.5594 143.841 58.6819 143.7 59.9C146.123 60.7538 148.642 61.3079 151.2 61.55Z" fill="#00D6AD"/>
<path d="M157.05 164C155.211 162.552 152.941 161.76 150.6 161.75C149.415 162.916 148.047 163.879 146.55 164.6C148.05 165.2 148.65 166.25 149.1 168.5C151.468 166.549 154.159 165.027 157.05 164Z" fill="#00D6AD"/>
<path d="M428.7 169.55C426.96 167.787 424.698 166.63 422.25 166.25C420.886 167.283 419.367 168.093 417.75 168.65C419.25 169.4 419.7 170.6 419.85 173C422.587 171.366 425.579 170.2 428.7 169.55Z" fill="#00D6AD"/>
<path d="M73.05 28.5503C70.9334 29.5123 68.6238 29.9742 66.3 29.9003C66.2778 31.1111 66.5892 32.3046 67.2 33.3503C69.5828 33.4257 71.9625 33.1219 74.25 32.4503C73.6948 31.9855 73.2861 31.3699 73.0731 30.6778C72.8602 29.9857 72.8521 29.2468 73.05 28.5503Z" fill="#00D6AD"/>
<path d="M273.6 120.95C273.935 119.755 274.495 118.635 275.25 117.65C274.744 117.216 274.114 116.954 273.45 116.9C272.585 117.858 271.922 118.98 271.5 120.2C272.55 120.2 273.15 120.35 273.6 120.95Z" fill="#00D6AD"/>
<path d="M22.5 282.5C23.0423 282.912 23.4569 283.468 23.6958 284.105C23.9348 284.742 23.9882 285.434 23.85 286.1C25.5986 285.311 27.1777 284.19 28.5 282.8C28.5375 282.191 28.4195 281.583 28.1571 281.032C27.8947 280.481 27.4965 280.005 27 279.65C25.8158 281.026 24.2494 282.018 22.5 282.5Z" fill="#00D6AD"/>
<path d="M210.75 93.9502C208.381 94.7381 206.26 96.1347 204.6 98.0002C205.014 99.4969 205.91 100.815 207.15 101.75C208.777 99.8799 210.914 98.5247 213.3 97.8502C212.579 97.4702 211.966 96.9127 211.52 96.2304C211.074 95.548 210.809 94.7633 210.75 93.9502Z" fill="#00D6AD"/>
<path d="M35.85 276.35C35.6125 275.03 35.0449 273.792 34.2 272.75C33.3492 272.822 32.5518 273.194 31.95 273.8C32.8527 274.745 33.4306 275.954 33.6 277.25C33.8615 276.914 34.2077 276.653 34.6031 276.495C34.9985 276.337 35.4289 276.287 35.85 276.35Z" fill="#00D6AD"/>
<path d="M549.15 144.95C551.4 144.35 553.8 144.65 558.75 147.35C559.502 144.907 559.502 142.294 558.75 139.85C555.446 138.422 551.833 137.854 548.25 138.2C549.25 140.3 549.565 142.662 549.15 144.95Z" fill="#00D6AD"/>
<path d="M44.7 195.65C44.4763 196.819 44.6341 198.028 45.15 199.1C46.2299 198.448 47.4996 198.184 48.75 198.35C48.9764 197.262 48.9764 196.139 48.75 195.05C47.4465 195.49 46.075 195.693 44.7 195.65Z" fill="#00D6AD"/>
<path d="M438.6 46.4002C440.518 44.7778 441.839 42.56 442.35 40.1002C439.705 39.9023 437.212 38.7883 435.3 36.9502C433.495 38.4925 432.017 40.3793 430.95 42.5002C433.734 43.2789 436.335 44.6047 438.6 46.4002Z" fill="#00D6AD"/>
<path d="M228.45 34.5501C228.105 33.1425 227.25 31.9131 226.05 31.1001C223.042 34.3046 219.487 36.9461 215.55 38.9001C216.481 39.8258 217.064 41.0444 217.2 42.3501C221.443 40.5459 225.272 37.8913 228.45 34.5501Z" fill="#00D6AD"/>
<path d="M318.75 78.5004C319.768 77.8411 320.622 76.9577 321.246 75.9178C321.87 74.8778 322.247 73.7088 322.35 72.5004C319.055 70.2033 316.079 67.4796 313.5 64.4004C312.932 65.6096 312.052 66.6453 310.95 67.4004C314.113 70.6713 316.744 74.4165 318.75 78.5004Z" fill="#00D6AD"/>
<path d="M545.449 212.023L523.49 432.029L523.967 432.077L545.927 212.07L545.449 212.023Z" fill="#FB242D"/>
<path d="M547.35 210.5C547.948 211.691 548.402 212.95 548.7 214.25C547.769 214.486 546.801 214.537 545.85 214.4C543.9 214.1 543.3 213.8 543.3 213.65C543.836 212.454 544.543 211.342 545.4 210.35C538.05 207.8 512.4 186.5 515.7 153.65C517.95 130.85 535.95 113.9 555.9 115.85C575.85 117.8 589.95 138.05 587.7 160.85C584.4 194.45 555 209.6 547.35 210.5Z" fill="#FB242D"/>
<path d="M569.55 127.55C569.55 127.55 583.35 139.4 581.55 158.15C579.75 176.9 569.85 188.15 562.05 196.55C562.05 196.55 585.15 163.55 569.55 127.55Z" fill="white"/>
<path d="M586.05 277.55C586.416 278.819 586.617 280.13 586.65 281.45C585.728 281.5 584.806 281.346 583.95 281C583.013 280.82 582.136 280.407 581.4 279.8C582.233 278.74 583.19 277.783 584.25 276.95C577.5 273.05 556.8 246.95 566.55 215.45C573.45 193.55 594.6 180.65 613.65 186.65C632.7 192.65 642.6 215.15 635.7 237.05C625.5 269.3 593.7 278.3 586.05 277.55Z" fill="#FEB937"/>
<path d="M624.6 200.75C624.6 200.75 635.85 215.3 630.15 233.15C624.45 251 612.6 260.15 603.3 266.75C603.3 266.75 632.7 239.15 624.6 200.75Z" fill="white"/>
<path d="M502.8 287C503.668 288.015 504.423 289.121 505.05 290.3C504.199 290.702 503.286 290.956 502.35 291.05C501.463 291.236 500.552 291.286 499.65 291.2C499.913 289.91 500.315 288.653 500.85 287.45C493.05 286.85 462.9 272.75 457.65 240.2C453.9 217.55 466.95 196.55 486.75 193.4C506.55 190.25 525.45 206 529.05 228.65C534.45 261.95 510 284.3 502.8 287Z" fill="#00D6AD"/>
<path d="M502.95 201.2C502.95 201.2 519.45 209.15 522.45 227.6C525.45 246.05 518.7 259.55 513.3 269.75C513.3 269.75 527.25 231.95 502.95 201.2Z" fill="white"/>
<path d="M114.409 212.504L113.961 212.549L135.917 432.511L136.364 432.466L114.409 212.504Z" fill="#FB242D"/>
<path d="M112.95 210.5C112.351 211.691 111.898 212.95 111.6 214.25C112.531 214.486 113.499 214.537 114.45 214.4C116.4 214.1 117 213.8 117 213.65C116.408 212.485 115.705 211.38 114.9 210.35C122.25 207.8 147.9 186.5 144.6 153.65C142.35 130.85 124.35 113.9 104.4 115.85C84.45 117.8 70.35 138.05 72.6 160.85C75.9 194.45 105.3 209.6 112.95 210.5Z" fill="#FB242D"/>
<path d="M90.75 127.55C90.75 127.55 76.95 139.4 78.75 158.15C80.55 176.9 90.45 188.15 98.25 196.55C98.25 196.55 75.15 163.55 90.75 127.55Z" fill="white"/>
<path d="M76.0548 279.17L75.6254 279.305L141.73 490.244L142.159 490.11L76.0548 279.17Z" fill="#FEB937"/>
<path d="M74.25 277.55C73.8841 278.819 73.6825 280.13 73.65 281.45C74.5721 281.5 75.4939 281.346 76.35 281C77.287 280.82 78.1638 280.407 78.9 279.8C78.0667 278.74 77.11 277.783 76.05 276.95C82.8 273.05 103.5 246.95 93.6 215.45C86.85 193.55 65.7 180.65 46.65 186.65C27.6 192.65 17.7 215.15 24.6 237.05C34.65 269.3 66.6 278.3 74.25 277.55Z" fill="#FEB937"/>
<path d="M35.55 200.75C35.55 200.75 24.45 215.3 30.15 233.15C35.85 251 47.7 260.15 57 266.75C57 266.75 27.6 239.15 35.55 200.75Z" fill="white"/>
<path d="M157.5 287C156.632 288.015 155.877 289.121 155.25 290.3C156.086 290.74 157.007 290.996 157.95 291.05C158.838 291.233 159.748 291.284 160.65 291.2C160.387 289.91 159.985 288.653 159.45 287.45C167.1 286.85 197.4 272.75 202.65 240.2C206.4 217.55 193.35 196.55 173.55 193.4C153.75 190.25 134.85 206 131.25 228.65C125.85 261.95 150.3 284.3 157.5 287Z" fill="#00D6AD"/>
<path d="M157.35 201.2C157.35 201.2 140.85 209.15 137.85 227.6C134.85 246.05 141.6 259.55 147 269.75C147 269.75 133.05 231.95 157.35 201.2Z" fill="white"/>
<path d="M281.529 107L270.362 107.536L270.273 97.2178H265.136L264.823 107H254.818L255.666 75.5987L266.297 76.09L265.627 92.1257H270.585L270.63 74.884L280.814 75.152L281.529 107ZM311.813 105.079L300.736 106.509L299.396 101.461H294.304L293.187 106.509L281.797 105.392L290.686 75.6434L303.103 75.018L311.813 105.079ZM298.592 94.6271L296.894 86.8549L295.242 94.6271H298.592ZM338.301 85.5149C338.301 86.9591 338.085 88.2396 337.654 89.3563C337.222 90.473 336.626 91.4482 335.867 92.282C335.122 93.1158 334.244 93.8231 333.232 94.4037C332.219 94.9844 331.132 95.4609 329.971 95.8331C328.824 96.1904 327.633 96.4585 326.397 96.6371C325.162 96.8009 323.948 96.8902 322.757 96.9051V107.313H312.349C312.349 103.903 312.357 100.508 312.372 97.1285C312.387 93.7486 312.409 90.339 312.439 86.8996C312.469 85.0831 312.476 83.2666 312.461 81.4501C312.446 79.6337 312.483 77.8023 312.573 75.956C314.479 75.3902 316.384 74.9659 318.29 74.683C320.196 74.4001 322.161 74.2587 324.186 74.2587C325.333 74.2587 326.479 74.3554 327.626 74.549C328.772 74.7277 329.867 75.018 330.909 75.42C331.966 75.822 332.941 76.3283 333.835 76.9387C334.743 77.5343 335.524 78.249 336.18 79.0828C336.835 79.9166 337.348 80.8695 337.721 81.9415C338.108 82.9986 338.301 84.1898 338.301 85.5149ZM328.385 86.2742C328.385 85.3064 328.087 84.5545 327.492 84.0185C326.911 83.4676 326.152 83.1922 325.214 83.1922C324.901 83.1922 324.573 83.222 324.231 83.2815C323.903 83.3262 323.591 83.3857 323.293 83.4602L323.025 89.9817C323.233 90.0114 323.434 90.0263 323.628 90.0263C323.822 90.0263 324.023 90.0263 324.231 90.0263C324.767 90.0263 325.281 89.937 325.772 89.7583C326.278 89.5796 326.725 89.3265 327.112 88.999C327.499 88.6565 327.804 88.262 328.028 87.8153C328.266 87.3537 328.385 86.84 328.385 86.2742ZM365.549 85.5149C365.549 86.9591 365.333 88.2396 364.901 89.3563C364.469 90.473 363.873 91.4482 363.114 92.282C362.37 93.1158 361.491 93.8231 360.479 94.4037C359.466 94.9844 358.379 95.4609 357.218 95.8331C356.072 96.1904 354.88 96.4585 353.645 96.6371C352.409 96.8009 351.195 96.8902 350.004 96.9051V107.313H339.597C339.597 103.903 339.604 100.508 339.619 97.1285C339.634 93.7486 339.656 90.339 339.686 86.8996C339.716 85.0831 339.723 83.2666 339.708 81.4501C339.693 79.6337 339.731 77.8023 339.82 75.956C341.726 75.3902 343.632 74.9659 345.537 74.683C347.443 74.4001 349.409 74.2587 351.434 74.2587C352.58 74.2587 353.726 74.3554 354.873 74.549C356.019 74.7277 357.114 75.018 358.156 75.42C359.213 75.822 360.188 76.3283 361.082 76.9387C361.99 77.5343 362.772 78.249 363.427 79.0828C364.082 79.9166 364.596 80.8695 364.968 81.9415C365.355 82.9986 365.549 84.1898 365.549 85.5149ZM355.632 86.2742C355.632 85.3064 355.335 84.5545 354.739 84.0185C354.158 83.4676 353.399 83.1922 352.461 83.1922C352.148 83.1922 351.821 83.222 351.478 83.2815C351.151 83.3262 350.838 83.3857 350.54 83.4602L350.272 89.9817C350.481 90.0114 350.682 90.0263 350.875 90.0263C351.069 90.0263 351.27 90.0263 351.478 90.0263C352.014 90.0263 352.528 89.937 353.019 89.7583C353.525 89.5796 353.972 89.3265 354.359 88.999C354.746 88.6565 355.052 88.262 355.275 87.8153C355.513 87.3537 355.632 86.84 355.632 86.2742ZM394.85 76.76L382.567 93.9124L381.986 107.893H371.4L371.668 94.0017L365.281 77.4301L376.671 76.0007L378.457 85.6489L384.13 76.0007L394.85 76.76Z" fill="#3E3AFF"/>
<path d="M247.136 136.419C247.136 137.655 246.905 138.72 246.443 139.613C245.997 140.506 245.394 141.266 244.634 141.891C243.875 142.516 242.996 143.03 241.999 143.432C241.016 143.819 239.989 144.124 238.917 144.348C237.845 144.571 236.765 144.72 235.678 144.794C234.606 144.869 233.601 144.906 232.663 144.906C231.74 144.906 230.78 144.869 229.782 144.794C228.8 144.735 227.817 144.623 226.834 144.459C225.851 144.296 224.884 144.08 223.931 143.812C222.978 143.529 222.077 143.179 221.228 142.762L221.184 113.996C222.017 113.654 222.903 113.348 223.841 113.08C224.779 112.798 225.732 112.567 226.7 112.388C227.683 112.195 228.658 112.053 229.626 111.964C230.594 111.86 231.532 111.807 232.44 111.807C233.497 111.807 234.562 111.874 235.634 112.008C236.721 112.142 237.763 112.366 238.76 112.678C239.758 112.991 240.689 113.401 241.552 113.907C242.416 114.398 243.168 115.009 243.808 115.738C244.463 116.468 244.969 117.316 245.327 118.284C245.699 119.252 245.885 120.369 245.885 121.634C245.885 122.468 245.766 123.25 245.528 123.979C245.289 124.709 244.947 125.364 244.5 125.945C244.053 126.525 243.51 127.024 242.87 127.441C242.23 127.843 241.507 128.141 240.703 128.334C241.671 128.588 242.55 128.96 243.339 129.451C244.143 129.942 244.82 130.538 245.371 131.238C245.937 131.938 246.369 132.727 246.667 133.605C246.979 134.484 247.136 135.422 247.136 136.419ZM235.79 123.689C235.79 123.257 235.701 122.892 235.522 122.595C235.343 122.282 235.12 122.029 234.852 121.835C234.599 121.642 234.316 121.5 234.003 121.411C233.706 121.322 233.438 121.277 233.199 121.277C232.901 121.277 232.611 121.322 232.328 121.411C232.045 121.5 231.77 121.605 231.502 121.724L231.368 126.682C231.71 126.682 232.135 126.652 232.641 126.592C233.147 126.533 233.631 126.406 234.093 126.213C234.569 126.004 234.971 125.707 235.299 125.319C235.626 124.917 235.79 124.374 235.79 123.689ZM232.619 130.97C232.187 130.97 231.77 131.015 231.368 131.104L231.279 136.196C231.502 136.241 231.718 136.285 231.926 136.33C232.15 136.36 232.365 136.375 232.574 136.375C232.887 136.375 233.229 136.345 233.601 136.285C233.974 136.211 234.323 136.077 234.651 135.883C234.979 135.675 235.247 135.399 235.455 135.057C235.678 134.714 235.79 134.26 235.79 133.695C235.79 133.129 235.678 132.667 235.455 132.31C235.247 131.953 234.986 131.677 234.673 131.484C234.361 131.275 234.018 131.141 233.646 131.082C233.274 131.007 232.931 130.97 232.619 130.97ZM260.402 112.924L257.945 143.343L248.52 143.834V113.549L260.402 112.924ZM288.14 122.84C288.14 124.002 288.036 125.059 287.828 126.012C287.634 126.95 287.321 127.813 286.89 128.602C286.458 129.392 285.9 130.121 285.215 130.791C284.53 131.461 283.703 132.101 282.736 132.712L288.051 142.181L278.001 144.147L274.561 134.633L271.792 134.722L271.39 144.013H261.787C261.861 140.618 261.928 137.238 261.988 133.873C262.062 130.508 262.144 127.128 262.233 123.734C262.263 122.021 262.293 120.324 262.323 118.642C262.352 116.959 262.412 115.262 262.501 113.549C263.543 113.162 264.571 112.842 265.583 112.589C266.596 112.336 267.608 112.142 268.621 112.008C269.648 111.86 270.683 111.763 271.725 111.718C272.782 111.659 273.862 111.629 274.963 111.629C276.661 111.629 278.299 111.867 279.877 112.343C281.47 112.805 282.877 113.505 284.098 114.443C285.319 115.381 286.294 116.55 287.024 117.949C287.768 119.349 288.14 120.979 288.14 122.84ZM278.135 123.555C278.135 122.93 278.046 122.356 277.867 121.835C277.703 121.314 277.45 120.868 277.108 120.495C276.78 120.108 276.363 119.81 275.857 119.602C275.365 119.379 274.785 119.267 274.115 119.267C273.817 119.267 273.527 119.289 273.244 119.334C272.961 119.364 272.685 119.416 272.417 119.49L272.06 127.798H272.596C273.236 127.798 273.884 127.717 274.539 127.553C275.209 127.389 275.805 127.136 276.326 126.793C276.862 126.451 277.294 126.012 277.621 125.476C277.964 124.94 278.135 124.299 278.135 123.555ZM313.311 112.433L313.087 121.902L306.432 122.17L304.734 143.343L295.31 143.834L295.354 122.662L288.699 123.019L288.967 112.477L313.311 112.433ZM341.049 144.37L329.882 144.906L329.793 134.588H324.656L324.343 144.37H314.338L315.187 112.969L325.818 113.46L325.147 129.496H330.106L330.15 112.254L340.334 112.522L341.049 144.37ZM368.475 126.637C368.475 128.722 368.207 130.605 367.671 132.288C367.135 133.955 366.383 135.444 365.415 136.754C364.462 138.05 363.323 139.166 361.998 140.104C360.673 141.042 359.221 141.817 357.643 142.427C356.065 143.023 354.382 143.469 352.596 143.767C350.824 144.05 349 144.191 347.124 144.191C346.424 144.191 345.739 144.177 345.069 144.147C344.399 144.102 343.714 144.043 343.015 143.968L343.64 113.996C345.278 113.475 346.96 113.11 348.687 112.902C350.429 112.678 352.156 112.567 353.869 112.567C355.998 112.567 357.956 112.887 359.743 113.527C361.529 114.167 363.07 115.091 364.366 116.297C365.661 117.503 366.666 118.977 367.381 120.719C368.11 122.461 368.475 124.433 368.475 126.637ZM359.318 128.066C359.333 127.262 359.244 126.488 359.05 125.744C358.872 124.999 358.566 124.344 358.134 123.778C357.718 123.198 357.182 122.736 356.526 122.394C355.871 122.036 355.09 121.843 354.181 121.813L353.288 135.66C354.181 135.526 354.993 135.236 355.722 134.789C356.452 134.327 357.077 133.769 357.598 133.114C358.134 132.444 358.544 131.707 358.827 130.903C359.125 130.084 359.288 129.243 359.318 128.379V128.066ZM396.884 142.449L385.806 143.879L384.466 138.831H379.374L378.257 143.879L366.867 142.762L375.756 113.013L388.173 112.388L396.884 142.449ZM383.662 131.997L381.965 124.225L380.312 131.997H383.662ZM423.282 114.13L410.999 131.283L410.418 145.263H399.832L400.1 131.372L393.712 114.8L405.102 113.371L406.889 123.019L412.562 113.371L423.282 114.13Z" fill="#F54F8C"/>
</g>
<defs>
<linearGradient id="paint0_linear_733_4948" x1="290.5" y1="-28.1118" x2="457.38" y2="304.365" gradientUnits="userSpaceOnUse">
<stop stop-color="white"/>
<stop offset="0.0001" stop-color="white"/>
<stop offset="0.4" stop-color="#EBEEFF"/>
<stop offset="0.6" stop-color="#F3F4FF"/>
<stop offset="0.681" stop-color="white"/>
<stop offset="1" stop-color="#E8ECFF"/>
</linearGradient>
<linearGradient id="paint1_linear_733_4948" x1="31.1522" y1="90.6768" x2="21.4607" y2="41.2785" gradientUnits="userSpaceOnUse">
<stop offset="0.37" stop-color="white"/>
<stop offset="0.45" stop-color="#F9F9F9"/>
<stop offset="0.56" stop-color="#E9E9E9"/>
<stop offset="0.68" stop-color="#CFCFCF"/>
<stop offset="0.79" stop-color="#B3B3B3"/>
<stop offset="1" stop-color="white"/>
</linearGradient>
<linearGradient id="paint2_linear_733_4948" x1="232.871" y1="42.7093" x2="222.706" y2="-9.1029" gradientUnits="userSpaceOnUse">
<stop offset="0.37" stop-color="white"/>
<stop offset="0.45" stop-color="#F9F9F9"/>
<stop offset="0.56" stop-color="#E9E9E9"/>
<stop offset="0.68" stop-color="#CFCFCF"/>
<stop offset="0.79" stop-color="#B3B3B3"/>
<stop offset="1" stop-color="white"/>
</linearGradient>
<linearGradient id="paint3_linear_733_4948" x1="279.975" y1="20.8566" x2="269.429" y2="-32.8986" gradientUnits="userSpaceOnUse">
<stop offset="0.37" stop-color="white"/>
<stop offset="0.45" stop-color="#F9F9F9"/>
<stop offset="0.56" stop-color="#E9E9E9"/>
<stop offset="0.68" stop-color="#CFCFCF"/>
<stop offset="0.79" stop-color="#B3B3B3"/>
<stop offset="1" stop-color="white"/>
</linearGradient>
<linearGradient id="paint4_linear_733_4948" x1="82.312" y1="83.5748" x2="73.1258" y2="36.7524" gradientUnits="userSpaceOnUse">
<stop offset="0.37" stop-color="white"/>
<stop offset="0.45" stop-color="#F9F9F9"/>
<stop offset="0.56" stop-color="#E9E9E9"/>
<stop offset="0.68" stop-color="#CFCFCF"/>
<stop offset="0.79" stop-color="#B3B3B3"/>
<stop offset="1" stop-color="white"/>
</linearGradient>
<linearGradient id="paint5_linear_733_4948" x1="134.245" y1="73.3246" x2="125.016" y2="26.2815" gradientUnits="userSpaceOnUse">
<stop offset="0.37" stop-color="white"/>
<stop offset="0.45" stop-color="#F9F9F9"/>
<stop offset="0.56" stop-color="#E9E9E9"/>
<stop offset="0.68" stop-color="#CFCFCF"/>
<stop offset="0.79" stop-color="#B3B3B3"/>
<stop offset="1" stop-color="white"/>
</linearGradient>
<linearGradient id="paint6_linear_733_4948" x1="184.197" y1="60.2224" x2="174.468" y2="10.6327" gradientUnits="userSpaceOnUse">
<stop offset="0.37" stop-color="white"/>
<stop offset="0.45" stop-color="#F9F9F9"/>
<stop offset="0.56" stop-color="#E9E9E9"/>
<stop offset="0.68" stop-color="#CFCFCF"/>
<stop offset="0.79" stop-color="#B3B3B3"/>
<stop offset="1" stop-color="white"/>
</linearGradient>
<linearGradient id="paint7_linear_733_4948" x1="31.1522" y1="90.6768" x2="21.4607" y2="41.2785" gradientUnits="userSpaceOnUse">
<stop offset="0.37" stop-color="white"/>
<stop offset="0.45" stop-color="#F9F9F9"/>
<stop offset="0.56" stop-color="#E9E9E9"/>
<stop offset="0.68" stop-color="#CFCFCF"/>
<stop offset="0.79" stop-color="#B3B3B3"/>
<stop offset="1" stop-color="white"/>
</linearGradient>
<linearGradient id="paint8_linear_733_4948" x1="232.871" y1="42.7093" x2="222.706" y2="-9.1029" gradientUnits="userSpaceOnUse">
<stop offset="0.37" stop-color="white"/>
<stop offset="0.45" stop-color="#F9F9F9"/>
<stop offset="0.56" stop-color="#E9E9E9"/>
<stop offset="0.68" stop-color="#CFCFCF"/>
<stop offset="0.79" stop-color="#B3B3B3"/>
<stop offset="1" stop-color="white"/>
</linearGradient>
<linearGradient id="paint9_linear_733_4948" x1="279.975" y1="20.8566" x2="269.429" y2="-32.8986" gradientUnits="userSpaceOnUse">
<stop offset="0.37" stop-color="white"/>
<stop offset="0.45" stop-color="#F9F9F9"/>
<stop offset="0.56" stop-color="#E9E9E9"/>
<stop offset="0.68" stop-color="#CFCFCF"/>
<stop offset="0.79" stop-color="#B3B3B3"/>
<stop offset="1" stop-color="white"/>
</linearGradient>
<linearGradient id="paint10_linear_733_4948" x1="82.312" y1="83.5748" x2="73.1258" y2="36.7524" gradientUnits="userSpaceOnUse">
<stop offset="0.37" stop-color="white"/>
<stop offset="0.45" stop-color="#F9F9F9"/>
<stop offset="0.56" stop-color="#E9E9E9"/>
<stop offset="0.68" stop-color="#CFCFCF"/>
<stop offset="0.79" stop-color="#B3B3B3"/>
<stop offset="1" stop-color="white"/>
</linearGradient>
<linearGradient id="paint11_linear_733_4948" x1="134.245" y1="73.3246" x2="125.016" y2="26.2815" gradientUnits="userSpaceOnUse">
<stop offset="0.37" stop-color="white"/>
<stop offset="0.45" stop-color="#F9F9F9"/>
<stop offset="0.56" stop-color="#E9E9E9"/>
<stop offset="0.68" stop-color="#CFCFCF"/>
<stop offset="0.79" stop-color="#B3B3B3"/>
<stop offset="1" stop-color="white"/>
</linearGradient>
<linearGradient id="paint12_linear_733_4948" x1="184.197" y1="60.2224" x2="174.468" y2="10.6327" gradientUnits="userSpaceOnUse">
<stop offset="0.37" stop-color="white"/>
<stop offset="0.45" stop-color="#F9F9F9"/>
<stop offset="0.56" stop-color="#E9E9E9"/>
<stop offset="0.68" stop-color="#CFCFCF"/>
<stop offset="0.79" stop-color="#B3B3B3"/>
<stop offset="1" stop-color="white"/>
</linearGradient>
<linearGradient id="paint13_linear_733_4948" x1="346.525" y1="15.7255" x2="364.007" y2="-36.173" gradientUnits="userSpaceOnUse">
<stop offset="0.37" stop-color="white"/>
<stop offset="0.45" stop-color="#F9F9F9"/>
<stop offset="0.56" stop-color="#E9E9E9"/>
<stop offset="0.68" stop-color="#CFCFCF"/>
<stop offset="0.79" stop-color="#B3B3B3"/>
<stop offset="1" stop-color="white"/>
</linearGradient>
<linearGradient id="paint14_linear_733_4948" x1="390.655" y1="43.3155" x2="407.503" y2="-6.70201" gradientUnits="userSpaceOnUse">
<stop offset="0.37" stop-color="white"/>
<stop offset="0.45" stop-color="#F9F9F9"/>
<stop offset="0.56" stop-color="#E9E9E9"/>
<stop offset="0.68" stop-color="#CFCFCF"/>
<stop offset="0.79" stop-color="#B3B3B3"/>
<stop offset="1" stop-color="white"/>
</linearGradient>
<linearGradient id="paint15_linear_733_4948" x1="436.871" y1="66.7852" x2="452.985" y2="18.9479" gradientUnits="userSpaceOnUse">
<stop offset="0.37" stop-color="white"/>
<stop offset="0.45" stop-color="#F9F9F9"/>
<stop offset="0.56" stop-color="#E9E9E9"/>
<stop offset="0.68" stop-color="#CFCFCF"/>
<stop offset="0.79" stop-color="#B3B3B3"/>
<stop offset="1" stop-color="white"/>
</linearGradient>
<linearGradient id="paint16_linear_733_4948" x1="636.323" y1="125.273" x2="653.224" y2="75.0991" gradientUnits="userSpaceOnUse">
<stop offset="0.37" stop-color="white"/>
<stop offset="0.45" stop-color="#F9F9F9"/>
<stop offset="0.56" stop-color="#E9E9E9"/>
<stop offset="0.68" stop-color="#CFCFCF"/>
<stop offset="0.79" stop-color="#B3B3B3"/>
<stop offset="1" stop-color="white"/>
</linearGradient>
<linearGradient id="paint17_linear_733_4948" x1="484.941" y1="86.0236" x2="500.21" y2="40.6943" gradientUnits="userSpaceOnUse">
<stop offset="0.37" stop-color="white"/>
<stop offset="0.45" stop-color="#F9F9F9"/>
<stop offset="0.56" stop-color="#E9E9E9"/>
<stop offset="0.68" stop-color="#CFCFCF"/>
<stop offset="0.79" stop-color="#B3B3B3"/>
<stop offset="1" stop-color="white"/>
</linearGradient>
<linearGradient id="paint18_linear_733_4948" x1="535.249" y1="102.905" x2="550.585" y2="57.3767" gradientUnits="userSpaceOnUse">
<stop offset="0.37" stop-color="white"/>
<stop offset="0.45" stop-color="#F9F9F9"/>
<stop offset="0.56" stop-color="#E9E9E9"/>
<stop offset="0.68" stop-color="#CFCFCF"/>
<stop offset="0.79" stop-color="#B3B3B3"/>
<stop offset="1" stop-color="white"/>
</linearGradient>
<linearGradient id="paint19_linear_733_4948" x1="585.244" y1="116.335" x2="601.415" y2="68.3266" gradientUnits="userSpaceOnUse">
<stop offset="0.37" stop-color="white"/>
<stop offset="0.45" stop-color="#F9F9F9"/>
<stop offset="0.56" stop-color="#E9E9E9"/>
<stop offset="0.68" stop-color="#CFCFCF"/>
<stop offset="0.79" stop-color="#B3B3B3"/>
<stop offset="1" stop-color="white"/>
</linearGradient>
<linearGradient id="paint20_linear_733_4948" x1="346.525" y1="15.7255" x2="364.007" y2="-36.173" gradientUnits="userSpaceOnUse">
<stop offset="0.37" stop-color="white"/>
<stop offset="0.45" stop-color="#F9F9F9"/>
<stop offset="0.56" stop-color="#E9E9E9"/>
<stop offset="0.68" stop-color="#CFCFCF"/>
<stop offset="0.79" stop-color="#B3B3B3"/>
<stop offset="1" stop-color="white"/>
</linearGradient>
<linearGradient id="paint21_linear_733_4948" x1="390.655" y1="43.3155" x2="407.503" y2="-6.70201" gradientUnits="userSpaceOnUse">
<stop offset="0.37" stop-color="white"/>
<stop offset="0.45" stop-color="#F9F9F9"/>
<stop offset="0.56" stop-color="#E9E9E9"/>
<stop offset="0.68" stop-color="#CFCFCF"/>
<stop offset="0.79" stop-color="#B3B3B3"/>
<stop offset="1" stop-color="white"/>
</linearGradient>
<linearGradient id="paint22_linear_733_4948" x1="436.871" y1="66.7852" x2="452.985" y2="18.9479" gradientUnits="userSpaceOnUse">
<stop offset="0.37" stop-color="white"/>
<stop offset="0.45" stop-color="#F9F9F9"/>
<stop offset="0.56" stop-color="#E9E9E9"/>
<stop offset="0.68" stop-color="#CFCFCF"/>
<stop offset="0.79" stop-color="#B3B3B3"/>
<stop offset="1" stop-color="white"/>
</linearGradient>
<linearGradient id="paint23_linear_733_4948" x1="636.323" y1="125.273" x2="653.224" y2="75.0991" gradientUnits="userSpaceOnUse">
<stop offset="0.37" stop-color="white"/>
<stop offset="0.45" stop-color="#F9F9F9"/>
<stop offset="0.56" stop-color="#E9E9E9"/>
<stop offset="0.68" stop-color="#CFCFCF"/>
<stop offset="0.79" stop-color="#B3B3B3"/>
<stop offset="1" stop-color="white"/>
</linearGradient>
<linearGradient id="paint24_linear_733_4948" x1="484.941" y1="86.0236" x2="500.21" y2="40.6943" gradientUnits="userSpaceOnUse">
<stop offset="0.37" stop-color="white"/>
<stop offset="0.45" stop-color="#F9F9F9"/>
<stop offset="0.56" stop-color="#E9E9E9"/>
<stop offset="0.68" stop-color="#CFCFCF"/>
<stop offset="0.79" stop-color="#B3B3B3"/>
<stop offset="1" stop-color="white"/>
</linearGradient>
<linearGradient id="paint25_linear_733_4948" x1="535.249" y1="102.905" x2="550.585" y2="57.3767" gradientUnits="userSpaceOnUse">
<stop offset="0.37" stop-color="white"/>
<stop offset="0.45" stop-color="#F9F9F9"/>
<stop offset="0.56" stop-color="#E9E9E9"/>
<stop offset="0.68" stop-color="#CFCFCF"/>
<stop offset="0.79" stop-color="#B3B3B3"/>
<stop offset="1" stop-color="white"/>
</linearGradient>
<linearGradient id="paint26_linear_733_4948" x1="585.244" y1="116.335" x2="601.415" y2="68.3266" gradientUnits="userSpaceOnUse">
<stop offset="0.37" stop-color="white"/>
<stop offset="0.45" stop-color="#F9F9F9"/>
<stop offset="0.56" stop-color="#E9E9E9"/>
<stop offset="0.68" stop-color="#CFCFCF"/>
<stop offset="0.79" stop-color="#B3B3B3"/>
<stop offset="1" stop-color="white"/>
</linearGradient>
<clipPath id="clip0_733_4948">
<rect width="648" height="281" fill="white"/>
</clipPath>
</defs>
</svg>
