<svg width="45" height="45" viewBox="0 0 45 45" fill="none" xmlns="http://www.w3.org/2000/svg">
<circle cx="22.5" cy="22.5" r="22.25" fill="#FFF6DF" stroke="#FF9600" stroke-width="0.5"/>
<path d="M16.097 35.7012L19.9159 16.3894C20.0401 15.7891 20.3195 15.3389 20.7542 15.0388C21.1889 14.7387 21.6442 14.5886 22.1203 14.5886C22.5964 14.5886 23.0362 14.6921 23.4398 14.8991C23.8435 15.1061 24.1695 15.4166 24.4179 15.8305L25.6598 17.8176C26.0323 18.4179 26.5136 18.9612 27.1035 19.4476C27.6934 19.934 28.3713 20.2911 29.1371 20.5188V18.3144H31V35.7012H29.1371V23.0957C28.1436 22.868 27.2225 22.5058 26.3739 22.0091C25.5252 21.5123 24.7904 20.9017 24.1695 20.1772L23.4243 23.903L26.0323 26.3868V35.7012H23.5485V28.2497L20.9405 25.7658L18.705 35.7012H16.097ZM16.6248 23.4373L13.9858 22.9405C13.6546 22.8784 13.3959 22.7076 13.2096 22.4282C13.0233 22.1488 12.9612 21.8331 13.0233 21.4812L13.9547 16.6067C14.0789 15.9444 14.4308 15.4217 15.0103 15.0388C15.5899 14.6559 16.2109 14.5265 16.8732 14.6507L18.3014 14.9301L16.6248 23.4373ZM24.1695 13.9677C23.4864 13.9677 22.9017 13.7245 22.4153 13.238C21.9288 12.7516 21.6856 12.1669 21.6856 11.4838C21.6856 10.8008 21.9288 10.216 22.4153 9.72962C22.9017 9.24321 23.4864 9 24.1695 9C24.8525 9 25.4373 9.24321 25.9237 9.72962C26.4101 10.216 26.6533 10.8008 26.6533 11.4838C26.6533 12.1669 26.4101 12.7516 25.9237 13.238C25.4373 13.7245 24.8525 13.9677 24.1695 13.9677Z" fill="#FF9600"/>
</svg>
