<svg width="16" height="21" viewBox="0 0 16 21" fill="none" xmlns="http://www.w3.org/2000/svg">
<path d="M16 5.53846L11.6923 4.30769L10.4615 0H1.84615C0.826544 0 0 0.826544 0 1.84615V19.159C0 20.1786 0.826544 21.0051 1.84615 21.0051H14.1538C15.1735 21.0051 16 20.1786 16 19.159V5.53846Z" fill="#4086F4"/>
<path d="M16 5.53846V19.159C16 20.1786 15.1735 21.0051 14.1538 21.0051H8V0H10.4615L11.6923 4.30769L16 5.53846Z" fill="#4175DF"/>
<path d="M15.9999 5.53846H11.6922C11.0153 5.53846 10.4614 4.98462 10.4614 4.30769V0C10.6214 0 10.7814 0.0615385 10.8922 0.184656L15.8152 5.10773C15.9383 5.21846 15.9999 5.37846 15.9999 5.53846Z" fill="#80AEF8"/>
<path d="M11.6924 9.88702H4.30777C3.96762 9.88702 3.69238 9.61178 3.69238 9.27163C3.69238 8.93149 3.96762 8.65625 4.30777 8.65625H11.6924C12.0325 8.65625 12.3078 8.93149 12.3078 9.27163C12.3078 9.61178 12.0325 9.88702 11.6924 9.88702Z" fill="#FFF5F5"/>
<path d="M11.6924 12.348H4.30777C3.96762 12.348 3.69238 12.0727 3.69238 11.7326C3.69238 11.3924 3.96762 11.1172 4.30777 11.1172H11.6924C12.0325 11.1172 12.3078 11.3924 12.3078 11.7326C12.3078 12.0727 12.0325 12.348 11.6924 12.348Z" fill="#FFF5F5"/>
<path d="M11.6924 14.8128H4.30777C3.96762 14.8128 3.69238 14.5376 3.69238 14.1974C3.69238 13.8573 3.96762 13.582 4.30777 13.582H11.6924C12.0325 13.582 12.3078 13.8573 12.3078 14.1974C12.3078 14.5376 12.0325 14.8128 11.6924 14.8128Z" fill="#FFF5F5"/>
<path d="M9.23084 17.2698H4.30777C3.96762 17.2698 3.69238 16.9946 3.69238 16.6544C3.69238 16.3143 3.96762 16.0391 4.30777 16.0391H9.23084C9.57099 16.0391 9.84623 16.3143 9.84623 16.6544C9.84623 16.9946 9.57099 17.2698 9.23084 17.2698Z" fill="#FFF5F5"/>
<path d="M8 17.2698H9.23077C9.57091 17.2698 9.84615 16.9946 9.84615 16.6544C9.84615 16.3143 9.57091 16.0391 9.23077 16.0391H8V17.2698Z" fill="#E3E7EA"/>
<path d="M8 14.8128H11.6923C12.0325 14.8128 12.3077 14.5376 12.3077 14.1974C12.3077 13.8573 12.0325 13.582 11.6923 13.582H8V14.8128Z" fill="#E3E7EA"/>
<path d="M8 12.348H11.6923C12.0325 12.348 12.3077 12.0727 12.3077 11.7326C12.3077 11.3924 12.0325 11.1172 11.6923 11.1172H8V12.348Z" fill="#E3E7EA"/>
<path d="M8 9.88702H11.6923C12.0325 9.88702 12.3077 9.61178 12.3077 9.27163C12.3077 8.93149 12.0325 8.65625 11.6923 8.65625H8V9.88702Z" fill="#E3E7EA"/>
</svg>
