<svg width="140" height="46" viewBox="0 0 140 46" fill="none" xmlns="http://www.w3.org/2000/svg">
<path d="M36.3627 21.0104C35.5312 19.9361 34.7562 18.8194 34.041 17.6647C33.3596 16.5753 32.8171 15.4472 32.7784 14.1193C32.7421 13.3745 32.5839 12.6406 32.3101 11.9468C31.8088 10.6599 31.2052 9.41499 30.505 8.22409C29.4236 6.32846 27.9667 4.67249 26.2232 3.35712C23.8632 1.55151 21.0539 0.423633 18.0986 0.0952757C16.7456 -0.056211 15.3784 -0.0269433 14.0331 0.182302C12.8414 0.358707 11.6707 0.655693 10.5392 1.06867C8.2669 1.92513 6.21501 3.27742 4.53338 5.02674C2.85176 6.77607 1.58286 8.87825 0.819391 11.1797C0.332389 12.5979 0.0613508 14.0809 0.0153304 15.5793C-0.0474444 16.7202 0.0120945 17.8645 0.192934 18.9927C0.334261 19.7941 0.524052 20.5863 0.761266 21.3649C1.43514 23.4141 2.49744 25.3148 3.89032 26.9636C3.97428 27.0667 4.04855 27.2021 4.21324 27.2246C4.22918 27.1812 4.2337 27.1343 4.22635 27.0886C4.219 27.0429 4.20003 26.9999 4.17126 26.9636C3.625 25.8764 3.20984 24.7285 2.93449 23.5438C2.59048 22.1722 2.3988 20.7671 2.36293 19.3537C2.33833 18.5392 2.36854 17.7241 2.45334 16.9137C2.55544 15.9612 2.71177 15.0153 2.92157 14.0806C3.29081 12.4678 3.89345 10.9173 4.71053 9.4779C5.91259 7.35671 7.69002 5.61722 9.83843 4.45944C10.953 3.85156 12.1492 3.40652 13.3905 3.13794C16.9129 2.6022 20.5139 3.23997 23.6366 4.95258C24.2466 5.34534 24.8233 5.78732 25.361 6.27408C27.9737 8.61225 29.5768 11.8702 29.8334 15.3634C29.9314 16.6607 29.828 17.9654 29.5266 19.2312C29.1311 21.042 28.3662 22.7521 27.2795 24.2549C26.1928 25.7577 24.8077 27.0209 23.2104 27.9659C22.5064 28.385 21.7346 28.6654 21.0145 29.0393C19.3591 29.8969 17.9127 31.1073 16.7779 32.5847C15.2225 34.5472 14.377 36.9767 14.3786 39.4791C14.3872 40.6893 14.6057 41.8888 15.0245 43.0246C15.3189 43.7965 15.673 44.5443 16.0836 45.2614C16.1256 45.342 16.174 45.458 16.2774 45.4419C16.3807 45.4258 16.371 45.2937 16.3904 45.2066C16.4679 44.8489 16.4937 44.4846 16.5615 44.1237C16.7773 42.9261 17.1531 41.7629 17.6788 40.6652C18.7792 38.3668 20.7438 36.5946 23.1458 35.7338C24.2902 35.3072 25.4834 35.0246 26.6979 34.8925C27.6117 34.7797 28.5353 34.7507 29.4556 34.712C30.518 34.6701 31.561 34.957 32.6363 34.7604C34.2509 34.4638 34.69 33.4711 34.2315 32.0658C34.1056 31.6726 33.9538 31.2955 33.8472 30.8926C33.7601 30.6227 33.7547 30.3332 33.8317 30.0603C33.9086 29.7874 34.0646 29.5432 34.2799 29.3584C34.437 29.22 34.5431 29.0329 34.5812 28.8273C34.6192 28.6216 34.5871 28.4091 34.4898 28.2238C34.3969 28.0051 34.2632 27.8061 34.0959 27.6372C33.7729 27.3374 33.8052 27.2601 34.1508 27.0216C34.3443 26.9075 34.5214 26.7676 34.6771 26.6058C35.2132 25.9611 35.2842 25.7033 34.7966 25.1328C34.4737 24.7589 34.5124 24.4624 34.845 24.0982C35.2525 23.6996 35.6838 23.3261 36.1367 22.9797C36.8859 22.3351 36.9698 21.7839 36.3692 21.0136" fill="#064870"/>
<path d="M9.36066 30.774L9.39969 30.7091L9.37041 30.6572C9.37363 30.6961 9.37363 30.7352 9.37041 30.774" fill="#231F20"/>
<path d="M12.8319 38.8731C12.3733 39.0213 12.1473 38.8247 12.0795 38.3864C11.4659 34.4283 11.6403 30.596 13.9007 27.1021C14.9115 25.5485 16.3129 24.4494 17.8887 23.5308C17.9979 23.4623 18.1293 23.4384 18.2557 23.4643C18.382 23.4901 18.4935 23.5636 18.5669 23.6694C18.8252 23.9466 19.0835 24.227 19.3289 24.5171C20.2202 25.5582 20.1911 25.5131 19.0706 26.2608C16.3549 28.069 14.2269 30.3639 13.397 33.6225C13.02 35.0556 12.9715 36.5549 13.2549 38.0093C13.3356 38.4186 13.3744 38.786 12.8448 38.8892" fill="#064870"/>
<path d="M26.4945 23.8047C26.0037 23.7532 25.3707 23.7081 24.7443 23.6178C24.5193 23.5739 24.2864 23.5956 24.0734 23.6801C23.8604 23.7647 23.6763 23.9087 23.543 24.0948C23.1781 24.5493 22.781 24.978 22.3838 25.4067C22.0609 25.7644 21.7056 25.7967 21.6992 25.2294C21.6992 23.2955 20.7304 22.2189 18.8834 21.8064C18.4087 21.7 18.4087 21.3874 18.8382 21.1392C19.3537 20.8146 19.8862 20.5176 20.4334 20.2496C20.6238 20.183 20.7875 20.0565 20.8999 19.8891C21.0123 19.7217 21.0673 19.5225 21.0566 19.3213C21.0727 18.7637 21.1567 18.2126 21.2019 17.6582C21.2245 17.4003 21.2245 17.0973 21.4602 16.9781C21.696 16.8588 21.8574 17.1457 22.0221 17.2778C22.442 17.6037 22.836 17.9615 23.2007 18.3479C23.3538 18.5316 23.5616 18.6619 23.7938 18.7198C24.026 18.7778 24.2707 18.7604 24.4924 18.6702C25.0285 18.5091 25.571 18.3705 26.107 18.2383C26.2975 18.1932 26.5203 18.1094 26.6689 18.3189C26.8174 18.5284 26.6947 18.667 26.5946 18.8121C25.5193 20.3431 25.6258 21.7999 26.8497 23.1988C27.1339 23.5211 27.0919 23.7435 26.4783 23.7919" fill="#0073FE"/>
<path d="M9.70286 32.1239C9.62753 32.2386 9.54216 32.3465 9.44776 32.4462C9.39978 32.492 9.33794 32.5206 9.27192 32.5276C9.2059 32.5346 9.13942 32.5196 9.08287 32.4849C8.95693 32.4075 9.00537 32.2947 9.03443 32.1851C9.30283 31.2342 9.44718 30.2527 9.46391 29.265C9.48784 27.3393 8.79779 25.4727 7.52641 24.0241C6.90319 23.315 6.88058 23.3247 7.79443 23.0991L8.40797 22.9508C8.54974 22.9163 8.69843 22.9232 8.83638 22.9707C8.97433 23.0181 9.09575 23.104 9.1862 23.2183C11.1043 25.1522 11.1528 27.4535 10.4972 29.9064C10.2873 30.6928 9.8837 31.4019 9.71901 32.1368" fill="#064870"/>
<path d="M18.1794 9.0619C18.7897 9.49058 19.2773 9.20694 19.7552 8.71702C20.0426 8.42371 20.0781 8.45594 20.1492 8.85239C20.1794 8.97238 20.1892 9.09659 20.1783 9.21983C20.0846 9.71942 20.33 9.99661 20.753 10.1868C20.9532 10.277 21.2406 10.3769 21.2406 10.5865C21.2406 10.796 20.9177 10.8443 20.7369 10.8669C19.9845 10.9603 20.0168 11.6211 19.823 12.0949C19.7036 12.3914 19.6422 12.443 19.4452 12.1787C19.329 12.0538 19.2211 11.9214 19.1223 11.7822C18.9156 11.4116 18.6089 11.3922 18.2375 11.4599C18.005 11.4954 17.6918 11.634 17.5497 11.4148C17.4076 11.1956 17.6757 10.9926 17.8113 10.8508C18.2504 10.3898 18.0664 9.95149 17.8371 9.4938C17.7725 9.36487 17.666 9.20694 17.7532 9.08123C17.8403 8.95553 18.005 9.08123 18.1891 9.06512" fill="#0073FE"/>
<path d="M5.88606 31.8497C6.49637 32.2784 6.98397 31.9948 7.46189 31.5049C7.74928 31.2116 7.78481 31.2438 7.85585 31.6402C7.8877 31.7599 7.89755 31.8844 7.88491 32.0077C7.79127 32.5073 8.03991 32.7877 8.4597 32.9746C8.65991 33.0681 8.9473 33.1648 8.9473 33.3743C8.9473 33.5838 8.62439 33.6354 8.44355 33.6547C7.69116 33.7482 7.72345 34.4089 7.5297 34.8827C7.41022 35.1793 7.34887 35.2308 7.15189 34.9665C7.03461 34.8425 6.92667 34.71 6.82897 34.5701C6.61908 34.1994 6.31231 34.1801 5.94096 34.2478C5.70846 34.2864 5.39523 34.4218 5.25315 34.2026C5.11106 33.9835 5.37908 33.7804 5.51471 33.6386C5.95387 33.1777 5.76981 32.7393 5.54377 32.2816C5.47596 32.1527 5.3694 31.9948 5.45658 31.8691C5.54377 31.7434 5.70846 31.8691 5.89252 31.853" fill="#0073FE"/>
<path d="M5.6826 22.4091C5.65183 22.3808 5.62271 22.3506 5.59542 22.3189C5.16917 21.6356 4.575 21.4551 3.81292 21.6743C3.56428 21.7452 3.49001 21.6066 3.60303 21.3745C3.61723 21.3445 3.63341 21.3154 3.65146 21.2875C3.87627 21.0623 4.00803 20.761 4.0206 20.4433C4.03316 20.1257 3.9256 19.8149 3.71928 19.5728C3.64823 19.4761 3.54167 19.3471 3.64823 19.2182C3.69622 19.1724 3.75805 19.1438 3.82407 19.1368C3.8901 19.1298 3.95658 19.1448 4.01313 19.1795C4.27214 19.3158 4.57217 19.3527 4.85655 19.2832C5.14094 19.2137 5.38999 19.0427 5.55667 18.8024C5.91188 18.3834 6.09916 18.4511 6.10239 18.9797C6.08935 19.2641 6.17097 19.5448 6.33453 19.778C6.49809 20.0112 6.73439 20.1839 7.00656 20.269C7.13573 20.3238 7.30364 20.385 7.30041 20.5623C7.29718 20.7395 7.1325 20.7492 7.01625 20.7847C6.71077 20.8461 6.43875 21.0179 6.25226 21.2671C6.06577 21.5163 5.97791 21.8254 6.00552 22.1352C6.00552 22.3447 5.93125 22.58 5.6826 22.4188" fill="#0073FE"/>
<path d="M11.9084 19.6374C12.0053 19.6374 12.0215 19.7308 12.0505 19.7921C12.102 19.9324 12.1957 20.0533 12.3189 20.1382C12.4421 20.223 12.5887 20.2676 12.7383 20.2659C12.8417 20.2659 12.9773 20.2659 13.0096 20.4109C13.0419 20.556 12.945 20.5979 12.8675 20.6559C12.7547 20.7445 12.6723 20.8659 12.6318 21.0034C12.5912 21.1409 12.5946 21.2875 12.6415 21.423C12.6608 21.51 12.7448 21.6132 12.6415 21.697C12.5381 21.7808 12.438 21.697 12.3702 21.6551C12.2486 21.5525 12.0933 21.4985 11.9342 21.5032C11.775 21.508 11.6233 21.5712 11.508 21.6808C11.3175 21.8194 11.1851 21.7389 11.2368 21.5068C11.2873 21.3465 11.2829 21.1741 11.2245 21.0165C11.166 20.859 11.0567 20.7253 10.9139 20.6365C10.775 20.5366 10.7685 20.3787 10.9784 20.3561C11.1591 20.3573 11.3347 20.2965 11.4758 20.1838C11.6169 20.0711 11.7149 19.9135 11.7534 19.7373C11.7604 19.7066 11.7783 19.6795 11.8039 19.6611C11.8295 19.6427 11.8609 19.6342 11.8923 19.6374" fill="#0073FE"/>
<path d="M14.7759 16.053C14.8195 16.0638 14.859 16.0869 14.8899 16.1194C14.9208 16.152 14.9417 16.1927 14.9503 16.2367C14.9825 16.3697 15.0623 16.4864 15.1747 16.5648C15.2871 16.6432 15.4243 16.6778 15.5606 16.6622C15.6768 16.6622 15.8318 16.6622 15.8835 16.7975C15.9351 16.9329 15.7995 17.0167 15.7091 17.0908C15.6121 17.1732 15.5417 17.2822 15.5067 17.4044C15.4716 17.5265 15.4735 17.6563 15.5121 17.7774C15.5767 18.148 15.5121 18.1996 15.1892 18.0352C15.0808 17.9564 14.9487 17.917 14.8148 17.9234C14.6809 17.9299 14.5532 17.9818 14.453 18.0707C14.4209 18.1095 14.3762 18.1359 14.3266 18.1453C14.2771 18.1547 14.2259 18.1465 14.1817 18.1222C14.101 18.0642 14.13 17.9579 14.1526 17.8805C14.2048 17.7477 14.2066 17.6005 14.1579 17.4664C14.1092 17.3324 14.0132 17.2206 13.8879 17.1521C13.7974 17.0908 13.6844 17.0103 13.707 16.8942C13.7296 16.7782 13.8749 16.7621 13.9815 16.7524C14.1164 16.7404 14.2451 16.69 14.3521 16.6071C14.4592 16.5243 14.5401 16.4125 14.5854 16.285C14.6241 16.198 14.6467 16.0594 14.7823 16.053" fill="#0073FE"/>
<path d="M15.0408 12.353C15.085 12.3643 15.1252 12.3878 15.1566 12.4209C15.188 12.454 15.2094 12.4953 15.2184 12.54C15.2506 12.6728 15.3306 12.7891 15.4431 12.867C15.5556 12.9448 15.6928 12.9787 15.8287 12.9622C15.9449 12.9622 16.0967 12.9622 16.1516 13.1008C16.2065 13.2394 16.0676 13.32 15.974 13.3941C15.8754 13.4752 15.8041 13.5844 15.7694 13.7071C15.7348 13.8298 15.7386 13.9601 15.7802 14.0806C15.8448 14.4481 15.7802 14.5029 15.4573 14.3385C15.3495 14.2587 15.2175 14.2183 15.0835 14.2242C14.9494 14.2301 14.8214 14.2818 14.7211 14.3707C14.65 14.432 14.5467 14.4932 14.4498 14.4223C14.353 14.3514 14.3982 14.2579 14.4208 14.1838C14.4728 14.0502 14.4743 13.9022 14.425 13.7675C14.3757 13.6328 14.2789 13.5207 14.1527 13.4521C14.0656 13.3941 13.9493 13.3103 13.9719 13.1943C13.9945 13.0782 14.1431 13.0621 14.2496 13.0525C14.385 13.0421 14.5144 12.9922 14.6218 12.9092C14.7291 12.8261 14.8097 12.7134 14.8535 12.5851C14.8922 12.5013 14.9148 12.3627 15.0472 12.353" fill="#0073FE"/>
<path d="M8.7922 13.3908C8.73826 13.3752 8.68627 13.3536 8.63719 13.3263C8.52294 13.2221 8.37378 13.1644 8.21902 13.1644C8.06426 13.1644 7.9151 13.2221 7.80084 13.3263C7.72657 13.3682 7.65553 13.4456 7.56834 13.3811C7.48116 13.3166 7.51345 13.2167 7.53928 13.1426C7.58708 12.9952 7.58305 12.836 7.52785 12.6912C7.47266 12.5465 7.3696 12.4248 7.23574 12.3465C7.04199 12.1885 6.99032 12.0242 7.32293 12.0242C7.47559 12.0163 7.62238 11.9629 7.74439 11.871C7.86641 11.7791 7.95805 11.6528 8.00751 11.5084C8.10761 11.2764 8.22063 11.2345 8.33043 11.5084C8.3863 11.6449 8.48083 11.762 8.60242 11.8456C8.72402 11.9292 8.86741 11.9756 9.01501 11.979C9.33792 12.0113 9.36699 12.1337 9.13126 12.3432C9.01433 12.4208 8.92811 12.5366 8.88745 12.6707C8.84679 12.8048 8.85421 12.9489 8.90845 13.0781C8.95042 13.2006 8.98917 13.4004 8.78574 13.4166" fill="#0073FE"/>
<path d="M11.1269 18.2609C10.8561 18.0539 10.5208 17.9488 10.18 17.9641C9.83923 17.9794 9.51476 18.1142 9.26369 18.3447C8.96015 18.5768 8.61786 18.4608 8.74703 18.0031C8.86188 17.6519 8.85238 17.272 8.72012 16.927C8.58785 16.582 8.34085 16.2928 8.02047 16.1078C7.69755 15.8661 7.54578 15.4374 8.15932 15.4149C9.0312 15.3826 9.48651 14.9185 9.79651 14.1965C9.9838 13.7678 10.2228 13.5519 10.4649 14.1482C10.7879 14.9604 11.3271 15.4181 12.2571 15.3826C12.6705 15.3665 12.7254 15.6631 12.4218 15.9016C12.1116 16.0994 11.8785 16.3971 11.761 16.7453C11.6436 17.0935 11.6489 17.4713 11.776 17.8161C11.8922 18.2158 11.6597 18.4382 11.1301 18.2609" fill="#0073FE"/>
<path d="M10.8687 39.8692C10.7912 40.0303 10.7686 40.0851 10.7395 40.1399C10.6297 40.3559 10.4715 40.5332 10.2099 40.4203C9.94837 40.3075 9.98712 40.0658 10.084 39.8466C10.2448 39.5092 10.3536 39.1496 10.4069 38.7798C10.5479 37.8407 10.3827 36.8813 9.93546 36.0433C9.73809 35.6717 9.44774 35.3575 9.09265 35.1311C8.86983 34.9861 8.62119 34.8088 8.81171 34.5252C9.00223 34.2415 9.29608 34.3866 9.52212 34.5542C10.5329 35.2987 10.9623 36.3527 11.1367 37.555C11.2176 38.3357 11.1307 39.1247 10.8816 39.8692" fill="#064870"/>
<path d="M4.27141 15.4246C4.33597 15.2825 4.42875 15.1549 4.54414 15.0495C4.65954 14.9442 4.79515 14.8633 4.94277 14.8117C5.09038 14.7602 5.24694 14.7391 5.40296 14.7497C5.55898 14.7604 5.71122 14.8024 5.85047 14.8735C6.12472 15.0152 6.33163 15.2595 6.42601 15.553C6.5204 15.8465 6.49459 16.1654 6.35422 16.4399C6.28879 16.582 6.1948 16.7091 6.07809 16.8134C5.96137 16.9177 5.82443 16.997 5.67575 17.0463C5.52707 17.0955 5.36984 17.1138 5.2138 17.0998C5.05777 17.0859 4.90627 17.0401 4.76871 16.9653C4.62852 16.9037 4.50301 16.8131 4.40043 16.6995C4.29785 16.5859 4.22053 16.452 4.17355 16.3064C4.12657 16.1609 4.11101 16.007 4.12787 15.8551C4.14474 15.7031 4.19366 15.5564 4.27141 15.4246ZM5.49527 15.4891C5.43933 15.4601 5.37821 15.4425 5.31541 15.4371C5.25261 15.4318 5.18938 15.4389 5.12935 15.4581C5.06932 15.4773 5.01369 15.5081 4.96565 15.5489C4.91761 15.5896 4.87811 15.6394 4.84943 15.6954C4.79983 15.823 4.79622 15.9638 4.83923 16.0938C4.88224 16.2237 4.96918 16.3347 5.08516 16.4077C5.14539 16.4337 5.21029 16.4472 5.27592 16.4474C5.34154 16.4477 5.40653 16.4345 5.46692 16.4089C5.52732 16.3833 5.58187 16.3457 5.62727 16.2984C5.67266 16.2511 5.70795 16.1951 5.73099 16.1337C5.7647 16.0767 5.78512 16.0128 5.79074 15.9468C5.79637 15.8809 5.78705 15.8145 5.76348 15.7526C5.73992 15.6907 5.7027 15.6348 5.6546 15.5892C5.60649 15.5436 5.54873 15.5094 5.48558 15.4891" fill="#0073FE"/>
<path d="M16.0352 19.9596C16.1001 19.8177 16.1931 19.6904 16.3085 19.5853C16.424 19.4803 16.5595 19.3995 16.707 19.3481C16.8545 19.2966 17.0109 19.2754 17.1668 19.2858C17.3227 19.2961 17.4749 19.3379 17.6143 19.4084C17.8881 19.5514 18.0945 19.7963 18.1888 20.0901C18.2831 20.3839 18.2576 20.7029 18.118 20.9781C18.0522 21.1203 17.9579 21.2475 17.8409 21.3518C17.7239 21.4561 17.5867 21.5354 17.4378 21.5846C17.2888 21.6339 17.1313 21.6521 16.9751 21.6381C16.8188 21.6242 16.6671 21.5784 16.5293 21.5035C16.3893 21.4412 16.264 21.35 16.1618 21.236C16.0595 21.122 15.9825 20.9877 15.9359 20.842C15.8892 20.6962 15.874 20.5423 15.8911 20.3902C15.9082 20.2381 15.9573 20.0914 16.0352 19.9596ZM17.2558 20.0273C17.2002 19.9977 17.1392 19.9796 17.0764 19.9738C17.0137 19.968 16.9504 19.9748 16.8903 19.9937C16.8301 20.0126 16.7744 20.0432 16.7263 20.0839C16.6782 20.1245 16.6386 20.1743 16.61 20.2303C16.5614 20.3585 16.5583 20.4995 16.6012 20.6297C16.6441 20.7599 16.7304 20.8715 16.8457 20.9459C16.9063 20.9709 16.9712 20.9835 17.0367 20.9831C17.1022 20.9826 17.167 20.9691 17.2272 20.9432C17.2874 20.9174 17.3418 20.8798 17.3872 20.8326C17.4326 20.7855 17.4681 20.7298 17.4916 20.6687C17.5252 20.6114 17.5455 20.5474 17.5509 20.4812C17.5563 20.4151 17.5467 20.3485 17.5228 20.2866C17.4989 20.2246 17.4614 20.1689 17.4129 20.1234C17.3644 20.078 17.3063 20.044 17.2429 20.0241" fill="#0073FE"/>
<path d="M12.6639 8.03409C12.7288 7.8922 12.8218 7.7649 12.9373 7.65989C13.0528 7.55487 13.1885 7.47433 13.3361 7.42312C13.4837 7.3719 13.6401 7.35108 13.796 7.36192C13.9519 7.37275 14.1039 7.41502 14.243 7.48616C14.5172 7.62789 14.7241 7.87218 14.8185 8.16568C14.9129 8.45918 14.8871 8.77804 14.7467 9.05261C14.6813 9.19468 14.5873 9.32182 14.4706 9.42612C14.3539 9.53042 14.2169 9.60966 14.0683 9.65892C13.9196 9.70819 13.7623 9.72642 13.6063 9.7125C13.4503 9.69858 13.2988 9.65279 13.1612 9.57798C13.0209 9.51597 12.8954 9.42505 12.7928 9.31118C12.6902 9.19731 12.6129 9.06308 12.5659 8.91729C12.5189 8.7715 12.5034 8.61744 12.5203 8.46523C12.5372 8.31302 12.5861 8.16609 12.6639 8.03409ZM13.8878 8.10178C13.8319 8.07235 13.7708 8.05433 13.7079 8.04878C13.645 8.04324 13.5816 8.05028 13.5214 8.06949C13.4613 8.0887 13.4056 8.1197 13.3576 8.16066C13.3096 8.20163 13.2703 8.25174 13.2419 8.30806C13.1923 8.43565 13.1887 8.57649 13.2317 8.70644C13.2747 8.8364 13.3617 8.94738 13.4777 9.02038C13.5379 9.04638 13.6028 9.0599 13.6684 9.06011C13.7341 9.06032 13.799 9.04722 13.8594 9.0216C13.9198 8.99598 13.9744 8.95837 14.0198 8.91107C14.0652 8.86376 14.1005 8.80775 14.1235 8.74641C14.1572 8.68937 14.1776 8.6255 14.1833 8.55951C14.1889 8.49353 14.1796 8.42713 14.156 8.36523C14.1324 8.30333 14.0952 8.24751 14.0471 8.20191C13.999 8.1563 13.9412 8.12208 13.8781 8.10178" fill="#0073FE"/>
<path d="M14.1917 24.2528C14.0975 24.2534 14.0052 24.2261 13.9266 24.1743C13.848 24.1224 13.7866 24.0485 13.7503 23.9618C13.7139 23.8751 13.7042 23.7795 13.7225 23.6873C13.7407 23.5951 13.786 23.5104 13.8526 23.444C13.9192 23.3775 14.0041 23.3323 14.0966 23.3141C14.189 23.2959 14.2848 23.3056 14.3717 23.3419C14.4586 23.3781 14.5327 23.4393 14.5847 23.5178C14.6366 23.5962 14.664 23.6882 14.6634 23.7822C14.6634 23.907 14.6137 24.0267 14.5252 24.1149C14.4367 24.2032 14.3168 24.2528 14.1917 24.2528ZM14.1917 23.3825C14.1123 23.3819 14.0345 23.4048 13.9682 23.4483C13.9019 23.4918 13.85 23.554 13.8192 23.627C13.7884 23.7 13.78 23.7804 13.7951 23.8582C13.8102 23.9359 13.8481 24.0074 13.904 24.0636C13.9599 24.1199 14.0313 24.1582 14.1091 24.1739C14.1869 24.1896 14.2676 24.1819 14.341 24.1517C14.4144 24.1216 14.4771 24.0704 14.5213 24.0046C14.5655 23.9388 14.589 23.8614 14.589 23.7822C14.5891 23.6768 14.5473 23.5756 14.4729 23.5007C14.3984 23.4259 14.2973 23.3834 14.1917 23.3825Z" fill="#27AAE1"/>
<path d="M19.3907 15.9048C19.2974 15.9048 19.2062 15.8772 19.1286 15.8255C19.0511 15.7738 18.9906 15.7003 18.9549 15.6143C18.9192 15.5283 18.9099 15.4337 18.9281 15.3424C18.9463 15.2511 18.9912 15.1673 19.0572 15.1015C19.1231 15.0356 19.2072 14.9908 19.2987 14.9727C19.3902 14.9545 19.485 14.9638 19.5712 14.9994C19.6574 15.0351 19.7311 15.0954 19.7829 15.1728C19.8347 15.2501 19.8624 15.3411 19.8624 15.4342C19.8624 15.559 19.8127 15.6787 19.7243 15.767C19.6358 15.8552 19.5158 15.9048 19.3907 15.9048ZM19.3907 15.0378C19.3121 15.0378 19.2353 15.061 19.1699 15.1046C19.1046 15.1481 19.0536 15.21 19.0236 15.2825C18.9935 15.3549 18.9856 15.4346 19.001 15.5115C19.0163 15.5885 19.0541 15.6591 19.1097 15.7145C19.1653 15.77 19.2361 15.8077 19.3132 15.823C19.3903 15.8383 19.4702 15.8305 19.5428 15.8005C19.6154 15.7705 19.6775 15.7197 19.7211 15.6545C19.7648 15.5893 19.7881 15.5126 19.7881 15.4342C19.7881 15.3821 19.7778 15.3306 19.7579 15.2825C19.7379 15.2344 19.7086 15.1907 19.6717 15.1539C19.6348 15.1171 19.591 15.0879 19.5428 15.0679C19.4946 15.048 19.4429 15.0378 19.3907 15.0378Z" fill="#0073FE"/>
<path d="M9.03139 20.9266C8.93732 20.9272 8.84518 20.9 8.76666 20.8483C8.68813 20.7967 8.62675 20.7229 8.59031 20.6364C8.55387 20.5498 8.544 20.4545 8.56196 20.3624C8.57992 20.2702 8.62489 20.1855 8.69118 20.1189C8.75747 20.0523 8.84209 20.0069 8.93431 19.9883C9.02652 19.9698 9.12218 19.979 9.20915 20.0148C9.29612 20.0505 9.37049 20.1112 9.42282 20.1892C9.47515 20.2672 9.50309 20.359 9.50309 20.4528C9.50352 20.5149 9.49163 20.5764 9.46812 20.6339C9.4446 20.6913 9.40992 20.7436 9.36608 20.7876C9.32223 20.8317 9.27009 20.8666 9.21265 20.8905C9.15521 20.9143 9.09361 20.9266 9.03139 20.9266ZM9.03139 20.0564C8.95188 20.0557 8.87398 20.0787 8.80761 20.1224C8.74123 20.166 8.68938 20.2284 8.65866 20.3016C8.62794 20.3747 8.61973 20.4554 8.63509 20.5332C8.65044 20.611 8.68866 20.6825 8.74489 20.7386C8.80111 20.7947 8.87279 20.8328 8.9508 20.8482C9.02881 20.8635 9.10963 20.8553 9.18297 20.8246C9.2563 20.794 9.31884 20.7423 9.36261 20.676C9.40639 20.6098 9.42942 20.5321 9.42878 20.4528C9.42921 20.4003 9.41927 20.3483 9.39953 20.2996C9.37979 20.2509 9.35063 20.2067 9.31373 20.1692C9.27683 20.1318 9.2329 20.102 9.18446 20.0816C9.13601 20.0611 9.084 20.0503 9.03139 20.0499V20.0564Z" fill="#0073FE"/>
<path d="M4.12959 18.1161C4.03553 18.1167 3.94339 18.0895 3.86486 18.0378C3.78633 17.9861 3.72496 17.9123 3.68851 17.8258C3.65207 17.7393 3.6422 17.6439 3.66016 17.5518C3.67812 17.4597 3.7231 17.375 3.78939 17.3084C3.85568 17.2418 3.9403 17.1963 4.03251 17.1778C4.12473 17.1593 4.22038 17.1685 4.30736 17.2042C4.39433 17.24 4.46869 17.3007 4.52102 17.3787C4.57335 17.4567 4.60129 17.5484 4.60129 17.6422C4.60172 17.7043 4.58984 17.7659 4.56632 17.8233C4.54281 17.8808 4.50813 17.933 4.46428 17.9771C4.42044 18.0211 4.3683 18.0561 4.31086 18.0799C4.25342 18.1038 4.19181 18.1161 4.12959 18.1161ZM4.12959 17.2458C4.05051 17.2471 3.97357 17.2717 3.90848 17.3165C3.84338 17.3613 3.79305 17.4244 3.76381 17.4977C3.73458 17.571 3.72775 17.6513 3.7442 17.7285C3.76064 17.8057 3.79962 17.8763 3.85622 17.9314C3.91281 17.9865 3.9845 18.0237 4.06224 18.0382C4.13999 18.0528 4.2203 18.044 4.29307 18.0131C4.36584 17.9822 4.4278 17.9305 4.47116 17.8645C4.51451 17.7985 4.53731 17.7212 4.53668 17.6422C4.53626 17.5895 4.52537 17.5373 4.50464 17.4888C4.48392 17.4403 4.45376 17.3963 4.41592 17.3594C4.37807 17.3226 4.33329 17.2936 4.28414 17.2741C4.235 17.2546 4.18247 17.2449 4.12959 17.2458Z" fill="#0073FE"/>
<path d="M11.9216 12.224C11.8277 12.224 11.7358 12.1962 11.6577 12.1441C11.5796 12.0921 11.5188 12.0181 11.4828 11.9315C11.4469 11.8449 11.4375 11.7496 11.4558 11.6577C11.4741 11.5658 11.5193 11.4814 11.5858 11.4151C11.6522 11.3489 11.7368 11.3038 11.8289 11.2855C11.9211 11.2672 12.0166 11.2766 12.1033 11.3124C12.1901 11.3483 12.2643 11.409 12.3165 11.4869C12.3687 11.5649 12.3965 11.6565 12.3965 11.7502C12.3965 11.8758 12.3465 11.9963 12.2574 12.0852C12.1684 12.1741 12.0476 12.224 11.9216 12.224ZM11.9216 11.3537C11.822 11.3627 11.7293 11.4085 11.6618 11.4821C11.5943 11.5558 11.5569 11.652 11.5569 11.7518C11.5569 11.8516 11.5943 11.9478 11.6618 12.0214C11.7293 12.0951 11.822 12.1409 11.9216 12.1498C11.977 12.1548 12.0329 12.1482 12.0856 12.1305C12.1383 12.1128 12.1867 12.0843 12.2278 12.0468C12.2689 12.0094 12.3017 11.9638 12.3241 11.913C12.3466 11.8622 12.3582 11.8073 12.3582 11.7518C12.3582 11.6963 12.3466 11.6414 12.3241 11.5906C12.3017 11.5398 12.2689 11.4942 12.2278 11.4568C12.1867 11.4193 12.1383 11.3908 12.0856 11.3731C12.0329 11.3553 11.977 11.3487 11.9216 11.3537Z" fill="#0073FE"/>
<path d="M12.4289 41.7193C12.396 41.7175 12.3645 41.7057 12.3385 41.6855C12.3125 41.6654 12.2933 41.6378 12.2835 41.6064C12.2321 41.4667 12.1518 41.3393 12.0476 41.2326C11.9435 41.126 11.818 41.0425 11.6793 40.9876C11.4855 40.9038 11.4952 40.791 11.6793 40.6653C11.6888 40.657 11.6998 40.6504 11.7116 40.6459C11.8403 40.6071 11.9577 40.5379 12.0538 40.4442C12.15 40.3505 12.2221 40.2351 12.2641 40.1077C12.2932 40.0271 12.3319 39.9497 12.4353 39.9562C12.4771 39.9617 12.5161 39.9797 12.5473 40.0079C12.5785 40.0362 12.6003 40.0732 12.6098 40.1141C12.6534 40.2399 12.7253 40.3541 12.8199 40.448C12.9146 40.5418 13.0295 40.6128 13.1558 40.6556C13.3755 40.7491 13.382 40.907 13.1558 41.0005C13.0211 41.0483 12.8991 41.1264 12.7994 41.2286C12.6997 41.3309 12.6249 41.4546 12.5807 41.5903C12.5702 41.6236 12.5497 41.6529 12.5219 41.6743C12.4942 41.6956 12.4606 41.7079 12.4256 41.7096M12.8036 40.8522C12.7616 40.8071 12.752 40.7845 12.739 40.7781C12.6778 40.7519 12.6223 40.714 12.5757 40.6664C12.5291 40.6189 12.4924 40.5626 12.4676 40.5009C12.4483 40.4558 12.403 40.459 12.3804 40.5009C12.3255 40.6395 12.1542 40.7007 12.1155 40.8039C12.0767 40.907 12.3287 40.9425 12.3546 41.094C12.3618 41.1114 12.3716 41.1277 12.3836 41.1423C12.4224 41.1907 12.4709 41.1842 12.487 41.1423C12.5071 41.0852 12.5391 41.033 12.5808 40.9891C12.6226 40.9452 12.6732 40.9107 12.7293 40.8877C12.7533 40.8761 12.7781 40.8664 12.8036 40.8587" fill="#0073FE"/>
<path d="M45.2948 16.7639V30.6038H43.3378V13.0725H45.5878L52.1385 26.5374L58.619 13.0725H60.7635V30.6038H58.8182V16.8342L53.287 28.4592H50.9315L45.2948 16.7639ZM67.6425 29.3499C68.2831 29.3499 68.9667 29.1741 69.6932 28.8225C70.4276 28.4709 70.994 28.0139 71.3925 27.4514V24.2874C71.3925 24.2952 71.201 24.3264 70.8182 24.3811C70.4432 24.428 70.244 24.4514 70.2206 24.4514C69.4628 24.553 68.83 24.6584 68.3221 24.7678C67.8143 24.8772 67.369 25.0061 66.9862 25.1545C66.6034 25.2952 66.3065 25.467 66.0956 25.6702C65.8925 25.8733 65.7401 26.1077 65.6385 26.3733C65.5448 26.6389 65.4979 26.9553 65.4979 27.3225C65.4979 28.01 65.6893 28.5217 66.0721 28.8577C66.4628 29.1858 66.9862 29.3499 67.6425 29.3499ZM71.451 29.1975C70.4432 30.3303 69.1034 30.8967 67.4315 30.8967C66.8925 30.8967 66.3885 30.8225 65.9198 30.6741C65.4589 30.5334 65.0487 30.3225 64.6893 30.0413C64.33 29.76 64.0448 29.3928 63.8339 28.9397C63.6307 28.4866 63.5292 27.967 63.5292 27.3811C63.5292 25.8889 64.201 24.8147 65.5448 24.1584C66.326 23.7678 67.5917 23.4397 69.3417 23.1741C69.4979 23.1506 69.7518 23.1155 70.1034 23.0686L71.3925 22.9163V21.4514C71.3925 20.6624 71.1893 20.0725 70.7831 19.6819C70.3768 19.2834 69.7362 19.0842 68.8612 19.0842C68.1659 19.0842 67.455 19.1663 66.7284 19.3303C66.0096 19.4866 65.3807 19.6936 64.8417 19.9514L64.3026 18.4045C64.8104 18.1233 65.4706 17.8928 66.2831 17.7131C67.0956 17.5256 67.9393 17.4319 68.8143 17.4319C71.8378 17.4319 73.3495 18.6741 73.3495 21.1584V30.6038H71.744L71.451 29.1975ZM78.576 36.4866L78.3182 34.717H80.7089C81.3729 34.717 81.951 34.6702 82.4432 34.5764C82.9354 34.4827 83.3456 34.3264 83.6737 34.1077C84.0018 33.8967 84.2675 33.6584 84.4706 33.3928C84.6737 33.135 84.826 32.7952 84.9276 32.3733C85.037 31.9592 85.1073 31.5452 85.1385 31.1311C85.1776 30.7249 85.1971 30.2249 85.1971 29.6311V28.4944C84.7284 29.1741 84.1854 29.6936 83.5682 30.053C82.9589 30.4124 82.1815 30.592 81.2362 30.592C80.5018 30.592 79.826 30.467 79.2089 30.217C78.5917 29.9592 78.0721 29.6194 77.6503 29.1975C77.2284 28.7756 76.869 28.2874 76.5721 27.7327C76.2753 27.178 76.0565 26.6038 75.9159 26.01C75.7831 25.4163 75.7167 24.8186 75.7167 24.217C75.7167 23.4749 75.787 22.7717 75.9276 22.1077C76.0682 21.4436 76.287 20.8264 76.5839 20.2561C76.8885 19.678 77.2596 19.1819 77.6971 18.7678C78.1346 18.3538 78.6659 18.0295 79.2909 17.7952C79.9237 17.553 80.619 17.4319 81.3768 17.4319C82.9706 17.4319 84.2635 18.1077 85.2557 19.4592V17.7366H87.1659V29.678C87.1659 30.2249 87.1503 30.7014 87.119 31.1077C87.0956 31.5217 87.0292 31.9788 86.9198 32.4788C86.8182 32.9788 86.6776 33.4084 86.4979 33.7678C86.3182 34.1272 86.0643 34.4866 85.7362 34.8459C85.4159 35.2131 85.0292 35.5061 84.576 35.7249C84.1307 35.9514 83.576 36.135 82.912 36.2756C82.2479 36.4163 81.4979 36.4866 80.662 36.4866H78.576ZM81.5292 28.928C82.0682 28.928 82.5487 28.8499 82.9706 28.6936C83.4003 28.5374 83.7557 28.3264 84.037 28.0608C84.3182 27.7874 84.5487 27.4631 84.7284 27.0881C84.9159 26.7131 85.0487 26.3186 85.1268 25.9045C85.2128 25.4827 85.2557 25.0334 85.2557 24.5569V23.6077C85.2557 22.9749 85.1854 22.3967 85.0448 21.8733C84.9042 21.342 84.6893 20.8655 84.4003 20.4436C84.1112 20.0217 83.7206 19.6936 83.2284 19.4592C82.744 19.217 82.1815 19.0959 81.5409 19.0959C80.8846 19.0959 80.2987 19.2522 79.7831 19.5647C79.2753 19.8694 78.8768 20.2756 78.5878 20.7834C78.3065 21.2834 78.0917 21.8186 77.9432 22.3889C77.8026 22.9514 77.7323 23.5256 77.7323 24.1116C77.7323 24.5647 77.7753 25.0139 77.8612 25.4592C77.955 25.9045 78.1034 26.3381 78.3065 26.76C78.5096 27.1819 78.7557 27.553 79.0448 27.8733C79.3339 28.1858 79.6932 28.4397 80.1229 28.635C80.5526 28.8303 81.0214 28.928 81.5292 28.928ZM92.2753 13.0725V15.3928H90.3065V13.0725H92.2753ZM92.2753 17.7366V30.6038H90.3065V17.7366H92.2753ZM104.615 29.7249C104.209 30.1077 103.693 30.4006 103.068 30.6038C102.443 30.7991 101.799 30.8967 101.135 30.8967C100.166 30.8967 99.2831 30.717 98.4862 30.3577C97.6893 29.9905 97.0331 29.4983 96.5175 28.8811C96.0096 28.2561 95.6151 27.5413 95.3339 26.7366C95.0604 25.9319 94.9237 25.0764 94.9237 24.1702C94.9315 23.2795 95.08 22.4319 95.369 21.6272C95.6581 20.8147 96.0604 20.0959 96.576 19.4709C97.0917 18.8459 97.7401 18.3499 98.5214 17.9827C99.3104 17.6155 100.17 17.4319 101.099 17.4319C101.842 17.4319 102.517 17.5295 103.127 17.7249C103.744 17.9202 104.236 18.1936 104.603 18.5452L104.111 19.9397C103.221 19.3459 102.209 19.0491 101.076 19.0491C99.8964 19.0491 98.9081 19.5413 98.1112 20.5256C97.3221 21.5022 96.9276 22.7327 96.9276 24.217C96.9276 25.7014 97.3221 26.9163 98.1112 27.8616C98.9081 28.8069 99.9471 29.2795 101.228 29.2795C102.252 29.2795 103.217 28.9592 104.123 28.3186L104.615 29.7249ZM118.572 22.4475H108.998V30.6038H106.924V13.0725H108.998V20.6663H118.572V13.0725H120.646V30.6038H118.572V22.4475ZM126.178 14.8889V20.7483L130.338 20.7952C131.127 20.803 131.787 20.7483 132.318 20.6311C132.849 20.5061 133.267 20.3108 133.572 20.0452C133.885 19.7717 134.103 19.4475 134.228 19.0725C134.361 18.6975 134.428 18.2366 134.428 17.6897C134.428 16.7444 134.15 16.0413 133.596 15.5803C133.049 15.1194 132.123 14.8889 130.818 14.8889H126.178ZM137.287 30.6038H134.943L132.553 25.1663C131.904 23.7053 131.49 22.8264 131.31 22.5295C130.748 22.5686 130.072 22.5881 129.283 22.5881L126.178 22.4944V30.6038H124.103V13.0725H129.646C130.287 13.0725 130.853 13.0881 131.346 13.1194C131.838 13.1506 132.326 13.2092 132.81 13.2952C133.303 13.3733 133.728 13.4866 134.088 13.635C134.447 13.7756 134.783 13.9631 135.096 14.1975C135.408 14.4241 135.658 14.6975 135.846 15.0178C136.041 15.3381 136.193 15.7209 136.303 16.1663C136.412 16.6038 136.467 17.0999 136.467 17.6545C136.467 18.7717 136.189 19.7209 135.635 20.5022C135.088 21.2834 134.264 21.8225 133.162 22.1194C133.154 22.1194 133.224 22.2522 133.373 22.5178C133.529 22.7756 133.717 23.1038 133.935 23.5022C134.162 23.9006 134.334 24.2288 134.451 24.4866L137.287 30.6038Z" fill="black"/>
</svg>
