<svg width="45" height="45" viewBox="0 0 45 45" fill="none" xmlns="http://www.w3.org/2000/svg">
<circle cx="22.5" cy="22.5" r="22.25" fill="#F7FFF7" stroke="#096100" stroke-width="0.5"/>
<path d="M15.4821 29.4864L11.4419 27.2769L12.7676 25.9512L15.924 26.3931L20.8479 21.4692L11 16.1033L12.7676 14.3357L24.825 17.429L29.7805 12.5366C30.1382 12.1789 30.5854 12 31.122 12C31.6585 12 32.1057 12.1789 32.4634 12.5366C32.8211 12.8943 33 13.3415 33 13.878C33 14.4146 32.8211 14.8618 32.4634 15.2195L27.5395 20.1435L30.6327 32.2009L28.8651 33.9684L23.4993 24.1205L18.5753 29.0445L19.0172 32.2009L17.6915 33.5265L15.4821 29.4864Z" fill="#096100"/>
</svg>
