<svg width="20" height="27" viewBox="0 0 20 27" fill="none" xmlns="http://www.w3.org/2000/svg">
<path fill-rule="evenodd" clip-rule="evenodd" d="M3.47486 0H12.4256L20 7.9063V23.2601C20 25.183 18.448 26.7448 16.5251 26.7448H3.47486C1.56173 26.7448 5.48359e-10 25.183 5.48359e-10 23.2601V3.47486C-3.37914e-05 1.56173 1.56173 0 3.47486 0Z" fill="#00733B"/>
<path opacity="0.302" fill-rule="evenodd" clip-rule="evenodd" d="M12.416 0V7.83797H20.0002L12.416 0Z" fill="white"/>
<path d="M8.31132 19.4732H7.01314L6.12492 17.9798L5.23666 19.4732H3.92871L5.47094 16.8768L4.1142 14.622H5.42211L6.12488 15.7933L6.81789 14.622H8.12584L6.77883 16.8865L8.31132 19.4732ZM8.77008 19.4732V14.622H10.0097V18.419H12.1181V19.4731H8.77008V19.4732ZM14.1678 19.5317C13.6798 19.5317 13.2503 19.3756 12.8794 19.073C12.5183 18.7801 12.3133 18.4092 12.284 17.97L13.3479 17.6577C13.3772 17.8919 13.4748 18.0969 13.6408 18.2531C13.8165 18.4093 14.0117 18.4873 14.2264 18.4873C14.4021 18.4873 14.5485 18.4483 14.6657 18.3702C14.773 18.2921 14.8316 18.1848 14.8316 18.0579C14.8316 17.9505 14.7828 17.8627 14.6949 17.7846C14.6071 17.7162 14.4899 17.6577 14.3533 17.6089C14.2166 17.5601 14.0507 17.5113 13.8848 17.4722C13.7091 17.4234 13.5334 17.3649 13.3674 17.2868C13.1918 17.2184 13.0356 17.1306 12.8989 17.0232C12.7525 16.9256 12.6451 16.7792 12.5573 16.5937C12.4694 16.418 12.4206 16.2033 12.4206 15.9593C12.4206 15.5591 12.5865 15.2272 12.9282 14.9637C13.2698 14.6904 13.6798 14.5635 14.158 14.5635C14.6363 14.5635 15.056 14.6806 15.4074 14.9051C15.7588 15.1394 15.9833 15.442 16.0712 15.8129L14.9584 16.2814C14.9096 16.0764 14.812 15.9105 14.6754 15.7836C14.5387 15.6665 14.363 15.5982 14.158 15.5982C14.0019 15.5982 13.8847 15.6372 13.7871 15.6958C13.6993 15.7543 13.6603 15.8422 13.6603 15.9496C13.6603 16.0472 13.7188 16.135 13.8359 16.2033C13.9531 16.2619 14.1092 16.3107 14.2849 16.34C14.4606 16.3693 14.6558 16.4181 14.8608 16.4864C15.0756 16.5645 15.261 16.6426 15.4465 16.75C15.6221 16.8476 15.7686 17.0135 15.8857 17.2282C16.0126 17.4528 16.0711 17.7163 16.0711 18.0189C16.0711 18.4679 15.8955 18.8388 15.5441 19.1121C15.1926 19.3854 14.734 19.5317 14.1678 19.5317Z" fill="white"/>
</svg>
