<svg width="45" height="45" viewBox="0 0 45 45" fill="none" xmlns="http://www.w3.org/2000/svg">
<circle cx="22.5" cy="22.5" r="22.25" fill="#0073FE" fill-opacity="0.07" stroke="#0073FE" stroke-width="0.5"/>
<path d="M24.65 34C22.67 34 20.9833 33.3033 19.59 31.91C18.1967 30.5167 17.5 28.83 17.5 26.85V26.2175C15.9233 25.9608 14.6125 25.2229 13.5675 24.0037C12.5225 22.7846 12 21.35 12 19.7V13.1H15.3V12H17.5V16.4H15.3V15.3H14.2V19.7C14.2 20.91 14.6308 21.9458 15.4925 22.8075C16.3542 23.6692 17.39 24.1 18.6 24.1C19.81 24.1 20.8458 23.6692 21.7075 22.8075C22.5692 21.9458 23 20.91 23 19.7V15.3H21.9V16.4H19.7V12H21.9V13.1H25.2V19.7C25.2 21.35 24.6775 22.7846 23.6325 24.0037C22.5875 25.2229 21.2767 25.9608 19.7 26.2175V26.85C19.7 28.225 20.1813 29.3938 21.1438 30.3563C22.1062 31.3188 23.275 31.8 24.65 31.8C26.025 31.8 27.1938 31.3188 28.1562 30.3563C29.1187 29.3938 29.6 28.225 29.6 26.85V25.0075C28.9583 24.7875 28.4312 24.3933 28.0187 23.825C27.6062 23.2567 27.4 22.615 27.4 21.9C27.4 20.9833 27.7208 20.2042 28.3625 19.5625C29.0042 18.9208 29.7833 18.6 30.7 18.6C31.6167 18.6 32.3958 18.9208 33.0375 19.5625C33.6792 20.2042 34 20.9833 34 21.9C34 22.615 33.7938 23.2567 33.3813 23.825C32.9688 24.3933 32.4417 24.7875 31.8 25.0075V26.85C31.8 28.83 31.1033 30.5167 29.71 31.91C28.3167 33.3033 26.63 34 24.65 34ZM30.7 23C31.0117 23 31.2729 22.8946 31.4837 22.6838C31.6946 22.4729 31.8 22.2117 31.8 21.9C31.8 21.5883 31.6946 21.3271 31.4837 21.1163C31.2729 20.9054 31.0117 20.8 30.7 20.8C30.3883 20.8 30.1271 20.9054 29.9163 21.1163C29.7054 21.3271 29.6 21.5883 29.6 21.9C29.6 22.2117 29.7054 22.4729 29.9163 22.6838C30.1271 22.8946 30.3883 23 30.7 23Z" fill="#0073FE"/>
</svg>
