<svg width="650" height="281" viewBox="0 0 650 281" fill="none" xmlns="http://www.w3.org/2000/svg">
<g clip-path="url(#clip0_733_5142)">
<path d="M628.914 229.202C620.452 190.097 603.314 151.822 582.698 117.412C549.22 61.5309 499.197 12.3849 432.641 -2.24539C281.818 -35.3987 249.391 109.738 215.456 128.892C181.52 148.047 97.0596 137.734 51.0587 198.882C5.05866 260.03 10.3371 356.542 10.3371 356.542H635.497C636.922 313.871 637.928 270.855 628.914 229.202Z" fill="#FF4081"/>
<path opacity="0.7" d="M628.914 229.202C620.452 190.097 603.314 151.822 582.698 117.412C549.22 61.5309 499.197 12.3849 432.641 -2.24539C281.818 -35.3987 249.391 109.738 215.456 128.892C181.52 148.047 97.0596 137.734 51.0587 198.882C5.05866 260.03 10.3371 356.542 10.3371 356.542H635.497C636.922 313.871 637.928 270.855 628.914 229.202Z" fill="white"/>
<path d="M605.205 243.594L605.207 243.589C605.222 243.55 605.204 243.506 605.165 243.49C605.126 243.473 605.08 243.491 605.063 243.531C602.706 248.974 601.049 254.69 599.665 260.454C598.329 266.235 597.362 272.099 596.686 278L596.264 282.435C596.199 283.175 596.118 283.914 596.065 284.654L595.944 286.879C595.879 288.364 595.788 289.847 595.747 291.332L595.787 295.789L595.837 298.016C595.87 298.759 595.923 299.499 595.973 300.24C596.086 301.722 596.176 303.204 596.312 304.682C596.596 307.636 597.039 310.575 597.497 313.501C597.502 313.539 597.535 313.567 597.574 313.567C597.618 313.567 597.652 313.532 597.652 313.488V313.484C597.644 311.999 597.582 310.521 597.548 309.043C597.506 307.565 597.376 306.096 597.397 304.617C597.405 303.14 597.366 301.668 597.349 300.194L597.309 297.985L597.348 295.775L597.368 291.359L597.489 286.946L597.535 284.738C597.563 284.002 597.618 283.268 597.659 282.533L597.93 278.122C598.446 272.252 599.253 266.404 600.428 260.622C601.599 254.846 603.05 249.094 605.205 243.594Z" fill="#263238"/>
<path d="M605.838 266.687C605.85 266.647 605.829 266.603 605.789 266.589C605.748 266.574 605.704 266.596 605.69 266.637C604.419 270.306 603.404 274.06 602.546 277.853C601.726 281.652 601.083 285.502 600.69 289.38C600.298 293.244 599.866 297.113 599.814 300.999C599.754 304.882 599.815 308.771 600.227 312.651C600.231 312.688 600.259 312.717 600.296 312.721C600.34 312.726 600.378 312.694 600.382 312.651C600.831 308.782 601.105 304.923 601.373 301.066C601.647 297.21 601.684 293.343 601.935 289.485C602.169 285.639 602.651 281.809 603.313 278.004C603.96 274.196 604.769 270.405 605.838 266.687Z" fill="#263238"/>
<path d="M618.641 274.81C618.617 274.774 618.569 274.763 618.533 274.786C615.328 276.814 612.471 279.37 609.973 282.249C608.745 283.71 607.604 285.24 606.626 286.903L605.938 288.201L605.4 289.55C605.205 289.997 605.07 290.457 604.93 290.917C604.791 291.377 604.637 291.835 604.512 292.298C603.551 296.008 602.914 299.789 602.741 303.59C602.586 307.388 602.659 311.193 603.166 314.963C603.171 314.998 603.201 315.028 603.238 315.031C603.282 315.034 603.319 315.002 603.322 314.959L604.298 303.7C604.686 299.978 604.925 296.234 605.724 292.599C605.825 292.146 605.956 291.704 606.07 291.255C606.186 290.806 606.299 290.356 606.465 289.929L606.923 288.627L607.511 287.398C608.378 285.772 609.439 284.216 610.579 282.741C612.865 279.79 615.554 277.101 618.616 274.918L618.621 274.915C618.653 274.891 618.662 274.844 618.641 274.81Z" fill="#263238"/>
<path d="M594.49 300.551C594.069 295.553 593.244 290.605 592.465 285.66C591.684 280.714 590.822 275.782 589.918 270.86C588.981 265.943 588.001 261.036 586.941 256.147C586.932 256.106 586.892 256.079 586.85 256.086C586.808 256.093 586.78 256.134 586.787 256.177C587.642 261.103 588.416 266.045 589.147 270.989C589.898 275.932 590.604 280.879 591.228 285.836C591.84 290.795 592.315 295.765 592.937 300.715L594.765 315.593C594.769 315.63 594.8 315.661 594.839 315.662C594.882 315.664 594.919 315.631 594.92 315.587C594.977 314.334 594.979 313.081 595.01 311.823C595.021 310.567 594.959 309.316 594.937 308.061C594.892 305.55 594.678 303.053 594.49 300.551Z" fill="#263238"/>
<path d="M591.492 300.48C591.225 298.5 590.861 296.532 590.484 294.57L589.782 291.652C589.552 290.679 589.335 289.704 589.05 288.744C588.053 284.872 586.778 281.066 585.23 277.378L584.63 276.003L583.964 274.658C583.54 273.752 583.028 272.889 582.542 272.015C581.497 270.313 580.412 268.613 578.935 267.232C578.905 267.204 578.858 267.204 578.828 267.233C578.798 267.263 578.797 267.312 578.827 267.344L578.834 267.352C580.2 268.767 581.196 270.516 582.133 272.243C582.568 273.132 583.027 274.006 583.399 274.924L583.986 276.284L584.506 277.673C585.891 281.373 587.001 285.176 587.837 289.042C588.292 290.965 588.594 292.925 588.967 294.864L589.435 297.793C589.604 298.767 589.813 299.734 589.95 300.715C590.262 302.669 590.621 304.617 590.963 306.574C591.266 308.534 591.624 310.491 592.037 312.45C592.044 312.485 592.076 312.514 592.114 312.514C592.157 312.514 592.192 312.479 592.192 312.436C592.201 310.439 592.154 308.441 592.053 306.446C591.936 304.451 591.7 302.468 591.492 300.48Z" fill="#263238"/>
<path d="M587.494 263.302C587.494 263.302 579.304 261.411 577.415 252.592C575.524 243.772 581.615 247.552 576.154 233.692C570.694 219.832 571.954 216.682 573.845 212.692C575.735 208.702 576.784 209.962 578.465 215.212C580.145 220.462 586.235 228.652 588.545 243.982C590.854 259.311 587.494 263.302 587.494 263.302Z" fill="#FF4081"/>
<path d="M603.664 248.392C603.664 248.392 598.204 246.502 597.994 236.212C597.784 225.922 601.984 228.022 602.614 215.213C603.244 202.403 604.084 193.373 606.394 193.163C608.704 192.953 614.794 199.463 616.894 213.743C618.994 228.022 614.164 237.472 609.964 241.673C605.764 245.872 603.664 248.392 603.664 248.392Z" fill="#FF4081"/>
<path d="M584.554 275.691C584.554 275.691 583.294 268.131 580.775 264.561C578.254 260.991 572.795 257.841 569.225 250.912C565.655 243.981 561.666 240.621 561.876 250.491C562.085 260.361 566.496 265.401 571.955 268.761C577.414 272.121 584.554 275.691 584.554 275.691Z" fill="#FF4081"/>
<path d="M582.245 288.711C582.245 288.711 577.205 279.051 569.854 271.911C562.505 264.772 556.624 261.202 558.724 264.772C560.824 268.341 563.345 268.132 566.915 274.432C570.484 280.732 569.435 285.351 574.475 288.922C579.514 292.491 582.245 288.711 582.245 288.711Z" fill="#FF4081"/>
<path d="M603.245 276.111C603.245 276.111 600.095 272.121 601.775 263.722C603.455 255.322 607.235 257.422 611.435 253.012C615.635 248.603 614.795 247.973 618.994 243.352C623.194 238.732 626.974 236.213 628.654 238.103C630.334 239.993 627.814 245.873 625.294 249.233C622.774 252.593 618.784 254.273 616.894 258.473C615.004 262.673 615.844 269.392 611.014 272.542C606.184 275.691 603.245 276.111 603.245 276.111Z" fill="#FF4081"/>
<path d="M613.744 278.421C613.744 278.421 621.305 269.812 626.764 263.512C632.224 257.212 634.324 252.382 634.534 256.581C634.743 260.781 636.424 264.142 632.013 269.601C627.604 275.061 613.744 278.421 613.744 278.421Z" fill="#FF4081"/>
<path d="M609.754 292.281C609.754 292.281 609.544 288.921 621.514 281.151C633.484 273.382 638.524 271.912 637.264 275.061C636.004 278.211 630.754 281.361 625.084 287.031C619.414 292.701 609.754 292.281 609.754 292.281Z" fill="#FF4081"/>
<path d="M587.994 262.407C587.994 262.407 585.184 247.342 582.245 236.632C579.305 225.922 577.415 219.413 577.415 219.413" stroke="#263238" stroke-miterlimit="10" stroke-linecap="round" stroke-linejoin="round"/>
<path d="M603.18 248.55C603.18 248.55 608.283 232.222 609.964 222.352C611.643 212.482 609.754 205.133 608.914 200.722" stroke="#263238" stroke-miterlimit="10" stroke-linecap="round" stroke-linejoin="round"/>
<path d="M583.892 275.376C583.892 275.376 580.775 269.811 576.154 264.352C571.535 258.892 567.964 255.952 565.864 250.703" stroke="#263238" stroke-miterlimit="10" stroke-linecap="round" stroke-linejoin="round"/>
<path d="M603.244 276.112C603.244 276.112 604.924 266.031 608.914 260.782C612.905 255.532 620.884 247.342 624.034 242.092" stroke="#263238" stroke-miterlimit="10" stroke-linecap="round" stroke-linejoin="round"/>
<path d="M578.422 113.547C594.869 113.547 608.202 100.214 608.202 83.7674C608.202 67.3206 594.869 53.9878 578.422 53.9878C561.976 53.9878 548.643 67.3206 548.643 83.7674C548.643 100.214 561.976 113.547 578.422 113.547Z" fill="#263238" stroke="#263238" stroke-miterlimit="10" stroke-linecap="round" stroke-linejoin="round"/>
<path d="M597.371 102.723C607.838 92.256 607.838 75.285 597.371 64.8177C586.903 54.3503 569.932 54.3503 559.465 64.8177C548.998 75.285 548.998 92.256 559.465 102.723C569.932 113.191 586.903 113.191 597.371 102.723Z" fill="white" stroke="#263238" stroke-miterlimit="10" stroke-linecap="round" stroke-linejoin="round"/>
<path d="M569.123 84.0243L578.422 83.7676L586.603 100.99" fill="white"/>
<path d="M569.123 84.0243L578.422 83.7676L586.603 100.99" stroke="#263238" stroke-miterlimit="10" stroke-linecap="round" stroke-linejoin="round"/>
<path d="M165.19 20.8032L169.123 24.6958L171.296 21.2408L165.19 20.8032Z" stroke="#263238" stroke-width="0.5" stroke-miterlimit="10" stroke-linecap="round" stroke-linejoin="round"/>
<path d="M115.948 27.3398L119.881 31.2316L122.054 27.7765L115.948 27.3398Z" stroke="#263238" stroke-width="0.5" stroke-miterlimit="10" stroke-linecap="round" stroke-linejoin="round"/>
<path d="M84.9904 11.5044L88.9237 15.3961L91.0969 11.9419L84.9904 11.5044Z" stroke="#263238" stroke-width="0.5" stroke-miterlimit="10" stroke-linecap="round" stroke-linejoin="round"/>
<path d="M209.167 7.16357L206.693 12.113L210.653 13.1029L209.167 7.16357Z" stroke="#263238" stroke-width="0.5" stroke-miterlimit="10" stroke-linecap="round" stroke-linejoin="round"/>
<path d="M165.483 49.9356L161.637 45.958L159.389 49.3643L165.483 49.9356Z" stroke="#263238" stroke-width="0.5" stroke-miterlimit="10" stroke-linecap="round" stroke-linejoin="round"/>
<path d="M142.927 51.4142L139.08 47.4375L136.832 50.8438L142.927 51.4142Z" stroke="#263238" stroke-width="0.5" stroke-miterlimit="10" stroke-linecap="round" stroke-linejoin="round"/>
<path d="M191.52 33.6835L196.02 30.4643L192.982 27.7388L191.52 33.6835Z" stroke="#263238" stroke-width="0.5" stroke-miterlimit="10" stroke-linecap="round" stroke-linejoin="round"/>
<path d="M140.859 17.6581L145.36 14.4389L142.322 11.7134L140.859 17.6581Z" stroke="#263238" stroke-width="0.5" stroke-miterlimit="10" stroke-linecap="round" stroke-linejoin="round"/>
<path d="M46.8633 48.9863L44.3882 53.9357L48.3477 54.9256L46.8633 48.9863Z" stroke="#263238" stroke-width="0.5" stroke-miterlimit="10" stroke-linecap="round" stroke-linejoin="round"/>
<path d="M58.2303 35.7199L54.3837 31.7432L52.1355 35.1494L58.2303 35.7199Z" stroke="#263238" stroke-width="0.5" stroke-miterlimit="10" stroke-linecap="round" stroke-linejoin="round"/>
<path d="M58.9037 45.2437L57.441 51.1875" stroke="#263238" stroke-width="0.5" stroke-miterlimit="10" stroke-linecap="round" stroke-linejoin="round"/>
<path d="M163.726 74.7567L168.226 71.5367L165.189 68.812L163.726 74.7567Z" stroke="#263238" stroke-width="0.5" stroke-miterlimit="10" stroke-linecap="round" stroke-linejoin="round"/>
<path d="M283.614 36.1709L287.547 40.0635L289.72 36.6084L283.614 36.1709Z" stroke="#263238" stroke-width="0.5" stroke-miterlimit="10" stroke-linecap="round" stroke-linejoin="round"/>
<path d="M328.007 46.2744L325.532 51.2238L329.492 52.2137L328.007 46.2744Z" stroke="#263238" stroke-width="0.5" stroke-miterlimit="10" stroke-linecap="round" stroke-linejoin="round"/>
<path d="M268.103 20.0996L265.629 25.049L269.588 26.0389L268.103 20.0996Z" stroke="#263238" stroke-width="0.5" stroke-miterlimit="10" stroke-linecap="round" stroke-linejoin="round"/>
<path d="M353.152 49.9727L350.678 54.9221L354.637 55.9119L353.152 49.9727Z" stroke="#263238" stroke-width="0.5" stroke-miterlimit="10" stroke-linecap="round" stroke-linejoin="round"/>
<path d="M420.661 -5.19775L418.187 -0.248352L422.146 0.74153L420.661 -5.19775Z" stroke="#263238" stroke-width="0.5" stroke-miterlimit="10" stroke-linecap="round" stroke-linejoin="round"/>
<path d="M283.908 54.4556L280.061 50.478L277.813 53.8843L283.908 54.4556Z" stroke="#263238" stroke-width="0.5" stroke-miterlimit="10" stroke-linecap="round" stroke-linejoin="round"/>
<path d="M478.965 53.8594L475.118 49.8818L472.87 53.2881L478.965 53.8594Z" stroke="#263238" stroke-width="0.5" stroke-miterlimit="10" stroke-linecap="round" stroke-linejoin="round"/>
<path d="M309.202 18.3397L313.702 15.1206L310.664 12.395L309.202 18.3397Z" stroke="#263238" stroke-width="0.5" stroke-miterlimit="10" stroke-linecap="round" stroke-linejoin="round"/>
<path d="M259.283 13.1381L263.784 9.91892L260.746 7.19336L259.283 13.1381Z" stroke="#263238" stroke-width="0.5" stroke-miterlimit="10" stroke-linecap="round" stroke-linejoin="round"/>
<path d="M333.61 24.6678L338.11 21.4487L335.072 18.7231L333.61 24.6678Z" stroke="#263238" stroke-width="0.5" stroke-miterlimit="10" stroke-linecap="round" stroke-linejoin="round"/>
<path d="M449.264 132.681L453.765 129.462L450.726 126.736L449.264 132.681Z" stroke="#263238" stroke-width="0.5" stroke-miterlimit="10" stroke-linecap="round" stroke-linejoin="round"/>
<path d="M83.1101 61.5258L87.6102 58.3066L84.5728 55.5811L83.1101 61.5258Z" stroke="#263238" stroke-width="0.5" stroke-miterlimit="10" stroke-linecap="round" stroke-linejoin="round"/>
<path d="M246.409 105.895L242.475 102.002L240.302 105.457L246.409 105.895Z" stroke="#263238" stroke-width="0.5" stroke-miterlimit="10" stroke-linecap="round" stroke-linejoin="round"/>
<path d="M284.496 103.306L280.563 99.4141L278.389 102.869L284.496 103.306Z" stroke="#263238" stroke-width="0.5" stroke-miterlimit="10" stroke-linecap="round" stroke-linejoin="round"/>
<path d="M327.829 108.237L323.896 104.345L321.723 107.8L327.829 108.237Z" stroke="#263238" stroke-width="0.5" stroke-miterlimit="10" stroke-linecap="round" stroke-linejoin="round"/>
<path d="M220.288 90.929L222.763 85.9796L218.803 84.9897L220.288 90.929Z" stroke="#263238" stroke-width="0.5" stroke-miterlimit="10" stroke-linecap="round" stroke-linejoin="round"/>
<path d="M487.608 95.8685L490.084 90.9191L486.124 89.9292L487.608 95.8685Z" stroke="#263238" stroke-width="0.5" stroke-miterlimit="10" stroke-linecap="round" stroke-linejoin="round"/>
<path d="M613.867 101.306L616.341 96.3566L612.381 95.3667L613.867 101.306Z" stroke="#263238" stroke-width="0.5" stroke-miterlimit="10" stroke-linecap="round" stroke-linejoin="round"/>
<path d="M548.64 153.19L551.116 148.241L547.156 147.251L548.64 153.19Z" stroke="#263238" stroke-width="0.5" stroke-miterlimit="10" stroke-linecap="round" stroke-linejoin="round"/>
<path d="M246.115 87.6104L249.961 91.588L252.21 88.1817L246.115 87.6104Z" stroke="#263238" stroke-width="0.5" stroke-miterlimit="10" stroke-linecap="round" stroke-linejoin="round"/>
<path d="M268.671 86.1313L272.518 90.109L274.766 86.7027L268.671 86.1313Z" stroke="#263238" stroke-width="0.5" stroke-miterlimit="10" stroke-linecap="round" stroke-linejoin="round"/>
<path d="M337.254 263.348L341.102 267.326L343.35 263.919L337.254 263.348Z" stroke="#263238" stroke-width="0.5" stroke-miterlimit="10" stroke-linecap="round" stroke-linejoin="round"/>
<path d="M592.423 129.207L587.922 132.426L590.96 135.152L592.423 129.207Z" stroke="#263238" stroke-width="0.5" stroke-miterlimit="10" stroke-linecap="round" stroke-linejoin="round"/>
<path d="M203.979 47.9292L199.478 51.1483L202.517 53.8739L203.979 47.9292Z" stroke="#263238" stroke-width="0.5" stroke-miterlimit="10" stroke-linecap="round" stroke-linejoin="round"/>
<path d="M364.735 88.5599L367.209 83.6105L363.25 82.6206L364.735 88.5599Z" stroke="#263238" stroke-width="0.5" stroke-miterlimit="10" stroke-linecap="round" stroke-linejoin="round"/>
<path d="M339.59 84.8612L342.064 79.9118L338.105 78.9229L339.59 84.8612Z" stroke="#263238" stroke-width="0.5" stroke-miterlimit="10" stroke-linecap="round" stroke-linejoin="round"/>
<path d="M354.157 86.3584L349.656 89.5775L352.695 92.3031L354.157 86.3584Z" stroke="#263238" stroke-width="0.5" stroke-miterlimit="10" stroke-linecap="round" stroke-linejoin="round"/>
<path d="M476.742 13.0929L472.808 9.20117L470.635 12.6563L476.742 13.0929Z" stroke="#263238" stroke-width="0.5" stroke-miterlimit="10" stroke-linecap="round" stroke-linejoin="round"/>
<path d="M575.498 163.253L571.565 159.361L569.392 162.816L575.498 163.253Z" stroke="#263238" stroke-width="0.5" stroke-miterlimit="10" stroke-linecap="round" stroke-linejoin="round"/>
<path d="M619.28 171.897L615.347 168.004L613.173 171.459L619.28 171.897Z" stroke="#263238" stroke-width="0.5" stroke-miterlimit="10" stroke-linecap="round" stroke-linejoin="round"/>
<path d="M83.591 91.2718L86.0652 86.3224L82.1057 85.3325L83.591 91.2718Z" stroke="#263238" stroke-width="0.5" stroke-miterlimit="10" stroke-linecap="round" stroke-linejoin="round"/>
<path d="M511.978 51.89L514.454 46.9406L510.494 45.9507L511.978 51.89Z" stroke="#263238" stroke-width="0.5" stroke-miterlimit="10" stroke-linecap="round" stroke-linejoin="round"/>
<path d="M58.4462 87.5736L60.9205 82.6242L56.9609 81.6353L58.4462 87.5736Z" stroke="#263238" stroke-width="0.5" stroke-miterlimit="10" stroke-linecap="round" stroke-linejoin="round"/>
<path d="M45.8735 106.433L48.3477 101.484L44.3882 100.494L45.8735 106.433Z" stroke="#263238" stroke-width="0.5" stroke-miterlimit="10" stroke-linecap="round" stroke-linejoin="round"/>
<path d="M127.691 83.0903L131.537 87.0679L133.786 83.6617L127.691 83.0903Z" stroke="#263238" stroke-width="0.5" stroke-miterlimit="10" stroke-linecap="round" stroke-linejoin="round"/>
<path d="M17.797 66.1885L21.6435 70.1661L23.8918 66.7598L17.797 66.1885Z" stroke="#263238" stroke-width="0.5" stroke-miterlimit="10" stroke-linecap="round" stroke-linejoin="round"/>
<path d="M517.488 7.88965L512.987 11.1097L516.025 13.8344L517.488 7.88965Z" stroke="#263238" stroke-width="0.5" stroke-miterlimit="10" stroke-linecap="round" stroke-linejoin="round"/>
<path d="M558.328 46.9341L553.827 50.1532L556.865 52.8788L558.328 46.9341Z" stroke="#263238" stroke-width="0.5" stroke-miterlimit="10" stroke-linecap="round" stroke-linejoin="round"/>
<path d="M68.5123 92.2896L71.5507 95.0151" stroke="#263238" stroke-width="0.5" stroke-miterlimit="10" stroke-linecap="round" stroke-linejoin="round"/>
<path d="M46.1564 -3.46729L41.6562 -0.24814L44.6937 2.47742L46.1564 -3.46729Z" stroke="#263238" stroke-width="0.5" stroke-miterlimit="10" stroke-linecap="round" stroke-linejoin="round"/>
<path d="M304.818 73.1436L300.318 76.3627L303.356 79.0882L304.818 73.1436Z" stroke="#263238" stroke-width="0.5" stroke-miterlimit="10" stroke-linecap="round" stroke-linejoin="round"/>
<path d="M552.168 189.062L556.101 192.954L558.274 189.5L552.168 189.062Z" stroke="#263238" stroke-width="0.5" stroke-miterlimit="10" stroke-linecap="round" stroke-linejoin="round"/>
<path d="M42.3976 276.961L46.3309 280.853L48.5032 277.398L42.3976 276.961Z" stroke="#263238" stroke-width="0.5" stroke-miterlimit="10" stroke-linecap="round" stroke-linejoin="round"/>
<path d="M83.7692 119.709L87.7025 123.601L89.8757 120.146L83.7692 119.709Z" stroke="#263238" stroke-width="0.5" stroke-miterlimit="10" stroke-linecap="round" stroke-linejoin="round"/>
<path d="M518.163 80.2002L515.688 85.1496L519.647 86.1395L518.163 80.2002Z" stroke="#263238" stroke-width="0.5" stroke-miterlimit="10" stroke-linecap="round" stroke-linejoin="round"/>
<path d="M613.867 221.381L616.341 216.431L612.381 215.441L613.867 221.381Z" stroke="#263238" stroke-width="0.5" stroke-miterlimit="10" stroke-linecap="round" stroke-linejoin="round"/>
<path d="M548.64 273.265L551.116 268.316L547.156 267.326L548.64 273.265Z" stroke="#263238" stroke-width="0.5" stroke-miterlimit="10" stroke-linecap="round" stroke-linejoin="round"/>
<path d="M592.423 249.282L587.922 252.502L590.96 255.226L592.423 249.282Z" stroke="#263238" stroke-width="0.5" stroke-miterlimit="10" stroke-linecap="round" stroke-linejoin="round"/>
<path d="M575.498 283.328L571.565 279.436L569.392 282.891L575.498 283.328Z" stroke="#263238" stroke-width="0.5" stroke-miterlimit="10" stroke-linecap="round" stroke-linejoin="round"/>
<path d="M518.163 200.275L515.688 205.224L519.647 206.214L518.163 200.275Z" stroke="#263238" stroke-width="0.5" stroke-miterlimit="10" stroke-linecap="round" stroke-linejoin="round"/>
<path d="M165.483 140.336L161.637 136.358L159.389 139.764L165.483 140.336Z" stroke="#263238" stroke-width="0.5" stroke-miterlimit="10" stroke-linecap="round" stroke-linejoin="round"/>
<path d="M142.927 141.815L139.08 137.838L136.832 141.244L142.927 141.815Z" stroke="#263238" stroke-width="0.5" stroke-miterlimit="10" stroke-linecap="round" stroke-linejoin="round"/>
<path d="M110.386 127.024L106.539 123.046L104.291 126.453L110.386 127.024Z" stroke="#263238" stroke-width="0.5" stroke-miterlimit="10" stroke-linecap="round" stroke-linejoin="round"/>
<path d="M191.52 124.083L196.02 120.864L192.982 118.139L191.52 124.083Z" stroke="#263238" stroke-width="0.5" stroke-miterlimit="10" stroke-linecap="round" stroke-linejoin="round"/>
<path d="M236.539 134.905L241.04 131.686L238.002 128.96L236.539 134.905Z" stroke="#263238" stroke-width="0.5" stroke-miterlimit="10" stroke-linecap="round" stroke-linejoin="round"/>
<path d="M29.0536 132.417L26.5785 137.367L30.538 138.357L29.0536 132.417Z" stroke="#263238" stroke-width="0.5" stroke-miterlimit="10" stroke-linecap="round" stroke-linejoin="round"/>
<path d="M72.0081 143.084L69.5338 148.034L73.4933 149.024L72.0081 143.084Z" stroke="#263238" stroke-width="0.5" stroke-miterlimit="10" stroke-linecap="round" stroke-linejoin="round"/>
<path d="M58.2303 126.12L54.3837 122.143L52.1355 125.549L58.2303 126.12Z" stroke="#263238" stroke-width="0.5" stroke-miterlimit="10" stroke-linecap="round" stroke-linejoin="round"/>
<path d="M40.8617 169.742L45.3618 166.522L42.3244 163.797L40.8617 169.742Z" stroke="#263238" stroke-width="0.5" stroke-miterlimit="10" stroke-linecap="round" stroke-linejoin="round"/>
<path d="M163.726 165.157L168.226 161.937L165.189 159.212L163.726 165.157Z" stroke="#263238" stroke-width="0.5" stroke-miterlimit="10" stroke-linecap="round" stroke-linejoin="round"/>
<path d="M417.959 152.253L421.893 156.146L424.066 152.69L417.959 152.253Z" stroke="#263238" stroke-width="0.5" stroke-miterlimit="10" stroke-linecap="round" stroke-linejoin="round"/>
<path d="M328.007 136.674L325.532 141.624L329.492 142.614L328.007 136.674Z" stroke="#263238" stroke-width="0.5" stroke-miterlimit="10" stroke-linecap="round" stroke-linejoin="round"/>
<path d="M365.725 121.513L363.25 126.463L367.209 127.452L365.725 121.513Z" stroke="#263238" stroke-width="0.5" stroke-miterlimit="10" stroke-linecap="round" stroke-linejoin="round"/>
<path d="M393.127 64.5079L389.279 60.5303L387.031 63.9365L393.127 64.5079Z" stroke="#263238" stroke-width="0.5" stroke-miterlimit="10" stroke-linecap="round" stroke-linejoin="round"/>
<path d="M339.374 123.408L335.528 119.431L333.279 122.837L339.374 123.408Z" stroke="#263238" stroke-width="0.5" stroke-miterlimit="10" stroke-linecap="round" stroke-linejoin="round"/>
<path d="M282.15 169.677L286.65 166.457L283.613 163.732L282.15 169.677Z" stroke="#263238" stroke-width="0.5" stroke-miterlimit="10" stroke-linecap="round" stroke-linejoin="round"/>
<path d="M106.78 154.802L111.281 151.583L108.242 148.857L106.78 154.802Z" stroke="#263238" stroke-width="0.5" stroke-miterlimit="10" stroke-linecap="round" stroke-linejoin="round"/>
<path d="M284.496 193.706L280.563 189.814L278.389 193.269L284.496 193.706Z" stroke="#263238" stroke-width="0.5" stroke-miterlimit="10" stroke-linecap="round" stroke-linejoin="round"/>
<path d="M457.961 104.763L460.435 99.8136L456.476 98.8237L457.961 104.763Z" stroke="#263238" stroke-width="0.5" stroke-miterlimit="10" stroke-linecap="round" stroke-linejoin="round"/>
<path d="M431.278 286.358L433.752 281.408L429.792 280.418L431.278 286.358Z" stroke="#263238" stroke-width="0.5" stroke-miterlimit="10" stroke-linecap="round" stroke-linejoin="round"/>
<path d="M176.87 182.494L179.345 177.544L175.385 176.555L176.87 182.494Z" stroke="#263238" stroke-width="0.5" stroke-miterlimit="10" stroke-linecap="round" stroke-linejoin="round"/>
<path d="M246.115 178.011L249.961 181.988L252.21 178.582L246.115 178.011Z" stroke="#263238" stroke-width="0.5" stroke-miterlimit="10" stroke-linecap="round" stroke-linejoin="round"/>
<path d="M268.671 176.532L272.518 180.509L274.766 177.103L268.671 176.532Z" stroke="#263238" stroke-width="0.5" stroke-miterlimit="10" stroke-linecap="round" stroke-linejoin="round"/>
<path d="M301.212 191.323L305.058 195.3L307.307 191.894L301.212 191.323Z" stroke="#263238" stroke-width="0.5" stroke-miterlimit="10" stroke-linecap="round" stroke-linejoin="round"/>
<path d="M220.079 194.263L215.578 197.482L218.616 200.207L220.079 194.263Z" stroke="#263238" stroke-width="0.5" stroke-miterlimit="10" stroke-linecap="round" stroke-linejoin="round"/>
<path d="M191.437 183.99L186.936 187.209L189.975 189.935L191.437 183.99Z" stroke="#263238" stroke-width="0.5" stroke-miterlimit="10" stroke-linecap="round" stroke-linejoin="round"/>
<path d="M221.748 158.354L217.247 161.573L220.286 164.299L221.748 158.354Z" stroke="#263238" stroke-width="0.5" stroke-miterlimit="10" stroke-linecap="round" stroke-linejoin="round"/>
<path d="M368.275 153.682L370.749 148.734L366.791 147.744L368.275 153.682Z" stroke="#263238" stroke-width="0.5" stroke-miterlimit="10" stroke-linecap="round" stroke-linejoin="round"/>
<path d="M339.59 175.262L342.064 170.312L338.105 169.323L339.59 175.262Z" stroke="#263238" stroke-width="0.5" stroke-miterlimit="10" stroke-linecap="round" stroke-linejoin="round"/>
<path d="M354.157 176.758L349.656 179.977L352.695 182.703L354.157 176.758Z" stroke="#263238" stroke-width="0.5" stroke-miterlimit="10" stroke-linecap="round" stroke-linejoin="round"/>
<path d="M442.626 66.4443L438.126 69.6644L441.164 72.3899L442.626 66.4443Z" stroke="#263238" stroke-width="0.5" stroke-miterlimit="10" stroke-linecap="round" stroke-linejoin="round"/>
<path d="M127.985 191.775L124.051 187.883L121.878 191.337L127.985 191.775Z" stroke="#263238" stroke-width="0.5" stroke-miterlimit="10" stroke-linecap="round" stroke-linejoin="round"/>
<path d="M166.072 189.186L162.139 185.294L159.965 188.749L166.072 189.186Z" stroke="#263238" stroke-width="0.5" stroke-miterlimit="10" stroke-linecap="round" stroke-linejoin="round"/>
<path d="M143.496 187.958L145.97 183.009L142.01 182.019L143.496 187.958Z" stroke="#263238" stroke-width="0.5" stroke-miterlimit="10" stroke-linecap="round" stroke-linejoin="round"/>
<path d="M45.8735 196.833L48.3477 191.883L44.3882 190.894L45.8735 196.833Z" stroke="#263238" stroke-width="0.5" stroke-miterlimit="10" stroke-linecap="round" stroke-linejoin="round"/>
<path d="M150.247 172.012L154.094 175.989L156.342 172.583L150.247 172.012Z" stroke="#263238" stroke-width="0.5" stroke-miterlimit="10" stroke-linecap="round" stroke-linejoin="round"/>
<path d="M129.448 148.67L124.947 151.89L127.986 154.615L129.448 148.67Z" stroke="#263238" stroke-width="0.5" stroke-miterlimit="10" stroke-linecap="round" stroke-linejoin="round"/>
<path d="M232.964 277.234L235.44 272.286L231.48 271.296L232.964 277.234Z" stroke="#263238" stroke-width="0.5" stroke-miterlimit="10" stroke-linecap="round" stroke-linejoin="round"/>
<path d="M217.887 278.253L220.924 280.978" stroke="#263238" stroke-width="0.5" stroke-miterlimit="10" stroke-linecap="round" stroke-linejoin="round"/>
<path d="M304.818 163.544L300.318 166.763L303.356 169.489L304.818 163.544Z" stroke="#263238" stroke-width="0.5" stroke-miterlimit="10" stroke-linecap="round" stroke-linejoin="round"/>
<path d="M127.102 215.944L131.036 219.836L133.209 216.382L127.102 215.944Z" stroke="#263238" stroke-width="0.5" stroke-miterlimit="10" stroke-linecap="round" stroke-linejoin="round"/>
<path d="M209.583 223.458L207.108 228.407L211.068 229.397L209.583 223.458Z" stroke="#263238" stroke-width="0.5" stroke-miterlimit="10" stroke-linecap="round" stroke-linejoin="round"/>
<path d="M149.679 217.173L147.205 222.122L151.164 223.111L149.679 217.173Z" stroke="#263238" stroke-width="0.5" stroke-miterlimit="10" stroke-linecap="round" stroke-linejoin="round"/>
<path d="M234.728 227.156L232.254 232.106L236.213 233.096L234.728 227.156Z" stroke="#263238" stroke-width="0.5" stroke-miterlimit="10" stroke-linecap="round" stroke-linejoin="round"/>
<path d="M247.301 208.297L244.826 213.247L248.785 214.237L247.301 208.297Z" stroke="#263238" stroke-width="0.5" stroke-miterlimit="10" stroke-linecap="round" stroke-linejoin="round"/>
<path d="M117.4 272.044L113.552 268.067L111.304 271.473L117.4 272.044Z" stroke="#263238" stroke-width="0.5" stroke-miterlimit="10" stroke-linecap="round" stroke-linejoin="round"/>
<path d="M191.52 215.387L196.02 212.168L192.982 209.442L191.52 215.387Z" stroke="#263238" stroke-width="0.5" stroke-miterlimit="10" stroke-linecap="round" stroke-linejoin="round"/>
<path d="M46.8633 230.69L44.3882 235.64L48.3477 236.63L46.8633 230.69Z" stroke="#263238" stroke-width="0.5" stroke-miterlimit="10" stroke-linecap="round" stroke-linejoin="round"/>
<path d="M72.0081 234.389L69.5338 239.338L73.4933 240.328L72.0081 234.389Z" stroke="#263238" stroke-width="0.5" stroke-miterlimit="10" stroke-linecap="round" stroke-linejoin="round"/>
<path d="M58.2303 217.424L54.3837 213.447L52.1355 216.854L58.2303 217.424Z" stroke="#263238" stroke-width="0.5" stroke-miterlimit="10" stroke-linecap="round" stroke-linejoin="round"/>
<path d="M268.103 221.693L265.629 226.642L269.588 227.631L268.103 221.693Z" stroke="#263238" stroke-width="0.5" stroke-miterlimit="10" stroke-linecap="round" stroke-linejoin="round"/>
<path d="M353.152 231.676L350.678 236.626L354.637 237.616L353.152 231.676Z" stroke="#263238" stroke-width="0.5" stroke-miterlimit="10" stroke-linecap="round" stroke-linejoin="round"/>
<path d="M365.725 212.817L363.25 217.767L367.209 218.757L365.725 212.817Z" stroke="#263238" stroke-width="0.5" stroke-miterlimit="10" stroke-linecap="round" stroke-linejoin="round"/>
<path d="M261.351 237.638L257.504 233.662L255.256 237.068L261.351 237.638Z" stroke="#263238" stroke-width="0.5" stroke-miterlimit="10" stroke-linecap="round" stroke-linejoin="round"/>
<path d="M339.374 214.712L335.528 210.735L333.279 214.142L339.374 214.712Z" stroke="#263238" stroke-width="0.5" stroke-miterlimit="10" stroke-linecap="round" stroke-linejoin="round"/>
<path d="M191.52 251.192L196.02 250.501L192.982 249.917L191.52 251.192Z" stroke="#263238" stroke-width="0.5" stroke-miterlimit="10" stroke-linecap="round" stroke-linejoin="round"/>
<path d="M437.435 250.024H432.535V269.623H437.435V250.024Z" fill="#263238" stroke="#263238" stroke-miterlimit="10" stroke-linecap="round" stroke-linejoin="round"/>
<path d="M513.072 250.024H508.173V269.623H513.072V250.024Z" fill="#263238" stroke="#263238" stroke-miterlimit="10" stroke-linecap="round" stroke-linejoin="round"/>
<path d="M507.18 278.055H436.745V192.519C436.745 188.921 439.663 186.002 443.262 186.002H500.664C504.263 186.002 507.181 188.92 507.181 192.519L507.18 278.055Z" fill="#ABABAB" stroke="#263238" stroke-miterlimit="10" stroke-linecap="round" stroke-linejoin="round"/>
<path d="M475.355 334.468V273.921H468.905V334.077L468.669 334.241L435.29 347.715V351.697H440.496V348.94L469.42 344.687L469.955 351.697H473.813L474.346 344.731L502.966 348.94V351.697H508.173V347.715L475.355 334.468Z" fill="#263238" stroke="#263238" stroke-miterlimit="10" stroke-linecap="round" stroke-linejoin="round"/>
<path d="M482.207 280.616H461.717V287.873H482.207V280.616Z" fill="#263238" stroke="#263238" stroke-miterlimit="10" stroke-linecap="round" stroke-linejoin="round"/>
<path d="M510.468 281.043H433.457C432.09 281.043 430.982 279.934 430.982 278.568V267.296C430.982 265.93 432.09 264.821 433.457 264.821H510.468C511.835 264.821 512.943 265.93 512.943 267.296V278.568C512.943 279.934 511.835 281.043 510.468 281.043Z" fill="#ABABAB" stroke="#263238" stroke-miterlimit="10" stroke-linecap="round" stroke-linejoin="round"/>
<path d="M434.766 253.699H428.773C427.637 253.699 426.717 252.779 426.717 251.644V240.751C426.717 239.615 427.637 238.695 428.773 238.695H434.766C435.901 238.695 436.822 239.615 436.822 240.751V251.644C436.822 252.779 435.901 253.699 434.766 253.699Z" fill="#ABABAB" stroke="#263238" stroke-miterlimit="10" stroke-linecap="round" stroke-linejoin="round"/>
<path d="M514.843 253.699H508.85C507.714 253.699 506.794 252.779 506.794 251.644V240.751C506.794 239.615 507.714 238.695 508.85 238.695H514.843C515.979 238.695 516.899 239.615 516.899 240.751V251.644C516.9 252.779 515.98 253.699 514.843 253.699Z" fill="#ABABAB" stroke="#263238" stroke-miterlimit="10" stroke-linecap="round" stroke-linejoin="round"/>
<path d="M467.984 138.741L488.551 116.587L492.575 145.65L467.984 138.741Z" fill="#FF4081" stroke="#263238" stroke-miterlimit="10" stroke-linecap="round" stroke-linejoin="round"/>
<path d="M488.551 116.587L483.02 122.546L488.917 119.228L488.551 116.587Z" fill="#263238"/>
<path d="M489.784 125.493L489.382 122.585L475.322 130.838L468.906 137.748L489.784 125.493Z" fill="#263238"/>
<path d="M490.719 132.242L490.326 129.403L470.477 139.441L474.339 140.527L490.719 132.242Z" fill="#263238"/>
<path d="M491.303 136.466L476.401 141.105L481.196 142.453L491.68 139.189L491.303 136.466Z" fill="#263238"/>
<path d="M472.543 138.195C472.543 138.195 466.41 137.62 463.727 142.986C461.044 148.352 462.961 158.51 463.152 159.277C463.344 160.043 464.494 166.176 462.194 168.668C459.894 171.16 447.053 181.318 446.287 189.751C445.52 198.183 450.886 205.658 462.194 208.916C473.501 212.174 488.259 210.449 494.585 206.616C500.909 202.784 505.892 192.625 503.784 185.918C501.675 179.21 494.393 173.076 492.86 167.135C491.327 161.194 498.034 158.319 495.351 150.078C492.668 141.837 484.426 136.853 480.21 136.086C475.993 135.319 474.46 134.745 472.543 138.195Z" fill="#263238" stroke="#263238" stroke-miterlimit="10" stroke-linecap="round" stroke-linejoin="round"/>
<path d="M466.985 176.334C466.985 176.334 462.274 185.012 462.507 188.048C462.74 191.083 460.405 214.204 459.938 215.138C459.471 216.072 445.459 235.456 444.291 245.965C443.123 256.474 442.656 261.612 452.231 266.75C461.806 271.888 485.16 271.888 493.334 268.618C501.508 265.349 502.676 254.606 501.508 246.666C500.34 238.725 497.071 231.953 493.568 225.647C490.065 219.341 485.627 212.335 484.46 206.964C483.292 201.592 483.992 186.88 484.227 185.478C484.46 184.077 482.51 177.484 482.51 177.484L466.985 176.334Z" fill="#263238" stroke="#263238" stroke-miterlimit="10" stroke-linecap="round" stroke-linejoin="round"/>
<path d="M464.686 157.36C464.686 157.36 461.428 155.06 461.619 158.702C461.811 162.343 464.494 163.493 464.494 163.493L464.686 157.36Z" fill="white" stroke="#263238" stroke-miterlimit="10" stroke-linecap="round" stroke-linejoin="round"/>
<path d="M475.035 143.177L464.493 151.993C464.493 151.993 463.404 160.948 464.685 165.601C465.242 167.624 467.56 173.459 470.818 174.417L469.859 177.1L466.985 176.333L464.685 188.216C464.685 188.216 469.668 189.75 472.926 189.941C476.184 190.133 480.017 190.324 480.017 190.324L482.508 177.483L479.825 176.333L480.208 174.225C480.208 174.225 484.472 171.105 485.383 168.859C488.258 161.768 487.683 155.443 487.683 155.443C487.683 155.443 480.401 151.993 475.035 143.177Z" fill="white" stroke="#263238" stroke-miterlimit="10" stroke-linecap="round" stroke-linejoin="round"/>
<path d="M470.818 174.417C470.818 174.417 471.777 174.609 475.993 174.417C475.993 174.417 471.968 176.717 469.86 177.1L470.818 174.417Z" fill="#263238" stroke="#263238" stroke-miterlimit="10" stroke-linecap="round" stroke-linejoin="round"/>
<path d="M473.693 152.76C473.693 152.76 474.843 153.526 474.651 155.06C474.46 156.593 473.693 157.743 473.693 157.743C473.693 157.743 470.818 156.593 470.818 158.318C470.818 160.042 472.16 161.192 472.16 161.192" stroke="#263238" stroke-miterlimit="10" stroke-linecap="round" stroke-linejoin="round"/>
<path d="M471.202 163.685C471.202 163.685 475.418 165.984 479.059 162.535C479.059 162.535 476.951 166.559 474.46 166.943C471.968 167.326 471.202 163.685 471.202 163.685Z" stroke="#263238" stroke-miterlimit="10" stroke-linecap="round" stroke-linejoin="round"/>
<path d="M479.059 156.402C479.059 156.402 481.359 156.019 483.084 157.744" stroke="#263238" stroke-miterlimit="10" stroke-linecap="round" stroke-linejoin="round"/>
<path d="M468.71 154.484C468.71 154.484 470.627 153.334 472.16 154.868" stroke="#263238" stroke-miterlimit="10" stroke-linecap="round" stroke-linejoin="round"/>
<path d="M467.369 151.993C467.369 151.993 468.71 149.693 472.16 151.226" stroke="#263238" stroke-miterlimit="10" stroke-linecap="round" stroke-linejoin="round"/>
<path d="M479.059 152.376C479.059 152.376 482.509 151.226 484.617 154.676" stroke="#263238" stroke-miterlimit="10" stroke-linecap="round" stroke-linejoin="round"/>
<path d="M487.493 161.385C487.493 161.385 489.792 158.51 490.176 161.385C490.559 164.259 488.643 166.559 486.534 166.751L487.493 161.385Z" fill="white" stroke="#263238" stroke-miterlimit="10" stroke-linecap="round" stroke-linejoin="round"/>
<path d="M482.509 177.484C482.509 177.484 499.95 169.052 500.908 168.477C501.866 167.902 505.229 161.371 505.229 161.371L516.207 169.604C516.207 169.604 513.174 173.46 512.791 174.035C512.408 174.61 493.625 189.942 493.625 189.942C493.625 189.942 488.259 209.491 488.068 210.641C487.876 211.791 504.934 232.682 506.275 233.448C507.617 234.215 510.491 235.748 509.533 236.898C508.575 238.048 504.359 242.647 498.609 243.031C492.86 243.414 487.301 236.323 484.618 230.957C481.935 225.591 481.552 221.565 481.168 219.649C480.785 217.732 479.06 191.476 479.827 187.258C480.593 183.042 482.509 177.484 482.509 177.484Z" fill="#FF4081" stroke="#263238" stroke-miterlimit="10" stroke-linecap="round" stroke-linejoin="round"/>
<path d="M484.32 177.546C484.32 177.546 484.32 185.337 484.32 190.773C484.32 196.209 481.964 207.987 481.964 208.53" stroke="#263238" stroke-miterlimit="10" stroke-linecap="round" stroke-linejoin="round"/>
<path d="M466.986 176.334C466.986 176.334 463.727 189.751 464.302 197.033C464.877 204.316 464.111 211.024 463.727 214.091C463.344 217.157 452.036 234.981 448.778 238.048C445.52 241.114 443.029 240.731 440.92 239.581C438.812 238.431 436.704 236.706 436.704 236.706C436.704 236.706 454.528 213.132 455.103 210.066C455.678 207 454.337 188.792 454.337 188.792C454.337 188.792 442.645 174.226 439.962 170.01C437.279 165.794 435.399 164.384 435.399 164.384L433.613 159.319L444.645 156.008C444.645 156.008 448.012 160.235 448.971 161.768C449.929 163.301 456.636 170.585 458.554 171.734C460.469 172.884 466.986 176.334 466.986 176.334Z" fill="#FF4081" stroke="#263238" stroke-miterlimit="10" stroke-linecap="round" stroke-linejoin="round"/>
<path d="M429.969 122.093C429.969 122.093 431.547 117.175 430.825 114.429C430.102 111.681 427.606 107.278 426.311 107.5C425.016 107.723 418.452 113.538 418.524 114.968C418.596 116.399 421.13 122.945 423.095 123.612C423.42 123.723 432.521 157.143 433.609 159.318C435.28 162.647 443.842 158.409 444.641 156.008C445.196 154.352 429.969 122.093 429.969 122.093Z" fill="white" stroke="#263238" stroke-miterlimit="10" stroke-linecap="round" stroke-linejoin="round"/>
<path d="M428.735 110.473C428.735 110.473 426.402 105.649 425.542 105.749C424.68 105.849 416.672 112.023 417.599 113.495C418.526 114.968 419.859 116.888 419.859 116.888C419.859 116.888 428.069 112.438 428.51 112.174C428.951 111.911 428.735 110.473 428.735 110.473Z" fill="white" stroke="#263238" stroke-miterlimit="10" stroke-linecap="round" stroke-linejoin="round"/>
<path d="M430.346 118.4C430.346 118.4 431.655 112.043 431.021 110.442C430.385 108.841 429.174 107.354 427.935 106.437C426.695 105.52 420.871 110.8 421.235 112.103C421.599 113.406 423.499 112.499 424.09 112.1C424.68 111.701 426.004 110.91 426.004 110.91C426.004 110.91 423.638 115.504 424.301 116.535C424.965 117.567 427.065 118.383 427.065 118.383" fill="white"/>
<path d="M430.346 118.4C430.346 118.4 431.655 112.043 431.021 110.442C430.385 108.841 429.174 107.354 427.935 106.437C426.695 105.52 420.871 110.8 421.235 112.103C421.599 113.406 423.499 112.499 424.09 112.1C424.68 111.701 426.004 110.91 426.004 110.91C426.004 110.91 423.638 115.504 424.301 116.535C424.965 117.567 427.065 118.383 427.065 118.383" stroke="#263238" stroke-miterlimit="10" stroke-linecap="round" stroke-linejoin="round"/>
<path d="M464.932 176.277C464.932 176.277 460.945 181.351 460.583 185.881C460.22 190.41 463.301 203.275 463.301 203.275" stroke="#263238" stroke-miterlimit="10" stroke-linecap="round" stroke-linejoin="round"/>
<path d="M462.04 275.391C462.04 275.391 470.447 266.516 470.681 261.612C470.914 256.708 466.478 250.636 460.639 251.103C454.8 251.57 449.195 259.51 444.291 267.218C439.387 274.924 418.602 325.837 418.134 328.638C417.667 331.441 412.296 344.052 413.697 349.89C415.098 355.728 418.134 353.16 420.002 348.489C421.871 343.818 421.403 332.141 421.637 330.973C421.87 329.805 451.763 287.768 455.266 283.565C458.77 279.361 462.04 275.391 462.04 275.391Z" fill="white" stroke="#263238" stroke-miterlimit="10" stroke-linecap="round" stroke-linejoin="round"/>
<path d="M474.936 269.714C474.936 269.714 469.807 258.617 471.154 253.896C472.501 249.174 478.646 244.839 484.029 247.148C489.411 249.457 492.184 258.773 494.367 267.643C496.55 276.513 499.968 331.397 499.515 334.203C499.062 337.008 500.12 350.673 496.925 355.758C493.73 360.842 491.675 357.437 491.398 352.414C491.12 347.391 495.297 336.476 495.449 335.295C495.601 334.113 480.715 284.726 478.74 279.623C476.765 274.521 474.936 269.714 474.936 269.714Z" fill="white" stroke="#263238" stroke-miterlimit="10" stroke-linecap="round" stroke-linejoin="round"/>
<path d="M516.176 124.422C516.176 124.422 515.067 127.747 513.294 138.386C511.521 149.025 503.984 159.664 504.206 164.319C504.427 168.974 506.422 173.85 511.52 173.407C516.618 172.964 517.948 168.752 519.5 160.33C521.051 151.907 521.051 131.516 521.495 129.52C521.938 127.525 522.382 126.196 522.382 126.196L516.176 124.422Z" fill="white" stroke="#263238" stroke-miterlimit="10" stroke-linecap="round" stroke-linejoin="round"/>
<path d="M524.746 128.339H513.768L512.396 106.575H526.118L524.746 128.339Z" fill="#FF4081" stroke="#263238" stroke-miterlimit="10" stroke-linecap="round" stroke-linejoin="round"/>
<path d="M513.08 117.403L525.937 109.436L526.118 106.575H525.406L512.885 114.333L513.08 117.403Z" fill="white" stroke="#263238" stroke-miterlimit="10" stroke-linecap="round" stroke-linejoin="round"/>
<path d="M525.205 121.054L513.758 128.172L513.768 128.339H518.625L524.995 124.378L525.205 121.054Z" fill="white" stroke="#263238" stroke-miterlimit="10" stroke-linecap="round" stroke-linejoin="round"/>
<path d="M525.491 116.515L525.706 113.113L513.329 121.364L513.526 124.491L525.491 116.515Z" fill="white" stroke="#263238" stroke-miterlimit="10" stroke-linecap="round" stroke-linejoin="round"/>
<path d="M526.026 107.225H512.532C512.104 107.225 511.758 106.879 511.758 106.451C511.758 106.023 512.104 105.677 512.533 105.677H526.027C526.454 105.677 526.8 106.023 526.8 106.451C526.8 106.879 526.453 107.225 526.026 107.225Z" fill="white" stroke="#263238" stroke-miterlimit="10" stroke-linecap="round" stroke-linejoin="round"/>
<path d="M528.484 112.017C528.484 112.017 525.171 106.812 525.171 109.178C525.171 111.544 525.881 114.856 525.881 114.856C525.881 114.856 528.484 114.618 528.484 112.017Z" fill="white" stroke="#263238" stroke-miterlimit="10" stroke-linecap="round" stroke-linejoin="round"/>
<path d="M528.015 115.172C528.015 115.172 524.703 109.968 524.703 112.334C524.703 114.7 525.413 118.012 525.413 118.012C525.413 118.012 528.015 117.775 528.015 115.172Z" fill="white" stroke="#263238" stroke-miterlimit="10" stroke-linecap="round" stroke-linejoin="round"/>
<path d="M527.899 117.511C527.899 117.511 524.587 112.307 524.587 114.673C524.587 117.039 525.296 120.351 525.296 120.351C525.296 120.351 527.899 120.113 527.899 117.511Z" fill="white" stroke="#263238" stroke-miterlimit="10" stroke-linecap="round" stroke-linejoin="round"/>
<path d="M527.444 119.964C527.444 119.964 524.47 115.29 524.47 117.415C524.47 119.539 525.107 122.513 525.107 122.513C525.107 122.513 527.444 122.301 527.444 119.964Z" fill="white" stroke="#263238" stroke-miterlimit="10" stroke-linecap="round" stroke-linejoin="round"/>
<path d="M512.84 117.136C512.84 117.136 511.086 114.446 511.086 113.512C511.086 112.576 511.32 111.524 510.852 108.952C510.385 106.38 512.372 106.38 512.372 108.25L512.84 117.136Z" fill="white" stroke="#263238" stroke-miterlimit="10" stroke-linecap="round" stroke-linejoin="round"/>
<path d="M273.058 87.6935L270.899 57.5415L294.889 74.4327L273.058 87.6935Z" fill="#FF4081" stroke="#263238" stroke-miterlimit="10" stroke-linecap="round" stroke-linejoin="round"/>
<path d="M270.899 57.5415L271.479 65.6513L273.078 59.0765L270.899 57.5415Z" fill="#263238"/>
<path d="M278.25 62.7178L275.849 61.0273L272.288 76.9359L272.962 86.3412L278.25 62.7178Z" fill="#263238"/>
<path d="M283.821 66.6404L281.477 64.9897L275.271 86.3495L278.7 84.2657L283.821 66.6404Z" fill="#263238"/>
<path d="M287.307 69.0947L280.53 83.1546L284.787 80.5692L289.556 70.6776L287.307 69.0947Z" fill="#263238"/>
<path d="M244.55 58.6138C244.55 58.6138 245.976 54.6226 245.12 51.9142C244.265 49.2059 241.557 44.9299 240.274 45.2147C238.991 45.4995 232.719 51.6295 232.862 53.0551C233.005 54.4807 235.855 60.8955 237.851 61.465C239.846 62.0354 244.55 58.6138 244.55 58.6138Z" fill="white" stroke="#263238" stroke-miterlimit="10" stroke-linecap="round" stroke-linejoin="round"/>
<path d="M242.839 48.0657C242.839 48.0657 240.273 43.3613 239.418 43.5042C238.563 43.647 230.865 50.2037 231.863 51.6293C232.861 53.0549 234.287 54.9081 234.287 54.9081C234.287 54.9081 242.269 50.0618 242.697 49.777C243.124 49.4914 242.839 48.0657 242.839 48.0657Z" fill="white" stroke="#263238" stroke-miterlimit="10" stroke-linecap="round" stroke-linejoin="round"/>
<path d="M244.835 55.9055C244.835 55.9055 245.833 49.4907 245.119 47.9232C244.407 46.3547 243.123 44.93 241.841 44.0748C240.558 43.2196 234.998 48.7783 235.426 50.062C235.853 51.3448 237.707 50.3468 238.277 49.9192C238.847 49.4916 240.13 48.6364 240.13 48.6364C240.13 48.6364 237.992 53.3399 238.705 54.3379C239.417 55.3359 241.556 56.0483 241.556 56.0483" fill="white"/>
<path d="M244.835 55.9055C244.835 55.9055 245.833 49.4907 245.119 47.9232C244.407 46.3547 243.123 44.93 241.841 44.0748C240.558 43.2196 234.998 48.7783 235.426 50.062C235.853 51.3448 237.707 50.3468 238.277 49.9192C238.847 49.4916 240.13 48.6364 240.13 48.6364C240.13 48.6364 237.992 53.3399 238.705 54.3379C239.417 55.3359 241.556 56.0483 241.556 56.0483" stroke="#263238" stroke-miterlimit="10" stroke-linecap="round" stroke-linejoin="round"/>
<path d="M246.26 63.1749L244.55 58.6134C244.55 58.6134 239.561 57.1877 237.85 61.4646L239.845 66.1681C239.845 66.1681 242.126 63.0321 246.26 63.1749Z" fill="white" stroke="#263238" stroke-miterlimit="10" stroke-linecap="round" stroke-linejoin="round"/>
<path d="M331.794 55.051C331.794 55.051 328.773 52.0787 328.363 49.2681C327.954 46.4576 328.53 41.4286 329.809 41.1267C331.088 40.8248 339.403 43.6109 339.896 44.956C340.388 46.3012 340.615 53.3171 339.067 54.6994C337.518 56.0825 331.794 55.051 331.794 55.051Z" fill="white" stroke="#263238" stroke-miterlimit="10" stroke-linecap="round" stroke-linejoin="round"/>
<path d="M328.74 44.8103C328.74 44.8103 329.002 39.4586 329.833 39.2145C330.665 38.9705 340.45 41.5206 340.172 43.2382C339.895 44.9558 339.419 47.2448 339.419 47.2448C339.419 47.2448 330.122 46.358 329.613 46.2874C329.105 46.2178 328.74 44.8103 328.74 44.8103Z" fill="white" stroke="#263238" stroke-miterlimit="10" stroke-linecap="round" stroke-linejoin="round"/>
<path d="M330.358 52.7374C330.358 52.7374 326.666 47.3974 326.625 45.6753C326.583 43.9532 327.118 42.1118 327.901 40.7829C328.683 39.454 336.108 42.0376 336.282 43.3792C336.456 44.7198 334.353 44.6285 333.654 44.492C332.954 44.3555 331.427 44.1439 331.427 44.1439C331.427 44.1439 335.4 47.4472 335.193 48.6558C334.986 49.8645 333.372 51.4374 333.372 51.4374" fill="white"/>
<path d="M330.358 52.7374C330.358 52.7374 326.666 47.3974 326.625 45.6753C326.583 43.9532 327.118 42.1118 327.901 40.7829C328.683 39.454 336.108 42.0376 336.282 43.3792C336.456 44.7198 334.353 44.6285 333.654 44.492C332.954 44.3555 331.427 44.1439 331.427 44.1439C331.427 44.1439 335.4 47.4472 335.193 48.6558C334.986 49.8645 333.372 51.4374 333.372 51.4374" stroke="#263238" stroke-miterlimit="10" stroke-linecap="round" stroke-linejoin="round"/>
<path d="M338.594 59.9722L339.04 55.1213C339.04 55.1213 335.17 51.6653 331.768 54.7697L331.516 59.8737C331.516 59.8737 334.935 58.044 338.594 59.9722Z" fill="white" stroke="#263238" stroke-miterlimit="10" stroke-linecap="round" stroke-linejoin="round"/>
<path d="M288.738 115.347C288.738 115.347 283.322 113.494 279.758 112.068C276.194 110.642 268.066 97.5795 265.642 94.3007C263.218 91.0219 251.391 68.8766 248.683 65.1702C245.975 61.4638 241.271 61.6066 239.56 64.4578C237.849 67.3091 246.544 90.9713 252.388 101.947C258.233 112.923 273.058 137.868 276.051 140.861C279.044 143.854 280.327 146.421 280.327 146.421C280.327 146.421 283.035 172.934 283.605 176.925C284.176 180.917 282.037 180.632 283.748 183.197C285.459 185.763 299.428 189.897 310.689 188.187C321.95 186.476 325.514 181.772 325.229 178.921C324.944 176.07 324.231 173.077 324.231 173.077L323.661 129.886C323.661 129.886 334.922 103.372 337.203 91.1132C339.483 78.854 340.174 61.3815 338.035 58.1036C335.897 54.8248 331.62 56.678 330.623 58.9588C329.625 61.2396 324.802 82.988 322.235 90.5428C319.67 98.0975 313.967 107.648 311.259 110.784C308.55 113.92 305.414 114.491 305.414 114.491C305.414 114.491 295.724 117.2 288.738 115.347Z" fill="white" stroke="#263238" stroke-miterlimit="10" stroke-linecap="round" stroke-linejoin="round"/>
<path d="M280.328 146.422L276.246 124.541" stroke="#263238" stroke-miterlimit="10" stroke-linecap="round" stroke-linejoin="round"/>
<path d="M279.532 142.614L273.37 127.827" stroke="#263238" stroke-miterlimit="10" stroke-linecap="round" stroke-linejoin="round"/>
<path d="M323.662 129.886L321.224 112.833" stroke="#263238" stroke-miterlimit="10" stroke-linecap="round" stroke-linejoin="round"/>
<path d="M322.868 123.513V109.341" stroke="#263238" stroke-miterlimit="10" stroke-linecap="round" stroke-linejoin="round"/>
<path d="M316.296 155.348C316.296 155.348 309.312 169.725 301.508 176.297" stroke="#263238" stroke-miterlimit="10" stroke-linecap="round" stroke-linejoin="round"/>
<path d="M305.205 167.261C305.205 167.261 299.454 175.271 296.373 177.53" stroke="#263238" stroke-miterlimit="10" stroke-linecap="round" stroke-linejoin="round"/>
<path d="M290.734 112.781C290.734 112.781 287.883 114.064 286.743 116.772C285.602 119.481 284.89 124.47 287.314 130.457C289.737 136.444 290.165 138.155 290.165 138.155C290.165 138.155 293.158 134.876 294.869 133.879C296.58 132.881 302.139 129.745 302.139 129.745C302.139 129.745 309.837 129.888 312.402 130.315C314.968 130.743 315.823 131.028 315.823 131.028C315.823 131.028 312.259 120.765 308.125 115.918C303.991 111.07 298.003 108.932 290.734 112.781Z" fill="white" stroke="#263238" stroke-miterlimit="10" stroke-linecap="round" stroke-linejoin="round"/>
<path d="M299.286 80.5651C299.286 80.5651 293.869 78.2843 289.166 78.9975C284.461 79.7099 278.475 86.1247 278.903 92.967C279.33 99.8094 287.171 105.796 288.881 108.932C290.591 112.068 290.307 112.068 290.449 117.2C290.592 122.331 293.585 127.32 295.438 129.316C297.291 131.311 303.848 137.726 303.848 137.726C303.848 137.726 306.556 125.039 305.986 122.474C305.415 119.908 303.99 115.774 303.848 114.491C303.705 113.208 303.42 112.068 303.42 112.068C303.42 112.068 307.719 111.849 307.861 104.436C307.877 103.584 307.869 101.584 307.852 100.662C307.726 93.5682 306.352 85.8643 299.286 80.5651Z" fill="white" stroke="#263238" stroke-miterlimit="10" stroke-linecap="round" stroke-linejoin="round"/>
<path d="M282.039 102.66C282.039 102.66 285.612 99.797 286.61 97.8019C287.045 96.9322 285.539 95.3647 285.894 92.9121C286.088 91.5778 286.703 90.7335 286.61 89.5728C286.481 87.9691 284.986 88.9038 285.033 87.5505C285.176 83.4165 292.73 80.7081 295.153 81.1357C297.577 81.5633 301.425 84.1289 302.708 84.1289C303.991 84.1289 308.837 80.8501 308.125 77.5722C307.412 74.2934 304.276 75.8618 302.423 75.4342C300.57 75.0066 304.561 71.7278 301.283 68.8775C298.004 66.0263 293.728 67.7375 292.446 69.3051C291.163 70.8726 291.305 73.581 289.167 73.4391C287.029 73.2962 284.32 72.2991 282.895 74.0095C281.469 75.7199 281.755 77.1455 281.184 78.1435C280.614 79.1415 273.915 81.4223 273.059 87.6942C272.203 93.9653 276.949 97.5632 282.039 102.66Z" fill="#263238" stroke="#263238" stroke-miterlimit="10" stroke-linecap="round" stroke-linejoin="round"/>
<path d="M285.178 99.71C285.178 99.71 280.091 95.9023 278.38 98.0403C276.67 100.178 280.501 105.258 282.497 105.258C284.492 105.258 285.775 103.407 285.775 103.407" fill="white"/>
<path d="M285.178 99.71C285.178 99.71 280.091 95.9023 278.38 98.0403C276.67 100.178 280.501 105.258 282.497 105.258C284.492 105.258 285.775 103.407 285.775 103.407" stroke="#263238" stroke-miterlimit="10" stroke-linecap="round" stroke-linejoin="round"/>
<path d="M291.019 93.395C291.019 93.395 291.732 91.3989 295.01 91.3989" stroke="#263238" stroke-miterlimit="10" stroke-linecap="round" stroke-linejoin="round"/>
<path d="M289.594 89.8315C289.594 89.8315 290.449 87.266 294.012 86.8384" stroke="#263238" stroke-miterlimit="10" stroke-linecap="round" stroke-linejoin="round"/>
<path d="M301.425 89.6885C301.425 89.6885 302.708 87.9782 304.561 88.5486" stroke="#263238" stroke-miterlimit="10" stroke-linecap="round" stroke-linejoin="round"/>
<path d="M298.574 85.5545C298.574 85.5545 299.857 83.2737 302.708 84.1289" stroke="#263238" stroke-miterlimit="10" stroke-linecap="round" stroke-linejoin="round"/>
<path d="M293.585 99.5239C293.585 99.5239 296.15 102.232 301.425 100.807C301.425 100.807 299.715 104.655 297.719 105.084C295.724 105.511 293.585 100.95 293.585 99.5239Z" stroke="#263238" stroke-miterlimit="10" stroke-linecap="round" stroke-linejoin="round"/>
<path d="M297.969 87.5522L304.424 93.6027L300.995 96.2252L301.6 99.0493" fill="white"/>
<path d="M297.969 87.5522L304.424 93.6027L300.995 96.2252L301.6 99.0493" stroke="#263238" stroke-miterlimit="10" stroke-linecap="round" stroke-linejoin="round"/>
<path d="M303.42 112.068C303.42 112.068 299.714 113.066 298.146 112.638C296.578 112.211 295.581 111.926 295.581 111.926L304.846 119.338L303.42 112.068Z" fill="#263238" stroke="#263238" stroke-miterlimit="10" stroke-linecap="round" stroke-linejoin="round"/>
<path d="M269.263 208.774C269.263 208.774 264.101 202.387 262.458 200.945C260.816 199.503 257.766 200.327 256.358 202.181C254.95 204.035 253.542 207.743 252.839 208.98C252.135 210.216 247.677 215.573 247.912 218.044C248.146 220.517 248.85 223.607 251.431 222.783C254.012 221.959 256.427 217.781 259.946 215.926C263.465 214.072 265.161 215.926 265.161 215.926L269.263 208.774Z" fill="white" stroke="#263238" stroke-miterlimit="10" stroke-linecap="round" stroke-linejoin="round"/>
<path d="M255.678 208.815C257.721 205.2 260.176 202.114 261.601 200.439C259.906 199.789 257.547 200.615 256.357 202.181C254.95 204.035 253.541 207.744 252.838 208.98C252.134 210.216 247.676 215.573 247.911 218.045C247.964 218.61 248.045 219.208 248.165 219.785C250.507 214.044 252.628 214.212 255.678 208.815Z" fill="white" stroke="#263238" stroke-miterlimit="10" stroke-linecap="round" stroke-linejoin="round"/>
<path d="M306.643 263.792C306.643 263.792 300.276 255.781 293.704 250.236C287.132 244.691 264.334 214.91 264.334 214.91L268.852 207.311C268.852 207.311 287.953 227.028 294.526 231.341C301.098 235.654 307.26 240.583 308.903 242.021C310.546 243.458 314.654 251.058 313.833 255.166C313.01 259.272 311.366 264.407 306.643 263.792Z" fill="#263238" stroke="#263238" stroke-miterlimit="10" stroke-linecap="round" stroke-linejoin="round"/>
<path d="M244.616 214.499C244.616 214.499 238.659 210.392 236.4 207.516C234.141 204.64 230.855 205.052 229.417 206.899C227.98 208.748 223.666 217.169 221.818 221.277C219.969 225.384 219.764 232.573 220.586 234.216C221.408 235.858 223.05 233.805 223.667 232.367C224.283 230.93 231.406 224.302 232.433 223.275C233.46 222.248 235.924 221.016 235.924 221.016L240.032 223.275L244.616 214.499Z" fill="white" stroke="#263238" stroke-miterlimit="10" stroke-linecap="round" stroke-linejoin="round"/>
<path d="M220.97 234.691C220.943 232.86 221.343 229.374 223.2 223.988C224.991 218.795 230.702 209.683 233.39 205.534C231.814 205.204 230.281 205.788 229.417 206.9C227.98 208.749 223.666 217.17 221.818 221.278C219.969 225.385 219.764 232.574 220.586 234.217C220.7 234.443 220.83 234.594 220.97 234.691Z" fill="white" stroke="#263238" stroke-miterlimit="10" stroke-linecap="round" stroke-linejoin="round"/>
<path d="M305.41 251.057L303.151 221.07L300.275 223.329C300.275 223.329 290.622 267.898 288.774 269.336C286.925 270.773 281.38 266.255 276.45 263.379C271.521 260.504 239.481 224.767 238.454 223.945C237.427 223.123 243.178 212.033 243.999 212.443C244.821 212.854 273.164 240.992 273.164 240.992C273.164 240.992 276.656 215.319 278.299 204.433C279.942 193.547 284.05 181.84 284.05 181.84C284.05 181.84 301.097 188.002 310.545 185.948C319.992 183.894 325.229 178.919 325.229 178.919C325.229 178.919 324.1 189.645 324.716 211.005C325.332 232.365 320.403 254.752 318.349 261.941C316.295 269.13 315.268 269.746 313.214 269.335C311.16 268.924 306.437 262.968 304.793 260.914" fill="#263238"/>
<path d="M305.41 251.057L303.151 221.07L300.275 223.329C300.275 223.329 290.622 267.898 288.774 269.336C286.925 270.773 281.38 266.255 276.45 263.379C271.521 260.504 239.481 224.767 238.454 223.945C237.427 223.123 243.178 212.033 243.999 212.443C244.821 212.854 273.164 240.992 273.164 240.992C273.164 240.992 276.656 215.319 278.299 204.433C279.942 193.547 284.05 181.84 284.05 181.84C284.05 181.84 301.097 188.002 310.545 185.948C319.992 183.894 325.229 178.919 325.229 178.919C325.229 178.919 324.1 189.645 324.716 211.005C325.332 232.365 320.403 254.752 318.349 261.941C316.295 269.13 315.268 269.746 313.214 269.335C311.16 268.924 306.437 262.968 304.793 260.914" stroke="#263238" stroke-miterlimit="10" stroke-linecap="round" stroke-linejoin="round"/>
<path d="M538.944 228.877C538.918 228.9 536.837 230.783 535.318 230.783C533.789 230.783 533.789 227.535 534.745 225.624C535.7 223.713 538.185 226.77 538.185 226.77L538.942 228.855L538.566 224.095C538.566 224.095 536.273 221.229 533.598 222.376C530.923 223.522 531.305 230.975 532.833 232.886C534.362 234.797 537.419 234.224 539.139 231.357L538.944 228.877Z" fill="white" stroke="#263238" stroke-miterlimit="10" stroke-linecap="round" stroke-linejoin="round"/>
<path d="M550.848 217.599H536.205V238.313H550.848V217.599Z" fill="white" stroke="#263238" stroke-miterlimit="10" stroke-linecap="round" stroke-linejoin="round"/>
<path d="M511.161 235.833H442.763V238.657H511.161V235.833Z" fill="white" stroke="#263238" stroke-miterlimit="10" stroke-linecap="round" stroke-linejoin="round"/>
<path d="M458.135 170.28H375.844V225.733H458.135V170.28Z" fill="#263238" stroke="#263238" stroke-miterlimit="10" stroke-linecap="round" stroke-linejoin="round"/>
<path d="M440.37 235.532H407.062V238.657H440.37V235.532Z" fill="#ABABAB" stroke="#263238" stroke-miterlimit="10" stroke-linecap="round" stroke-linejoin="round"/>
<path d="M426.918 202.755H407.062V238.657H426.918V202.755Z" fill="#ABABAB" stroke="#263238" stroke-miterlimit="10" stroke-linecap="round" stroke-linejoin="round"/>
<path d="M562.469 241.451H375.094V262.607H562.469V241.451Z" fill="white" stroke="#263238" stroke-miterlimit="10" stroke-linecap="round" stroke-linejoin="round"/>
<path d="M562.469 241.451H375.094V247.079H562.469V241.451Z" fill="#263238" stroke="#263238" stroke-miterlimit="10" stroke-linecap="round" stroke-linejoin="round"/>
<path d="M377.391 356.597H374.308L373.28 241.149H378.418L377.391 356.597Z" fill="white" stroke="#263238" stroke-miterlimit="10" stroke-linecap="round" stroke-linejoin="round"/>
<path d="M563.557 356.597H560.474L559.447 241.149H564.584L563.557 356.597Z" fill="white" stroke="#263238" stroke-miterlimit="10" stroke-linecap="round" stroke-linejoin="round"/>
<path d="M567.449 238.37H370.163V243.145H567.449V238.37Z" fill="white" stroke="#263238" stroke-miterlimit="10" stroke-linecap="round" stroke-linejoin="round"/>
<path d="M137.66 250.024H132.76V269.623H137.66V250.024Z" fill="#263238" stroke="#263238" stroke-miterlimit="10" stroke-linecap="round" stroke-linejoin="round"/>
<path d="M213.298 250.024H208.398V269.623H213.298V250.024Z" fill="#263238" stroke="#263238" stroke-miterlimit="10" stroke-linecap="round" stroke-linejoin="round"/>
<path d="M207.406 278.055H136.971V192.519C136.971 188.921 139.889 186.002 143.488 186.002H200.89C204.489 186.002 207.407 188.92 207.407 192.519V278.055H207.406Z" fill="#ABABAB" stroke="#263238" stroke-miterlimit="10" stroke-linecap="round" stroke-linejoin="round"/>
<path d="M175.581 334.468V273.921H169.13V334.077L168.895 334.241L135.517 347.715V351.697H140.722V348.94L169.646 344.687L170.182 351.697H174.04L174.571 344.731L203.192 348.94V351.697H208.398V347.715L175.581 334.468Z" fill="#263238" stroke="#263238" stroke-miterlimit="10" stroke-linecap="round" stroke-linejoin="round"/>
<path d="M182.433 280.616H161.943V287.873H182.433V280.616Z" fill="#263238" stroke="#263238" stroke-miterlimit="10" stroke-linecap="round" stroke-linejoin="round"/>
<path d="M210.694 281.043H133.683C132.317 281.043 131.208 279.934 131.208 278.568V267.296C131.208 265.93 132.317 264.821 133.683 264.821H210.694C212.061 264.821 213.169 265.93 213.169 267.296V278.568C213.169 279.934 212.061 281.043 210.694 281.043Z" fill="#ABABAB" stroke="#263238" stroke-miterlimit="10" stroke-linecap="round" stroke-linejoin="round"/>
<path d="M134.991 253.699H128.998C127.863 253.699 126.942 252.779 126.942 251.644V240.751C126.942 239.615 127.863 238.695 128.998 238.695H134.991C136.127 238.695 137.047 239.615 137.047 240.751V251.644C137.048 252.779 136.127 253.699 134.991 253.699Z" fill="#ABABAB" stroke="#263238" stroke-miterlimit="10" stroke-linecap="round" stroke-linejoin="round"/>
<path d="M215.07 253.699H209.076C207.941 253.699 207.02 252.779 207.02 251.644V240.751C207.02 239.615 207.941 238.695 209.076 238.695H215.07C216.205 238.695 217.125 239.615 217.125 240.751V251.644C217.125 252.779 216.205 253.699 215.07 253.699Z" fill="#ABABAB" stroke="#263238" stroke-miterlimit="10" stroke-linecap="round" stroke-linejoin="round"/>
<path d="M209.09 235.833H140.691V238.657H209.09V235.833Z" fill="white" stroke="#263238" stroke-miterlimit="10" stroke-linecap="round" stroke-linejoin="round"/>
<path d="M156.064 170.28H73.7726V225.733H156.064V170.28Z" fill="#263238" stroke="#263238" stroke-miterlimit="10" stroke-linecap="round" stroke-linejoin="round"/>
<path d="M138.298 235.532H104.99V238.657H138.298V235.532Z" fill="#ABABAB" stroke="#263238" stroke-miterlimit="10" stroke-linecap="round" stroke-linejoin="round"/>
<path d="M124.845 202.755H104.99V238.657H124.845V202.755Z" fill="#ABABAB" stroke="#263238" stroke-miterlimit="10" stroke-linecap="round" stroke-linejoin="round"/>
<path d="M267.288 241.451H79.9135V262.607H267.288V241.451Z" fill="white" stroke="#263238" stroke-miterlimit="10" stroke-linecap="round" stroke-linejoin="round"/>
<path d="M267.288 241.451H79.9135V247.079H267.288V241.451Z" fill="#263238" stroke="#263238" stroke-miterlimit="10" stroke-linecap="round" stroke-linejoin="round"/>
<path d="M82.2105 356.597H79.1278L78.1 241.149H83.2383L82.2105 356.597Z" fill="white" stroke="#263238" stroke-miterlimit="10" stroke-linecap="round" stroke-linejoin="round"/>
<path d="M268.377 356.597H265.294L264.267 241.149H269.405L268.377 356.597Z" fill="white" stroke="#263238" stroke-miterlimit="10" stroke-linecap="round" stroke-linejoin="round"/>
<path d="M272.268 238.37H74.983V243.145H272.268V238.37Z" fill="white" stroke="#263238" stroke-miterlimit="10" stroke-linecap="round" stroke-linejoin="round"/>
<path d="M71.0878 131.235L82.8334 170.422" stroke="#263238" stroke-miterlimit="10" stroke-linecap="round" stroke-linejoin="round"/>
<path d="M80.4821 95.5401C84.1994 107.942 81.2695 128.183 71.0869 131.235C60.9042 134.287 47.3243 118.995 43.6071 106.593C39.8898 94.1914 45.1312 81.6628 55.3139 78.6109C65.4965 75.559 76.7649 83.1382 80.4821 95.5401Z" fill="#FF4081" stroke="#263238" stroke-miterlimit="10" stroke-linecap="round" stroke-linejoin="round"/>
<path d="M94.844 131.315L82.8335 170.422" stroke="#263238" stroke-miterlimit="10" stroke-linecap="round" stroke-linejoin="round"/>
<path d="M122.49 106.859C118.689 119.236 105.006 134.436 94.844 131.315C84.6821 128.195 81.8897 107.934 85.6901 95.5574C89.4914 83.1808 100.81 75.6776 110.972 78.7982C121.134 81.9197 126.291 94.4826 122.49 106.859Z" fill="white" stroke="#263238" stroke-miterlimit="10" stroke-linecap="round" stroke-linejoin="round"/>
<path d="M377.246 131.235L388.992 170.422" stroke="#263238" stroke-miterlimit="10" stroke-linecap="round" stroke-linejoin="round"/>
<path d="M386.642 95.5401C390.359 107.942 387.429 128.183 377.246 131.235C367.064 134.287 353.484 118.995 349.766 106.593C346.049 94.1914 351.291 81.6628 361.473 78.6109C371.656 75.559 382.923 83.1382 386.642 95.5401Z" fill="#FF4081" stroke="#263238" stroke-miterlimit="10" stroke-linecap="round" stroke-linejoin="round"/>
<path d="M401.002 131.315L388.992 170.422" stroke="#263238" stroke-miterlimit="10" stroke-linecap="round" stroke-linejoin="round"/>
<path d="M428.649 106.859C424.847 119.236 411.164 134.436 401.002 131.315C390.841 128.195 388.048 107.934 391.849 95.5574C395.651 83.1808 406.97 75.6776 417.132 78.7982C427.293 81.9197 432.449 94.4826 428.649 106.859Z" fill="white" stroke="#263238" stroke-miterlimit="10" stroke-linecap="round" stroke-linejoin="round"/>
<path d="M24.049 28.4486C29.4468 22.7461 34.7244 16.9768 39.8808 11.146C32.1624 9.62728 24.4649 7.9585 16.7944 6.13965C19.0797 13.5841 21.4979 21.0222 24.049 28.4486Z" fill="white" stroke="#263238" stroke-miterlimit="10" stroke-linecap="round" stroke-linejoin="round"/>
<path d="M56.6274 34.6269C61.7097 28.6487 66.6699 22.6109 71.5063 16.5171C63.7355 15.4051 55.981 14.1441 48.2473 12.7329C50.9087 20.0463 53.702 27.3452 56.6274 34.6269Z" fill="#FF4081" stroke="#263238" stroke-miterlimit="10" stroke-linecap="round" stroke-linejoin="round"/>
<path d="M89.4145 39.086C94.1713 32.8502 98.8034 26.5611 103.311 20.2241C95.5047 19.5198 87.7086 18.6655 79.927 17.6621C82.9581 24.8254 86.1203 31.9679 89.4145 39.086Z" fill="white" stroke="#263238" stroke-miterlimit="10" stroke-linecap="round" stroke-linejoin="round"/>
<path d="M122.344 41.8287C126.765 35.3533 131.06 28.8319 135.228 22.2679C127.402 21.9705 119.581 21.524 111.768 20.9282C115.163 27.9243 118.689 34.8923 122.344 41.8287Z" fill="#FF4081" stroke="#263238" stroke-miterlimit="10" stroke-linecap="round" stroke-linejoin="round"/>
<path d="M155.348 42.8541C159.425 36.1572 163.374 29.4215 167.194 22.6497C159.364 22.76 151.533 22.7202 143.704 22.5312C147.457 29.3411 151.338 36.1166 155.348 42.8541Z" fill="white" stroke="#263238" stroke-miterlimit="10" stroke-linecap="round" stroke-linejoin="round"/>
<path d="M188.357 42.1606C192.082 35.2613 195.677 28.3285 199.141 21.3677C191.323 21.8857 183.499 22.2536 175.671 22.4715C179.773 29.077 184.002 35.6409 188.357 42.1606Z" fill="#FF4081" stroke="#263238" stroke-miterlimit="10" stroke-linecap="round" stroke-linejoin="round"/>
<path d="M221.306 39.7495C224.67 32.6649 227.904 25.5549 231.006 18.4224C223.217 19.3472 215.415 20.1228 207.604 20.7484C212.046 27.1306 216.614 33.4658 221.306 39.7495Z" fill="white" stroke="#263238" stroke-miterlimit="10" stroke-linecap="round" stroke-linejoin="round"/>
<path d="M254.127 35.6212C257.124 28.3702 259.989 21.0993 262.722 13.814C254.978 15.1465 247.214 16.3289 239.435 17.3622C244.209 23.5039 249.106 29.5915 254.127 35.6212Z" fill="#FF4081" stroke="#263238" stroke-miterlimit="10" stroke-linecap="round" stroke-linejoin="round"/>
<path d="M286.751 29.775C289.374 22.3757 291.865 14.9629 294.224 7.54199C286.54 9.28219 278.831 10.8723 271.1 12.3124C276.196 18.1956 281.413 24.0174 286.751 29.775Z" fill="white" stroke="#263238" stroke-miterlimit="10" stroke-linecap="round" stroke-linejoin="round"/>
<path d="M-3.28613 1.02051C102.656 29.9413 214.414 29.9413 320.357 1.02051" stroke="#263238" stroke-miterlimit="10" stroke-linecap="round" stroke-linejoin="round"/>
<path d="M616.665 28.4486C611.267 22.7461 605.99 16.9768 600.833 11.146C608.552 9.62728 616.249 7.9585 623.92 6.13965C621.634 13.5841 619.215 21.0222 616.665 28.4486Z" fill="#FF4081" stroke="#263238" stroke-miterlimit="10" stroke-linecap="round" stroke-linejoin="round"/>
<path d="M584.087 34.6269C579.005 28.6487 574.044 22.6109 569.208 16.5171C576.979 15.4051 584.733 14.1441 592.467 12.7329C589.806 20.0463 587.012 27.3452 584.087 34.6269Z" fill="white" stroke="#263238" stroke-miterlimit="10" stroke-linecap="round" stroke-linejoin="round"/>
<path d="M551.299 39.086C546.542 32.8502 541.91 26.5611 537.403 20.2241C545.209 19.5198 553.005 18.6655 560.786 17.6621C557.756 24.8254 554.593 31.9679 551.299 39.086Z" fill="#FF4081" stroke="#263238" stroke-miterlimit="10" stroke-linecap="round" stroke-linejoin="round"/>
<path d="M518.37 41.8287C513.948 35.3533 509.653 28.8319 505.485 22.2679C513.311 21.9705 521.133 21.524 528.946 20.9282C525.551 27.9243 522.026 34.8923 518.37 41.8287Z" fill="white" stroke="#263238" stroke-miterlimit="10" stroke-linecap="round" stroke-linejoin="round"/>
<path d="M485.367 42.8541C481.289 36.1572 477.34 29.4215 473.521 22.6497C481.35 22.76 489.181 22.7202 497.01 22.5312C493.258 29.3411 489.376 36.1166 485.367 42.8541Z" fill="#FF4081" stroke="#263238" stroke-miterlimit="10" stroke-linecap="round" stroke-linejoin="round"/>
<path d="M452.356 42.1606C448.632 35.2613 445.036 28.3285 441.572 21.3677C449.389 21.8857 457.214 22.2536 465.043 22.4715C460.941 29.077 456.712 35.6409 452.356 42.1606Z" fill="white" stroke="#263238" stroke-miterlimit="10" stroke-linecap="round" stroke-linejoin="round"/>
<path d="M419.407 39.7495C416.043 32.6649 412.81 25.5549 409.707 18.4224C417.496 19.3472 425.298 20.1228 433.11 20.7484C428.668 27.1306 424.1 33.4658 419.407 39.7495Z" fill="#FF4081" stroke="#263238" stroke-miterlimit="10" stroke-linecap="round" stroke-linejoin="round"/>
<path d="M386.587 35.6212C383.591 28.3702 380.725 21.0993 377.992 13.814C385.737 15.1465 393.5 16.3289 401.279 17.3622C396.505 23.5039 391.607 29.5915 386.587 35.6212Z" fill="white" stroke="#263238" stroke-miterlimit="10" stroke-linecap="round" stroke-linejoin="round"/>
<path d="M353.963 29.775C351.339 22.3757 348.848 14.9629 346.49 7.54199C354.174 9.28219 361.883 10.8723 369.613 12.3124C364.518 18.1956 359.301 24.0174 353.963 29.775Z" fill="#FF4081" stroke="#263238" stroke-miterlimit="10" stroke-linecap="round" stroke-linejoin="round"/>
<path d="M644 1.02051C538.057 29.9413 426.299 29.9413 320.357 1.02051" stroke="#263238" stroke-miterlimit="10" stroke-linecap="round" stroke-linejoin="round"/>
<path d="M181.3 143.235C181.3 143.235 183.756 175.352 184.791 178.197C185.826 181.043 187.378 189.321 187.378 189.321C187.378 189.321 179.099 191.391 177.806 191.65C176.512 191.909 173.758 190.855 173.758 190.855C173.758 190.855 171.855 170.953 172.631 160.087C173.408 149.221 179.875 138.613 179.875 138.613L181.3 143.235Z" fill="white" stroke="#263238" stroke-miterlimit="10"/>
<path d="M197.725 238.363C197.725 238.363 194.607 238.678 193.825 238.13C193.043 237.582 193.825 237.231 194.216 237.192C194.608 237.153 196.054 237.035 196.054 237.035C196.054 237.035 193.043 235.628 193.316 235.236C193.59 234.845 194.723 234.924 194.723 234.924L195.349 234.689C195.349 234.689 193.276 233.476 193.628 233.241C193.979 233.006 196.013 233.437 196.013 233.437L195.7 227.961C195.7 227.961 196.952 227.883 197.891 229.017C198.829 230.151 198.673 232.811 198.516 234.727C198.362 236.644 197.725 238.363 197.725 238.363Z" fill="white" stroke="#263238" stroke-miterlimit="10"/>
<path d="M185.065 187.047L193.251 218.076L199.534 224.307C199.534 224.307 200.882 231.217 200.792 232.533C200.701 233.85 197.843 241.44 196.775 239.23C196.374 238.399 198.033 232.754 197.826 231.431C197.483 229.233 196.387 228.347 196.387 228.347C196.387 228.347 193.071 228.794 190.753 227.007C188.435 225.22 187.462 221.167 187.462 221.167L174.005 191.589L185.065 187.047Z" fill="white" stroke="#263238" stroke-miterlimit="10"/>
<path d="M196.058 226.501L196.386 228.346C196.386 228.346 198.102 237.218 196.562 237.417C195.023 237.616 193.733 233.925 193.733 233.925L193.045 230.623C193.045 230.623 189.792 227.653 189.046 225.922C188.3 224.193 187.124 219.127 187.124 219.127" fill="white"/>
<path d="M196.058 226.501L196.386 228.346C196.386 228.346 198.102 237.218 196.562 237.417C195.023 237.616 193.733 233.925 193.733 233.925L193.045 230.623C193.045 230.623 189.792 227.653 189.046 225.922C188.3 224.193 187.124 219.127 187.124 219.127" stroke="#263238" stroke-miterlimit="10"/>
<path d="M175.219 184.148L186.603 181.302L187.378 189.321L175.737 191.65L175.219 184.148Z" fill="white" stroke="#263238" stroke-miterlimit="10"/>
<path d="M175.928 171.225C175.775 171.795 176.992 198.266 177.13 201.231L123.769 199.767L123.447 176.682C123.447 176.682 121.802 149.578 121.786 143.656C121.77 137.733 125.45 129.534 129.258 127.225C133.067 124.916 146.441 118.031 146.441 118.031L165.162 117.101C165.162 117.101 176.699 126.287 177.789 127.545C178.878 128.804 183.29 139.236 181.794 146.432C180.298 153.628 176.092 170.621 175.928 171.225Z" fill="white" stroke="#263238" stroke-miterlimit="10"/>
<path d="M192.902 337.02L192.482 259.9L177.103 198.012L163.798 199.946C162.163 200.184 160.505 200.223 158.861 200.066L123.382 196.663L122.467 203.076C122.467 203.076 121.65 220.921 123.746 225.532C125.841 230.142 130.452 265.349 130.452 265.349L116.536 334.542L115.195 342.056L133.442 342.861L133.711 338.299L131.832 336.958V332.665L131.734 332.646C137.215 315.868 152.396 269.588 153.085 267.865C153.923 265.77 158.138 231.766 158.138 231.766L171.946 267.446L179.28 334.678L179.048 344.673L195.148 343.063V338.77L192.902 337.02Z" fill="#263238" stroke="#263238" stroke-miterlimit="10" stroke-linecap="round" stroke-linejoin="round"/>
<path d="M167.329 125.576L165.15 135.857L173.759 190.856L170.482 198.295L163.766 190.576L162.206 136.063L156.413 129.371L162.952 119.332L167.329 125.576Z" fill="#263238" stroke="#263238" stroke-miterlimit="10"/>
<path d="M170.335 122.866L172.192 130.555L166.372 127.155L170.335 122.866Z" fill="white" stroke="#263238" stroke-miterlimit="10"/>
<path d="M163.255 131.442L170.335 122.865L165.162 117.102L163.255 131.442Z" fill="white" stroke="#263238" stroke-miterlimit="10"/>
<path d="M168.317 80.2664C168.317 80.2664 174.789 88.4376 174.41 89.6354C174.03 90.8342 173.893 93.2921 173.893 93.2921C173.893 93.2921 179.172 97.3321 178.872 98.3862C178.572 99.4402 175.577 101.636 175.577 101.636C175.577 101.636 175.982 115.187 174.436 116.117C172.89 117.047 169.471 116.099 169.471 116.099L163.256 131.441L157.551 123.412L148.616 113.412L149.244 109.722L148.515 105.941C148.515 105.941 143.879 103.288 142.108 97.9929C140.337 92.6982 141.617 82.5427 141.95 81.5998C142.282 80.6569 152.566 75.9823 156.518 73.7531C160.471 71.5229 161.94 71.5835 162.486 72.6348C163.032 73.6871 162.555 69.1065 164.585 69.8514C166.614 70.5963 167.77 72.9232 167.517 73.7223C167.263 74.5215 171.228 71.0781 171.776 72.9765C172.325 74.8758 171.123 79.0939 168.317 80.2664Z" fill="white" stroke="#263238" stroke-miterlimit="10"/>
<path d="M157.121 112.287C155.216 110.297 153.119 96.75 152.271 95.9066C151.422 95.0631 148.324 94.3851 146.942 96.7193C145.559 99.0534 147.005 102.386 148.717 103.706C150.428 105.026 151.691 105.63 151.691 105.63L148.347 105.839C147.516 105.316 143.683 102.703 142.109 97.9939C140.338 92.6992 141.618 82.5436 141.951 81.6008C142.283 80.6579 152.567 75.9833 156.519 73.754C160.472 71.5239 161.941 71.5844 162.487 72.6358C163.033 73.6881 162.556 69.1075 164.586 69.8524C166.615 70.5973 167.771 72.9242 167.518 73.7233C167.264 74.5224 171.229 71.0791 171.777 72.9775C172.325 74.8759 171.124 79.0931 168.318 80.2665C168.318 80.2665 158.299 82.4334 158.351 83.8698C158.402 85.3063 162.144 87.371 161.685 88.7134C161.226 90.0559 156.211 94.8905 156.211 94.8905L158.52 104.142C158.52 104.142 158.857 104.891 160.259 103.882C161.661 102.872 164.969 98.4097 167.636 98.8491C170.303 99.2884 175.578 101.636 175.578 101.636C175.578 101.636 175.983 115.187 174.437 116.117C172.891 117.048 169.472 116.099 169.472 116.099C169.472 116.099 159.025 114.278 157.121 112.287Z" fill="#263238" stroke="#263238" stroke-miterlimit="10"/>
<path d="M169.681 94.206C169.886 94.9147 170.276 95.4245 170.554 95.345C170.831 95.2645 170.89 94.6254 170.686 93.9158C170.481 93.207 170.09 92.6972 169.813 92.7767C169.535 92.8572 169.476 93.4972 169.681 94.206Z" fill="#263238"/>
<path d="M172.002 90.9352C172.002 90.9352 169.968 88.4989 167.596 90.7562" stroke="#263238" stroke-miterlimit="10"/>
<path d="M172.725 103.912L168.375 101.417C168.375 101.417 168.245 106.414 169.94 107.256C171.635 108.097 172.725 103.912 172.725 103.912Z" fill="white" stroke="#263238" stroke-miterlimit="10"/>
<path d="M161.629 126.227L163.255 131.442L158.105 127.848L161.629 126.227Z" fill="white" stroke="#263238" stroke-miterlimit="10"/>
<path d="M148.675 111.943L161.629 126.227L155.794 134.926L144.461 117.877L148.675 111.943Z" fill="white" stroke="#263238" stroke-miterlimit="10"/>
<path d="M196.751 163.461L185.849 164.74L181.95 143.284L195.577 141.684L196.751 163.461Z" fill="#FF4081" stroke="#263238" stroke-miterlimit="10" stroke-linecap="round" stroke-linejoin="round"/>
<path d="M183.89 153.959L195.731 144.548L195.577 141.684L194.871 141.767L183.339 150.932L183.89 153.959Z" fill="white" stroke="#263238" stroke-miterlimit="10" stroke-linecap="round" stroke-linejoin="round"/>
<path d="M196.358 156.171L185.819 164.574L185.849 164.739L190.672 164.174L196.538 159.496L196.358 156.171Z" fill="white" stroke="#263238" stroke-miterlimit="10" stroke-linecap="round" stroke-linejoin="round"/>
<path d="M196.113 151.63L195.929 148.227L184.599 157.863L185.16 160.947L196.113 151.63Z" fill="white" stroke="#263238" stroke-miterlimit="10" stroke-linecap="round" stroke-linejoin="round"/>
<path d="M195.561 142.341L182.159 143.914C181.734 143.964 181.349 143.66 181.3 143.235C181.25 142.81 181.554 142.426 181.979 142.376L195.381 140.803C195.806 140.753 196.19 141.057 196.241 141.482C196.29 141.906 195.986 142.291 195.561 142.341Z" fill="white" stroke="#263238" stroke-miterlimit="10" stroke-linecap="round" stroke-linejoin="round"/>
<path d="M151.535 172.741L176.38 170.091C176.38 170.091 178.118 163.982 177.884 159.503C177.651 155.023 179.381 150.731 180.155 150.392C180.931 150.053 189.4 146.072 190.498 146.672C191.596 147.272 193.572 148.203 193.03 149.555C192.489 150.906 189.042 149.835 189.042 149.835C189.042 149.835 184.834 152.406 184.402 152.612C183.97 152.818 189.139 151.412 190.089 151.833C191.039 152.253 197.035 152.577 197.728 153.963C198.421 155.35 197.393 155.748 197.393 155.748C197.393 155.748 198.515 157.836 196.964 158.513C195.414 159.191 191.814 158.848 191.234 158.876C190.653 158.903 186.89 162.012 186.368 162.292C185.847 162.572 190.989 160.586 191.88 160.753C192.772 160.921 196.161 161.739 196.263 162.409C196.364 163.078 193.98 163.842 193.147 163.928C192.313 164.014 189.602 164.746 189.602 164.746L186.373 168.318C186.373 168.318 185.177 173.074 183.728 174.422C182.279 175.77 180.877 176.627 180.518 176.922C180.16 177.218 161.703 182.128 160.51 182.51C159.318 182.891 149.378 186.732 149.378 186.732L151.535 172.741Z" fill="white" stroke="#263238" stroke-miterlimit="10"/>
<path d="M183.59 157.653C183.59 157.653 188.246 154.712 189.554 154.837C190.863 154.962 197.392 155.749 197.392 155.749" stroke="#263238" stroke-miterlimit="10"/>
<path d="M184.401 152.612L182.197 153.227" stroke="#263238" stroke-miterlimit="10"/>
<path d="M148.964 144.608C148.964 144.608 150.773 148.3 149.892 152.343C149.012 156.387 147.238 171.918 147.238 171.918L140.623 187.632C140.623 187.632 127.118 186.428 125.708 185.633C124.298 184.838 124.836 180.928 125.202 178.816C125.568 176.705 123.778 153.219 124.33 146.92C124.881 140.622 125.225 138.387 127.982 135.395" fill="white"/>
<path d="M148.964 144.608C148.964 144.608 150.773 148.3 149.892 152.343C149.012 156.387 147.238 171.918 147.238 171.918L140.623 187.632C140.623 187.632 127.118 186.428 125.708 185.633C124.298 184.838 124.836 180.928 125.202 178.816C125.568 176.705 123.778 153.219 124.33 146.92C124.881 140.622 125.225 138.387 127.982 135.395" stroke="#263238" stroke-miterlimit="10"/>
<path d="M141.084 170.672C141.084 170.672 132.74 173.344 132.397 173.476" stroke="#263238" stroke-miterlimit="10"/>
<path d="M129.534 168.003C129.534 168.003 141.134 169.273 141.921 169.678" stroke="#263238" stroke-miterlimit="10"/>
<path d="M128.439 159.562L143.779 170.103" stroke="#263238" stroke-miterlimit="10"/>
<path d="M143.779 170.103C143.779 170.103 152.929 170.232 153.07 172.227C153.21 174.221 151.273 188.482 150.752 188.763C150.23 189.043 140.289 189.417 139.459 188.594C138.629 187.773 140.842 171.474 141.084 170.672C141.325 169.869 143.779 170.103 143.779 170.103Z" fill="white" stroke="#263238" stroke-miterlimit="10"/>
</g>
<defs>
<clipPath id="clip0_733_5142">
<rect width="655" height="284" fill="white" transform="translate(-5 -3)"/>
</clipPath>
</defs>
</svg>
