<svg width="14" height="14" viewBox="0 0 14 14" fill="none" xmlns="http://www.w3.org/2000/svg">
<path d="M0.38623 13.626L3.40038 5.05396L8.95052 10.6091L0.38623 13.626Z" fill="#FF4081"/>
<path d="M8.56641 10.2244L0.594836 13.0325L0.38623 13.6257L8.95052 10.6088L8.56641 10.2244Z" fill="#EF357D"/>
<path d="M8.9377 10.5966C8.6375 10.8971 7.15735 9.90273 5.63171 8.37573C4.10607 6.84872 3.11266 5.36721 3.41289 5.06674C3.71309 4.76625 5.19323 5.76057 6.71888 7.28758C8.24452 8.81459 9.2379 10.2961 8.9377 10.5966Z" fill="#EAEAEA"/>
<path d="M12.1293 2.61513L11.4314 3.00102L11.5647 2.18368L11 1.60484L11.7804 1.4856L12.1293 0.741943L12.4783 1.4856L13.2587 1.60484L12.694 2.18368L12.8273 3.00102L12.1293 2.61513Z" fill="#FFCF57"/>
<path d="M11.8665 2.76064L11.9799 2.06524L11.4621 1.53442L11 1.60505L11.5647 2.18388L11.4314 3.00125L11.8665 2.76064Z" fill="#FFB81A"/>
<path d="M2.16743 3.03065L1.46945 3.41654L1.60274 2.5992L1.03809 2.02037L1.81844 1.90113L2.16743 1.15747L2.51642 1.90113L3.29677 2.02037L2.73209 2.5992L2.86538 3.41654L2.16743 3.03065Z" fill="#8A73F9"/>
<path d="M1.9046 3.17568L2.01803 2.48028L1.5002 1.94946L1.03809 2.02009L1.60277 2.59892L1.46945 3.41629L1.9046 3.17568Z" fill="#7C64F4"/>
<path d="M11.8325 12.1901L11.1345 12.576L11.2678 11.7586L10.7031 11.1798L11.4835 11.0605L11.8325 10.3169L12.1815 11.0605L12.9618 11.1798L12.3972 11.7586L12.5305 12.576L11.8325 12.1901Z" fill="#8A73F9"/>
<path d="M11.5696 12.3356L11.6831 11.6402L11.1652 11.1094L10.7031 11.18L11.2678 11.7588L11.1345 12.5762L11.5696 12.3356Z" fill="#7C64F4"/>
<path d="M13.2587 8.49513C13.5864 8.49513 13.852 8.22929 13.852 7.90137C13.852 7.57345 13.5864 7.30762 13.2587 7.30762C12.9311 7.30762 12.6655 7.57345 12.6655 7.90137C12.6655 8.22929 12.9311 8.49513 13.2587 8.49513Z" fill="white"/>
<path d="M13.2586 8.6436C12.8497 8.6436 12.5171 8.31069 12.5171 7.90151C12.5171 7.49234 12.8497 7.15942 13.2586 7.15942C13.6675 7.15942 14.0001 7.49234 14.0001 7.90151C14.0001 8.31069 13.6675 8.6436 13.2586 8.6436ZM13.2586 7.45606C13.0133 7.45606 12.8137 7.65589 12.8137 7.90154C12.8137 8.1472 13.0133 8.34702 13.2586 8.34702C13.5039 8.34702 13.7035 8.1472 13.7035 7.90154C13.7035 7.65589 13.5039 7.45606 13.2586 7.45606Z" fill="#303030"/>
<path d="M6.1401 1.3357C6.46772 1.3357 6.73332 1.06987 6.73332 0.741948C6.73332 0.414026 6.46772 0.148193 6.1401 0.148193C5.81247 0.148193 5.54688 0.414026 5.54688 0.741948C5.54688 1.06987 5.81247 1.3357 6.1401 1.3357Z" fill="white"/>
<path d="M6.13996 1.48412C5.73109 1.48412 5.39844 1.15123 5.39844 0.742059C5.39844 0.332886 5.73109 0 6.13996 0C6.54884 0 6.88149 0.332915 6.88149 0.742089C6.88149 1.15126 6.54884 1.48412 6.13996 1.48412ZM6.13996 0.29661C5.89464 0.29661 5.69505 0.496436 5.69505 0.742089C5.69505 0.987682 5.89464 1.18754 6.13996 1.18754C6.38529 1.18754 6.58488 0.987712 6.58488 0.742089C6.58488 0.496436 6.38529 0.29661 6.13996 0.29661Z" fill="#303030"/>
<path d="M7.99117 13.8516C8.3188 13.8516 8.58439 13.5857 8.58439 13.2578C8.58439 12.9299 8.3188 12.6641 7.99117 12.6641C7.66354 12.6641 7.39795 12.9299 7.39795 13.2578C7.39795 13.5857 7.66354 13.8516 7.99117 13.8516Z" fill="white"/>
<path d="M7.99104 14C7.58216 14 7.24951 13.6671 7.24951 13.2579C7.24951 12.8488 7.58216 12.5159 7.99104 12.5159C8.39991 12.5159 8.73256 12.8488 8.73256 13.2579C8.73256 13.6671 8.39991 14 7.99104 14ZM7.99104 12.8125C7.74571 12.8125 7.54612 13.0123 7.54612 13.258C7.54612 13.5036 7.74571 13.7034 7.99104 13.7034C8.23636 13.7034 8.43595 13.5036 8.43595 13.258C8.43595 13.0123 8.23639 12.8125 7.99104 12.8125Z" fill="#303030"/>
<path d="M0.741658 7.0337C1.06928 7.0337 1.33488 6.76787 1.33488 6.43995C1.33488 6.11202 1.06928 5.84619 0.741658 5.84619C0.414031 5.84619 0.148438 6.11202 0.148438 6.43995C0.148438 6.76787 0.414031 7.0337 0.741658 7.0337Z" fill="white"/>
<path d="M0.741525 7.18218C0.332648 7.18218 0 6.84926 0 6.44009C0 6.03091 0.332648 5.698 0.741525 5.698C1.1504 5.698 1.48305 6.03091 1.48305 6.44009C1.48305 6.84926 1.1504 7.18218 0.741525 7.18218ZM0.741525 5.99464C0.496199 5.99464 0.29661 6.19446 0.29661 6.44012C0.29661 6.68577 0.496199 6.8856 0.741525 6.8856C0.986852 6.8856 1.18644 6.68577 1.18644 6.44012C1.18644 6.19446 0.986852 5.99464 0.741525 5.99464Z" fill="#303030"/>
<path d="M9.11223 1.87014C9.21871 1.87014 9.30503 1.78373 9.30503 1.67714C9.30503 1.57054 9.21871 1.48413 9.11223 1.48413C9.00575 1.48413 8.91943 1.57054 8.91943 1.67714C8.91943 1.78373 9.00575 1.87014 9.11223 1.87014Z" fill="#E0E0E0"/>
<path d="M12.3403 5.0447C12.4467 5.0447 12.5331 4.95829 12.5331 4.8517C12.5331 4.7451 12.4467 4.65869 12.3403 4.65869C12.2338 4.65869 12.1475 4.7451 12.1475 4.8517C12.1475 4.95829 12.2338 5.0447 12.3403 5.0447Z" fill="#E0E0E0"/>
<path d="M8.63664 9.31924C8.21237 8.68651 7.56873 7.9277 6.82426 7.18255C6.0798 6.43744 5.3217 5.7932 4.68953 5.36854C4.51014 5.24803 3.43152 4.5195 3.26082 5.00469L0.246696 13.5768C0.227743 13.6306 0.241387 13.6905 0.281785 13.7308C0.310052 13.7591 0.347959 13.7743 0.386637 13.7743C0.403128 13.7743 0.419768 13.7715 0.435874 13.7658L9.00014 10.749C9.48486 10.5782 8.75463 9.49519 8.63664 9.31924ZM0.629115 13.3833L1.34039 11.3605C1.7398 11.832 2.17878 12.2715 2.64995 12.6714L0.629115 13.3833ZM2.97572 12.5567C2.42067 12.1017 1.90943 11.5899 1.45506 11.0344L1.97042 9.56869C2.28862 10.0164 2.67697 10.4731 3.10667 10.9032C3.53637 11.3333 3.99276 11.7221 4.44023 12.0408L2.97572 12.5567ZM2.09194 9.22314L2.63607 7.67567C3.44748 9.18221 4.82434 10.5612 6.3321 11.3743L4.78548 11.9191C3.73599 11.2127 2.79742 10.2732 2.09194 9.22314ZM6.71977 11.2378C5.09348 10.4786 3.52961 8.91176 2.77254 7.28755L3.33616 5.68467C3.41977 5.87222 3.5458 6.09144 3.71493 6.34368C4.1392 6.97641 4.78284 7.73522 5.52731 8.48037C6.27177 9.22548 7.02987 9.86972 7.66207 10.2944C7.91425 10.4638 8.13344 10.59 8.32093 10.6737L6.71977 11.2378ZM8.83329 10.4916C8.80399 10.5211 8.54715 10.5317 7.82746 10.0482C7.21078 9.63392 6.46842 9.00267 5.73713 8.27073C5.00584 7.53878 4.37518 6.79571 3.96129 6.1785C3.47809 5.45782 3.48894 5.20075 3.51831 5.17139C3.68284 5.00611 4.43542 5.55517 4.52414 5.61476C5.14079 6.02903 5.88315 6.66028 6.61444 7.39222C7.34573 8.12417 7.97639 8.86721 8.39028 9.48442C8.87351 10.2051 8.86266 10.4622 8.83329 10.4916Z" fill="#303030"/>
<path d="M7.76693 6.71809C7.75421 6.71809 7.74142 6.71753 7.72858 6.71646L7.19691 6.67164C7.11528 6.66476 7.05471 6.59304 7.06156 6.51142C7.06842 6.42979 7.14043 6.36937 7.22179 6.37607L7.75347 6.42089C7.84746 6.41932 7.901 6.37195 7.91408 6.27881L7.94247 5.56689C7.95202 5.32711 8.15522 5.13497 8.39468 5.13953L9.03245 5.15051C9.12603 5.14271 9.17631 5.09193 9.18328 4.9982L9.16779 4.38371C9.16159 4.13898 9.36708 3.92729 9.61253 3.92729H10.2441C10.3405 3.91691 10.3897 3.86319 10.3919 3.7662L10.3347 3.08649C10.3278 3.00489 10.3884 2.93314 10.47 2.92629C10.5513 2.91959 10.6233 2.98003 10.6302 3.06163L10.6874 3.74134C10.7088 3.99483 10.4992 4.2239 10.2441 4.2239H9.6125C9.52031 4.23298 9.4709 4.28375 9.46425 4.37621L9.47974 4.99073C9.486 5.23813 9.2757 5.45169 9.02729 5.44706L8.38955 5.43609C8.38872 5.43609 8.38783 5.43606 8.387 5.43606C8.30819 5.43606 8.24195 5.49956 8.23881 5.57873L8.21042 6.29062C8.20123 6.52381 8.00072 6.71809 7.76693 6.71809Z" fill="#303030"/>
<path d="M8.32963 7.8486C8.18734 7.8486 8.12909 7.65165 8.25011 7.57498C8.33734 7.51972 10.4065 6.22395 12.1085 6.45981C12.1896 6.47108 12.2463 6.54595 12.235 6.6271C12.2237 6.70819 12.149 6.76473 12.0677 6.75367C10.4728 6.5321 8.42926 7.81256 8.40885 7.82555C8.38423 7.84116 8.35677 7.8486 8.32963 7.8486Z" fill="#303030"/>
<path d="M6.30685 5.8236C6.19164 5.8236 6.12049 5.6928 6.18159 5.59607C6.19455 5.57558 7.47321 3.52867 7.25253 1.93356C7.24132 1.85244 7.29797 1.77754 7.37912 1.7663C7.46045 1.75512 7.53514 1.81177 7.54638 1.89289C7.78198 3.59618 6.48754 5.66723 6.43228 5.75455C6.40407 5.79919 6.35599 5.8236 6.30685 5.8236Z" fill="#303030"/>
<path d="M5.05002 5.15002C4.95881 5.15002 4.88694 5.06466 4.90414 4.97402C4.90883 4.94931 5.36359 2.49302 4.53148 1.68019C4.4729 1.62294 4.4718 1.52904 4.52902 1.47046C4.58629 1.41182 4.6802 1.41081 4.73875 1.46799C5.68435 2.3917 5.21594 4.92214 5.19553 5.02942C5.18201 5.10052 5.11981 5.15002 5.05002 5.15002Z" fill="#303030"/>
<path d="M12.4273 9.5218C12.3887 9.5218 12.3502 9.50683 12.3211 9.47702C11.5083 8.64342 9.05531 9.09937 9.0306 9.10409C8.95042 9.11948 8.8725 9.06663 8.85714 8.98616C8.84181 8.90572 8.89463 8.82806 8.9751 8.81273C9.08224 8.79229 11.6106 8.32341 12.5335 9.26995C12.6199 9.35858 12.5507 9.5218 12.4273 9.5218Z" fill="#303030"/>
<path d="M11.1343 12.7372C11.047 12.7372 10.9739 12.6507 10.9879 12.565L11.1092 11.8216L10.5968 11.2963C10.514 11.2114 10.5634 11.064 10.6806 11.0461L11.3827 10.9388L11.698 10.2668C11.7504 10.1552 11.9142 10.1552 11.9666 10.2668L12.2819 10.9388L12.984 11.0461C13.1012 11.064 13.1506 11.2114 13.0678 11.2963L12.5554 11.8216L12.6767 12.565C12.6962 12.685 12.5649 12.7774 12.4585 12.7187L11.8323 12.3725L11.2061 12.7187C11.1837 12.7311 11.159 12.7372 11.1343 12.7372ZM11.8323 12.0547C11.857 12.0547 11.8817 12.0609 11.904 12.0732L12.3347 12.3113L12.2506 11.7954C12.243 11.749 12.2579 11.7017 12.2908 11.668L12.6539 11.2957L12.1588 11.22C12.11 11.2125 12.068 11.1812 12.047 11.1364L11.8323 10.6789L11.6176 11.1364C11.5966 11.1812 11.5546 11.2125 11.5057 11.22L11.0107 11.2957L11.3738 11.668C11.4067 11.7017 11.4216 11.7489 11.414 11.7954L11.3298 12.3113L11.7606 12.0732C11.7828 12.0609 11.8076 12.0547 11.8323 12.0547Z" fill="#303030"/>
<path d="M11.4312 3.14857C11.3438 3.14857 11.2708 3.06211 11.2848 2.97639L11.4061 2.23293L10.8937 1.70764C10.8109 1.62281 10.8603 1.47539 10.9774 1.45748L11.6795 1.35016L11.9949 0.678193C12.0473 0.566579 12.2111 0.566579 12.2634 0.678193L12.5788 1.35016L13.2809 1.45748C13.398 1.47539 13.4475 1.62278 13.3647 1.70764L12.8523 2.23293L12.9735 2.97639C12.9931 3.09634 12.8618 3.18879 12.7554 3.13006L12.1292 2.78383L11.503 3.13006C11.4806 3.14243 11.4558 3.14857 11.4312 3.14857ZM12.1292 2.46607C12.1539 2.46607 12.1786 2.47224 12.2009 2.48458L12.6316 2.7227L12.5475 2.20677C12.5399 2.16035 12.5548 2.11304 12.5877 2.07935L12.9508 1.70704L12.4557 1.63138C12.4068 1.62391 12.3649 1.59255 12.3439 1.54779L12.1292 1.09024L11.9144 1.54779C11.8934 1.59258 11.8515 1.62391 11.8026 1.63138L11.3075 1.70704L11.6707 2.07935C11.7035 2.11304 11.7185 2.16032 11.7109 2.20677L11.6267 2.72267L12.0574 2.48458C12.0797 2.47224 12.1044 2.46607 12.1292 2.46607Z" fill="#303030"/>
<path d="M1.49907 3.56288C1.41172 3.56288 1.33869 3.47641 1.35269 3.39069L1.47395 2.64724L0.961551 2.12194C0.878738 2.03711 0.928183 1.8897 1.04531 1.87178L1.74742 1.76447L2.06278 1.0925C2.11513 0.980885 2.27895 0.980885 2.3313 1.0925L2.64665 1.76447L3.34879 1.87178C3.46592 1.8897 3.51536 2.03708 3.43255 2.12194L2.92016 2.64724L3.04141 3.39069C3.06099 3.51064 2.92965 3.6031 2.82328 3.54437L2.19705 3.19814L1.57085 3.54437C1.54842 3.55674 1.52372 3.56288 1.49907 3.56288ZM2.19702 2.88038C2.22173 2.88038 2.24644 2.88655 2.26877 2.89889L2.69948 3.137L2.61533 2.62108C2.60774 2.57466 2.62266 2.52735 2.65552 2.49366L3.01866 2.12135L2.52362 2.04572C2.47474 2.03824 2.43277 2.00689 2.41177 1.96213L2.19705 1.50458L1.98234 1.96213C1.96134 2.00692 1.91936 2.03824 1.87048 2.04572L1.37544 2.12138L1.73858 2.49369C1.77145 2.52738 1.78636 2.57466 1.77877 2.62111L1.69462 3.137L2.12533 2.89892C2.14758 2.88655 2.17231 2.88038 2.19702 2.88038Z" fill="#303030"/>
</svg>
