<svg width="16" height="22" viewBox="0 0 16 22" fill="none" xmlns="http://www.w3.org/2000/svg">
<path fill-rule="evenodd" clip-rule="evenodd" d="M2.77989 0H9.94045L16 6.32504V18.6081C16 20.1464 14.7584 21.3958 13.2201 21.3958H2.77989C1.24938 21.3958 4.38687e-10 20.1464 4.38687e-10 18.6081V2.77989C-2.70331e-05 1.24938 1.24938 0 2.77989 0Z" fill="#00733B"/>
<path opacity="0.302" fill-rule="evenodd" clip-rule="evenodd" d="M9.93311 0V6.27038H16.0005L9.93311 0Z" fill="white"/>
<path d="M6.65306 15.5801H5.61451L4.90394 14.3854L4.19333 15.5801H3.14697L4.38076 13.503L3.29536 11.6992H4.34169L4.90391 12.6362L5.45831 11.6992H6.50468L5.42706 13.5108L6.65306 15.5801ZM7.02007 15.5801V11.6992H8.01177V14.7367H9.69845V15.5801H7.02007V15.5801ZM11.3383 15.627C10.9478 15.627 10.6043 15.502 10.3075 15.2599C10.0186 15.0257 9.85465 14.729 9.83121 14.3776L10.6824 14.1277C10.7058 14.3151 10.7839 14.4791 10.9166 14.604C11.0572 14.729 11.2134 14.7914 11.3852 14.7914C11.5257 14.7914 11.6428 14.7602 11.7365 14.6977C11.8224 14.6353 11.8693 14.5494 11.8693 14.4479C11.8693 14.362 11.8302 14.2917 11.7599 14.2292C11.6897 14.1745 11.596 14.1277 11.4866 14.0887C11.3773 14.0496 11.2446 14.0106 11.1118 13.9793C10.9713 13.9403 10.8307 13.8935 10.698 13.831C10.5574 13.7763 10.4325 13.706 10.3231 13.6201C10.206 13.542 10.1201 13.4249 10.0498 13.2765C9.97954 13.136 9.94051 12.9642 9.94051 12.769C9.94051 12.4488 10.0732 12.1833 10.3465 11.9725C10.6199 11.7539 10.9478 11.6523 11.3304 11.6523C11.7131 11.6523 12.0488 11.746 12.3299 11.9257C12.6111 12.1131 12.7907 12.3551 12.8609 12.6519L11.9708 13.0267C11.9317 12.8627 11.8536 12.73 11.7443 12.6284C11.635 12.5347 11.4944 12.4801 11.3304 12.4801C11.2055 12.4801 11.1118 12.5113 11.0337 12.5582C10.9634 12.605 10.9322 12.6753 10.9322 12.7612C10.9322 12.8393 10.9791 12.9096 11.0728 12.9642C11.1665 13.0111 11.2914 13.0501 11.4319 13.0736C11.5725 13.097 11.7287 13.136 11.8927 13.1907C12.0645 13.2532 12.2128 13.3156 12.3612 13.4015C12.5017 13.4796 12.6189 13.6124 12.7126 13.7842C12.8141 13.9638 12.8609 14.1746 12.8609 14.4167C12.8609 14.7759 12.7204 15.0726 12.4392 15.2912C12.1581 15.5098 11.7912 15.627 11.3383 15.627Z" fill="white"/>
</svg>
